<?xml version="1.0" encoding="UTF-8"?><svg id="Ebene_1" xmlns="http://www.w3.org/2000/svg" width="42.574829" height="42.574768" viewBox="0 0 42.574829 42.574768"><defs><style>.cls-1{fill:#043854;}.cls-1,.cls-2,.cls-3{stroke-width:0px;}.cls-2{fill:#32a98d;}.cls-3{fill:#fff;}</style></defs><circle class="cls-1" cx="21.287419" cy="21.287393" r="20.287361"/><path class="cls-2" d="M21.287476,1h-.030762c-.003662,0-.00708,0-.01062.000122h-.032593c-.006104,0-.012695.000122-.018921.000122h-.012695c-.006714.000122-.011719.000122-.018555.000122-.004395,0-.008301.000122-.012817.000122-.006104,0-.012451.000122-.018555.000122-.004272,0-.008057,0-.012329.000122-.006714,0-.013306.000122-.020142.000122-.003906,0-.006958.000122-.010864.000122-.020508.000244-.041016.000366-.061401.000732-.003662,0-.006958,0-.010498.000122-.006836,0-.013794.000122-.02063.000244-.003784,0-.008057.000122-.011841.000122-.006226.000122-.012817.000244-.018921.000366-.00415,0-.008545.000122-.012695.000122-.006104.000122-.012573.000244-.018677.000366-.00415.000122-.008301.000122-.012451.000244-.006226.000122-.012329.000244-.018433.000244-.00415.000122-.008545.000244-.012695.000244-.006836.000122-.013306.000366-.020142.000488-.003296,0-.007202.000122-.010498.000122-.010254.000244-.019409.000488-.029663.000732h-.000977c-.010254.000244-.02063.000488-.030762.000732-.003662,0-.007202.000122-.010742.000244-.006836.000122-.013062.000244-.019775.000488-.004517.000122-.008667.000122-.013184.000244-.005493.000244-.012451.000366-.017944.000488-.00415.000122-.008667.000244-.012817.000366-.006104.000122-.012085.000366-.018188.000488-.00415.000122-.008789.000244-.013062.000366-.006104.000244-.012207.000366-.018311.00061-.00415.000122-.008179.000244-.012329.000366-.006714.000122-.012573.000366-.019409.00061-.003784.000122-.00769.000244-.011597.000366-.009521.000244-.017944.000488-.027466.000854-.001221,0-.001709,0-.002808.000122-.010254.000244-.020264.00061-.030518.000977-.00354.000122-.00769.000244-.01123.000366-.006104.000244-.013306.000488-.019409.000732-.004517.000122-.008667.000366-.013184.000488-.005371.000244-.011841.000488-.017212.00061-.004761.000244-.009155.000366-.013916.00061-.005371.000122-.011963.000366-.017334.00061-.004517.000244-.008911.000366-.013306.000488-.006104.000244-.011353.000488-.017456.000732-.004517.000244-.008911.000366-.013428.00061-.005981.000244-.012451.000488-.018555.000732-.003906.000122-.008057.000366-.011963.000488-.008057.000366-.016479.000732-.024536.001099-.002075.000122-.003784.000122-.005859.000244-.010132.000488-.020142.000854-.030273.001343-.00354.000244-.007202.000366-.010742.000488-.006714.000366-.013062.00061-.019775.000977-.004517.000244-.008423.000366-.012939.00061-.005371.000244-.012207.00061-.017578.000854-.004761.000244-.008789.000366-.01355.00061-.005371.000366-.011597.00061-.01709.000854-.004639.000244-.009277.000488-.014038.000732-.005371.000244-.010986.00061-.016357.000854l-.014282.000732c-.005981.000366-.011108.00061-.01709.000977-.00415.000122-.009033.000488-.013184.00061-.008057.000488-.015015.000854-.023071.001343-.002686.000122-.004517.000244-.007202.000366-.01001.00061-.019775.001099-.029907.001709-.004028.000244-.007812.000366-.011841.00061-.006104.000366-.012451.000732-.018555.001099-.004395.000244-.008911.000488-.013428.000854-.005371.000244-.011719.00061-.01709.000977-.004761.000244-.008911.000488-.013672.000854-.005371.000244-.011597.00061-.016968.000977-.004761.000366-.009277.00061-.013916.000854-.005493.000366-.011108.000732-.016479.001099-.004761.000244-.009277.000488-.013916.000854-.006104.000366-.011475.000732-.017456.001099-.00415.000244-.008911.00061-.013062.000854-.007446.000488-.014038.000977-.021484.001465-.00293.000122-.005737.000366-.008667.000488-.010132.000732-.019775.001343-.029785.002075-.003784.000244-.007812.000488-.011597.000732-.006104.000488-.012451.000854-.018555.001343-.005005.000244-.009277.00061-.014282.000977-.005371.000366-.010498.000732-.015869.001099-.004761.000366-.009888.000732-.014526.001099-.005371.000366-.01062.000732-.015991.001099-.005005.000366-.009644.000732-.014648.001099-.004761.000366-.010742.000732-.015503.001099l-.015015.001099c-.004761.000366-.010376.000854-.015015.001099-.005371.000488-.010132.000854-.015381.001221-.005371.000366-.011719.000854-.01709.001343-.004395.000366-.008423.00061-.012817.000977-.009399.000732-.019531.001465-.028931.002197-.004395.000366-.009155.000732-.01355.001099-.005371.000488-.011597.000977-.016968.001343-.004639.000488-.009277.000854-.014038.001221-.005371.000366-.010498.000854-.015869.001221-.005005.000488-.009644.000854-.014648.001221-.005371.000488-.010742.000977-.016113.001343-.005005.000488-.009277.000854-.01416.001221-.005371.000488-.01062.000854-.015991.001343-.004761.000366-.009644.000854-.014282.001221-.005371.000488-.010986.000977-.016357.001465-.004761.000366-.009399.000732-.01416.001221-.005249.000488-.011597.000977-.016846.001465l-.013184.001099c-.009399.000854-.019409.001831-.028809.002686-.004395.000366-.009399.000854-.013794.001221-.005371.000488-.010864.000977-.016235.001465-.005005.000488-.010376.000977-.015259.001465-.004761.000366-.01001.000854-.014648.001343-.005249.000488-.010254.000977-.015503.001465-.004639.000366-.009766.000854-.014404.001343-.005615.000488-.010742.000977-.016357.001465-.004639.000488-.008789.000854-.01355.001343-.005249.000488-.010742.001099-.015991.001587-.004639.000488-.009644.000854-.014282.001343-.005249.000488-.010742.001099-.015991.001587-.004639.000488-.009399.000977-.01416.001465-.005249.000488-.010376.000977-.015625.001465h-.000122c-.015503.001587-.031128.003174-.046631.004761-.003906.000366-.006958.000732-.010986.001099-.005737.00061-.011719.001221-.017578.001831-.004028.000488-.008301.000854-.012207.001343-.005615.000488-.011353.001099-.016846.001709-.004761.000488-.008789.000977-.013428.001465-.005493.00061-.010986.001099-.016602.001709-.004639.000488-.008179.000854-.012817.001343-.005737.000732-.011353.001221-.017212.001953-.003906.000366-.008057.000854-.012085.001221-.005859.000732-.011963.001343-.017822.001953-.004028.000488-.007202.000854-.01123.001221-.021851.002441-.043213.004883-.064941.007324-.004028.000488-.00647.000732-.010376.001221-.006104.00061-.012451.001343-.018555.002075-.003906.000488-.007202.000854-.01123.001343-.005737.00061-.011841.001343-.0177.001953-.003906.000488-.008057.000977-.011963.001465-.005859.000732-.012085.001465-.017944.002075-.003296.000366-.008179.000977-.011475.001343-.005737.000732-.012085.001465-.017822.002197-.004028.000488-.00769.000854-.011719.001343-.005981.000732-.012085.001465-.018066.002197-.003418.000366-.006714.000854-.01001.001221-.022705.002808-.045532.005615-.068115.008423-.002563.000244-.005249.00061-.007935.000977-.006714.000854-.013184.001587-.019897.002441-.002563.000366-.006714.000854-.009277.001221-.00647.000854-.012817.001587-.019165.002441-.003296.000366-.007446.000977-.010864.001343-.005981.000854-.012085.001587-.018188.002441-.003296.000366-.007812.000977-.011108.001343-.006104.000854-.012207.001587-.018188.002441-.004028.000488-.00708.000854-.011108.001465-.006104.000732-.012573.001587-.018677.002441-.003296.000366-.005249.000732-.008667.001099-.023071.003052-.046143.006226-.069214.009277-.002563.000366-.005005.000732-.007568.001099-.006348.000854-.012939.001709-.019287.002563-.003906.00061-.006226.000854-.010254.001465-.006348.000854-.012207.001709-.018555.002563-.003296.000488-.007324.000977-.01062.001465-.006348.000854-.012695.001831-.019043.002686-.003296.000488-.006592.000977-.009888.001343-.006348.000977-.012695.001831-.019043.002686l-.009888.001465c-.006592.000977-.013184.001831-.019897.002808-.001953.000366-.004395.00061-.006348.000977-.025269.003662-.050415.007202-.075684.010986-.00061.000122-.001465.000244-.002075.000366-.007446.001099-.014771.002197-.022217.003296-.002075.000244-.005005.000732-.006958.000977-.006836.000977-.013794.002075-.02063.003052-.002686.000488-.005981.000977-.008667.001343-.006836.001099-.013672.002075-.020508.003174-.002075.000244-.005737.000854-.00769.001099-.007202.001099-.01416.002197-.021362.003296-.002563.000366-.004272.00061-.006958.000977-.007202.001099-.014771.002319-.021973.003418-.001343.000244-.003052.000488-.004272.000732-.03418.005249-.068359.01062-.102417.016113-.001953.000244-.00354.00061-.005493.000854-.006958.001099-.014526.002319-.021362.003418-.002686.000488-.005249.000854-.007935.001343-.006836.001099-.013916.002197-.020874.003296-.002563.000488-.005005.000854-.007568.001343-.006836.001099-.014282.002319-.021118.003418-.002686.000488-.00415.000732-.006714.001099-.007812.001343-.015015.002441-.022705.003784-.00061.000122-.000977.000122-.001587.000244-.0354.005859-.071411.011963-.106812.018066-.000732.000122-.001465.000244-.002075.000366-.00769.001343-.015747.002686-.023438.004028-.001953.000366-.003906.00061-.005859.000977-.007446.001343-.014771.002563-.022217.003906-.001953.000244-.004028.00061-.005981.000977-.007324.001343-.015259.002686-.022705.004028-.001221.000244-.003418.00061-.004761.000854-.007935.001343-.015869.002808-.023926.00415-.00061.000122-.000366.000122-.000977.000244-.035645.006348-.071655.012817-.107178.019287-.000732.000122-.001099.000244-.001709.000366-.007935.001465-.015747.002808-.023804.004272-.001953.000366-.003052.00061-.005005.000977-.007935.001465-.015381.002808-.023315.004272-.001343.000244-.003052.00061-.004395.000854-.007935.001465-.015747.00293-.023804.004395-.001221.000244-.002197.000488-.00354.000732-.053101.009888-.106201.020142-.159058.030518-.000732.000122-.002319.000366-.003052.000488-.008423.001709-.016235.003296-.02478.004883-.00061.000122-.001831.000366-.002563.000488-.008423.001709-.01709.003418-.025635.005127l-.000732.000122c-.054077.010742-.10791.021729-.161865.032837l-.00061.000122c-.009033.001953-.017578.003662-.026611.005615h-.000366c-.072266.015137-.143799.030518-.215698.046265l-.000488.000122c-3.190796.702515-6.099487,2.156006-8.531982,4.165771l12.468994,15.091064c-.064697.049438-.159912.144531-.222046.321167L2.146973,14.545776c-.177002.502563-.334717,1.01416-.472412,1.534058l-.000122.000244c-.013428.050781-.026611.101318-.039673.152222-.000122.00061-.000366.001709-.000488.002319-.002075.007935-.00415.015747-.006104.023682-.000122.00061-.000488.001831-.00061.002441-.008545.033325-.016846.06665-.025269.099976-.000122.00061-.000244.000977-.000366.001587-.001831.007324-.003662.014771-.005493.022095-.000488.001953-.000854.003296-.001343.005249-.001709.00708-.003418.01416-.005249.021362-.000488.001831-.000854.003662-.001343.005493-.001831.007446-.003662.014648-.005371.022095-.000244.00061-.000488.001587-.00061.002319-.007935.032227-.015747.064331-.023438.09668-.00061.002563-.001099.004272-.001709.006836-.001465.006348-.003052.012817-.004517.019287-.00061.002563-.001465.005859-.002075.008423-.001587.006592-.003052.013062-.004639.019653-.000488.001953-.001099.004517-.001587.00647-.001587.006958-.003296.014038-.004883.021118-.000244.00061-.000488.001831-.00061.002563-.005615.023438-.011108.046997-.016479.070557-.000488.001953-.000977.00415-.001465.006104-.001587.006714-.003052.013184-.004639.019897-.000488.002563-.001221.005493-.001831.008057-.001465.006348-.00293.012695-.004272.019043-.00061.002563-.001465.006348-.002075.008911-.001465.006226-.002808.012329-.004272.018555-.000732.003174-.001343.005981-.002075.009155-.004761.021362-.009644.042603-.014404.063965-.000488.002563-.001099.005249-.001709.007812-.001343.005981-.002563.011719-.003906.017578-.000854.003906-.001587.00708-.002441.010864-.001221.005859-.002441.011475-.003784.017212-.000854.003906-.001465.006836-.002319.010742-.001343.005737-.002563.011475-.003784.017212-.000732.003296-.001709.007446-.002319.01062-.001343.005859-.002563.011841-.003906.017578-.00061.003296-.001343.00647-.002075.009644-.002319.010986-.004761.021973-.00708.032959-.000854.003906-.001587.007324-.002441.011108-.001221.005615-.002319.010986-.00354.016479-.000732.003906-.001709.008057-.002563.011963-.001099.005371-.002197.010864-.003418.016235-.000854.003906-.001709.008057-.002563.011963-.001099.005371-.002197.010864-.003418.016357-.000854.003906-.001709.008179-.002563.012085-.001099.005493-.002319.010986-.003418.016357-.00061.003296-.001587.007812-.002319.010986-.002686.013062-.005371.026001-.008057.039062-.000366.001831-.000488.002197-.000854.00415-.001099.005249-.002197.01062-.003296.015869-.000732.003906-.001831.008667-.002563.012573-.001099.005249-.002197.010498-.003296.015869-.000732.003906-.001831.009033-.002563.012939-.001099.005005-.002075.010132-.003052.015137-.000977.004517-.001831.008667-.002686.013184-.001099.005371-.002197.010498-.003174.015747-.000977.004517-.001709.008423-.002563.012939-.001099.005005-.002075.010254-.003052.015259-.001099.005127-.002319.01123-.003296.016357-.001587.00769-.003052.015259-.004517.022949-.001099.005127-.002197.011108-.003296.016357-.000854.00415-.001709.008789-.002563.013062-.000977.005127-.002075.010498-.003052.015747-.000854.004395-.001709.008911-.002563.013306-.000977.005127-.002197.010864-.003174.015991-.000732.004272-.001709.008789-.002441.013062-.001099.005127-.002075.010742-.003052.015869-.000854.004395-.001709.008667-.002563.013062-.001221.00647-.002441.012695-.003662.019165-.00061.003174-.001221.006348-.001831.009399-.001709.009155-.00354.018921-.005249.027954-.000732.003662-.001343.007202-.002075.010986-.001099.005737-.002319.012207-.003296.018066-.000854.003906-.001587.007935-.002319.011963-.001099.005859-.002075.01123-.003174.01709-.000732.004028-.001587.008301-.002319.012329-.000977.005859-.002197.011963-.003174.017822-.000732.00354-.001465.007446-.002075.010986-.001221.00647-.002441.013672-.003662.020142-.00061.003052-.001099.005981-.001709.009033-.001587.009155-.00354.019409-.005127.028564-.000488.002563-.000977.005249-.001465.007812-.001221.007202-.002441.013916-.003662.020996-.000732.003784-.001343.007568-.002075.01123-.000977.005859-.002197.012573-.003296.018433-.00061.003662-.001343.007568-.001953.01123-.000977.005859-.002197.012329-.003174.018188-.000732.003784-.001343.007324-.001953.011108-.001221.006592-.002441.01355-.00354.020142-.000488.00293-.000977.005981-.001587.009033-.003418.019531-.006714.038818-.01001.05835-.000488.00293-.000977.005859-.001465.008667-.001221.007202-.002319.013428-.00354.020508-.00061.003784-.001221.007202-.001831.010864-.001099.006592-.001953.012085-.003052.018555-.00061.00354-.001221.007446-.001831.010986-.000977.005859-.002197.013306-.003174.019165-.00061.003418-.001221.00708-.001831.010498-.001221.007812-.002563.015625-.003784.023438-.000366.001831-.00061.003662-.000977.005371-.001587.009888-.003174.019653-.004761.029419-.000366.002319-.000732.004639-.001099.006836-.001221.007202-.002563.015625-.003662.022827-.000488.003052-.001099.00647-.001587.009521-.000977.00647-.002075.012939-.003052.019531-.00061.003784-.001221.007324-.001831.01123-.001099.00647-.001953.012207-.00293.018799-.00061.00354-.001221.00708-.001709.01062-.001099.006592-.002197.014038-.003296.020508-.000488.003052-.000854.005737-.001343.008789-.001465.009888-.003052.019653-.004517.029419-.000244.000977-.000244.001831-.000488.002808-.001343.009155-.002686.017212-.004028.026367-.000488.003296-.000977.00647-.001465.009644-.000977.006592-.002075.013672-.003052.020264-.000488.003174-.000977.006592-.001465.009766-.000977.006592-.002075.013794-.003052.020386-.00061.003296-.000977.00647-.001465.009766-.001099.007202-.002075.013916-.003174.021118-.000488.002808-.000854.005615-.001221.008423-.001465.009277-.002563.017212-.003906.026367-.000244.001099-.000366.002197-.000488.003296-.001465.009888-.00293.020264-.004395.030151-.000244.001709-.00061.003784-.000854.005615-.001099.007812-.002197.015747-.003418.023682-.000366.003052-.000854.006104-.001221.009155-.001099.007202-.001953.013794-.003052.020996-.000366.003052-.000854.006226-.001343.009277-.000977.007324-.001953.013916-.00293.021118-.000366.00293-.000854.005859-.001221.008789-.001221.008545-.002441.017212-.00354.025757-.000244.001221-.000366.002441-.00061.003662-.001465.010498-.002808.020264-.00415.030884-.000122.000244-.000122.00061-.000122.000854-.001343.009888-.002563.018799-.003906.028687-.000366.002441-.000732.004883-.000977.007446-.001099.007202-.002075.015137-.003052.022339-.000366.00293-.000854.006104-.001221.009033-.000854.006592-.001953.015015-.002808.021606-.000366.002808-.000854.005615-.001221.008423-.000977.007935-.001953.015625-.003052.02356-.000244.002197-.000488.00415-.000854.006348-.002563.019775-.005127.040283-.00769.060181-.000366.002319-.00061.005005-.000977.007446-.000854.007202-.001953.015259-.002808.022461-.000366.003174-.000732.005981-.001099.009033-.000854.006592-.001831.014648-.002686.02124l-.001099.009155c-.000977.007324-.001953.015137-.002808.022461-.000244.002319-.00061.005005-.000854.007446-.001221.009155-.002319.018677-.003418.027954-.000122.00061-.000122.001099-.000244.001831-.001343.01062-.002441.020508-.003784.031128,0,.000732-.000122.001587-.000244.002319-.001099.009277-.002197.018188-.003296.027466-.000244.002441-.00061.005127-.000854.00769-.000854.007324-.001709.014893-.002563.022095-.000366.003174-.000732.006226-.001099.009277-.000854.007324-.001587.014038-.002441.02124-.000366.00293-.000732.006104-.000977.009033-.000977.007935-.001953.016479-.002808.024414-.000244.001831-.000366.003418-.00061.005249-.002197.019897-.004639.041016-.006836.061035-.000244.002197-.000488.004517-.000732.006714-.000732.007324-.001709.015747-.002441.023071-.000366.00293-.00061.005859-.000977.008789-.000732.007324-.001587.014771-.002319.022095-.000366.00293-.00061.005615-.000977.008545-.000732.007324-.001587.015259-.002319.022583-.000366.002686-.00061.005005-.000854.00769-.000977.009277-.001953.018677-.00293.027954,0,.000732-.000122.001465-.000244.002197-.000977.01001-.002075.020386-.003052.030396-.000244.002197-.000488.004272-.00061.00647-.000854.007324-.001709.016357-.002441.023682-.000244.002808-.00061.005859-.000854.008667-.000732.007446-.001465.01416-.002075.021484-.000366.003174-.000732.00647-.000977.009644-.000732.007446-.001465.014648-.002197.021973-.000244.002686-.000488.005249-.000732.007935-.000854.008667-.001587.016357-.002441.025024-.000122.001831-.000366.003662-.000488.005493-.000977.01001-.001953.020874-.00293.030884,0,.000244,0,.000488-.000122.000732-.000854.01001-.001709.019043-.002686.029053-.000244.002563-.000488.005127-.00061.00769-.000732.007324-.001465.015625-.002197.022949-.000244.00293-.000488.005493-.000732.008545-.00061.007324-.001221.014404-.001953.021729-.000244.003174-.000488.005981-.000732.009155-.000732.007935-.001465.015869-.002197.023926-.000122.001953-.000366.004028-.000488.005981-.001709.02002-.00354.041626-.005249.061646-.000122.001709-.000366.00354-.000488.005249-.00061.007935-.001343.016602-.002075.024658l-.000732.008789c-.00061.007446-.001099.014648-.001709.022095-.000244.00293-.000488.005615-.000732.008545-.00061.007324-.001221.015259-.001831.022583-.000244.002686-.000488.005493-.00061.008179-.000732.009399-.001465.018311-.002197.02771-.000122.000854-.000122.001465-.000244.002319-.000732.010742-.001465.020264-.002319.031006-.000122.001709-.000244.003296-.000366.005005-.000732.008667-.001221.016724-.001953.025391-.000122.002686-.000366.005615-.00061.008301-.000488.007324-.001099.014526-.001587.021973-.000244.003052-.000488.00647-.000732.009521-.000488.007446-.000977.01416-.001587.021484-.000122.003052-.000366.006226-.00061.009155-.000488.007446-.001099.016113-.001587.023438-.000244.002319-.000366.004639-.000488.006836-.000732.010132-.001465.020874-.002197.030884v.000122c-.000732.010132-.001343.02002-.001953.030151-.000244.002686-.000366.005127-.00061.007812-.000488.007446-.000977.015259-.001465.022583-.000122.003052-.000366.006226-.00061.009277-.000366.006714-.000977.014771-.001343.021484-.000244.003174-.000366.00647-.00061.009644-.000488.007446-.000977.014282-.001343.021729-.000244.002808-.000366.005859-.00061.008789-.00061.01001-.001221.019531-.001831.029663v.000366c-.00061.01001-.001221.020996-.001831.031128-.000122.001953-.000244.004028-.000366.005981-.000488.008057-.000854.015869-.001343.023926-.000244.003296-.000366.006592-.00061.009888-.000366.007446-.000732.013672-.001099.021118-.000244.003174-.000366.006348-.00061.009644-.000366.007446-.000732.014282-.001099.021606-.000244.003052-.000366.006104-.000488.009033-.000488.008789-.000854.015991-.001343.02478-.000122.001831-.000244.003784-.000366.005615-.000488.010864-.000977.019897-.001587.030762,0,.001709-.000122.003418-.000244.005127-.000366.008789-.000854.016357-.001221.025146-.000122.003174-.000366.006348-.000488.009521-.000366.007324-.00061.01355-.000977.020996-.000244.00354-.000366.006958-.000488.01062-.000366.006714-.00061.01355-.000977.020264-.000122.00354-.000366.006836-.000488.010376-.000366.007446-.00061.014526-.000977.021973l-.000366.008423c-.000977.020264-.001831.040771-.002686.061035-.000122.002808-.000122.005615-.000244.008423-.000366.007446-.00061.014526-.000977.022095-.000122.003418-.000244.006714-.000366.010254-.000244.006714-.000488.01355-.000732.020264-.000244.00354-.000366.007324-.000488.010864-.000244.007446-.000488.013428-.000732.020996-.000122.003052-.000244.006348-.000366.009399-.000366.008789-.00061.016968-.000977.025757,0,.001587,0,.003052-.000122.004639-.000366.010132-.000732.02063-.000977.030762-.000122.002319-.000244.004395-.000244.006592-.000244.007446-.00061.016357-.000854.023804,0,.003418-.000122.006958-.000244.010376-.000244.006714-.000488.013428-.00061.020142-.000122.003784-.000244.007202-.000366.010986-.000244.006714-.000366.013306-.00061.02002-.000122.003662-.000244.007446-.000244.010986-.000244.007568-.000488.014648-.00061.022095-.000122.002686-.000244.005371-.000244.008057-.000366.010254-.00061.020264-.000854.030518,0,.001709,0,.003418-.000122.005127-.000244.008789-.000366.016724-.00061.025513-.000122.003296-.000122.006226-.000244.009521-.000122.007568-.000244.013672-.000488.021118,0,.00354-.000122.006958-.000244.010498-.000122.006836-.000244.014038-.000366.020874-.000122.003418-.000122.006836-.000244.010254-.000122.006836-.000244.014282-.000366.021118-.000122.003296-.000244.00647-.000244.009766-.000122.008789-.000366.0177-.000488.026611,0,.001221,0,.002563-.000122.003906-.000122.010132-.000244.020264-.000488.030396,0,.003052,0,.005981-.000122.009033-.000122.006714-.000244.014648-.000244.021484-.000122.003784-.000122.007446-.000244.011108-.000122.006836-.000122.012817-.000244.019531,0,.004028-.000122.007812-.000122.011841-.000122.006836-.000122.013184-.000244.019897,0,.00354-.000122.006958-.000122.010376-.000122.007446-.000122.015381-.000244.022827,0,.002686,0,.005493-.000122.008179,0,.010132-.000122.02002-.000244.030273v.006836c-.000122.007568-.000122.015991-.000244.02356v.01123c0,.006104-.000122.013306-.000122.019531v.011963c-.000122.006104-.000122.012817-.000122.018921v.011841c-.000122.006836-.000122.01355-.000122.020386v.040649h0v.041626c0,.006836,0,.013428.000122.020264v.012329c0,.006104,0,.012451.000122.018555v.012939c0,.005493.000122.012817.000122.018311,0,.004272,0,.008667.000122.012939,0,.006226,0,.012573.000122.018677v.012207c.000122.006836.000122.013794.000244.02063,0,.003418,0,.006836.000122.010254.000122.020508.000366.04126.00061.061768.000122.003174.000122.00647.000122.009521.000122.006836.000244.014648.000366.021484,0,.003906.000122.00769.000122.011597.000122.006104.000244.013062.000244.019287.000122.004028.000122.008301.000244.012329.000122.006836.000244.012207.000366.019043,0,.004028.000122.008179.000122.012207.000122.006104.000244.012695.000366.018799.000122.004028.000122.008179.000244.012207.000122.006836.000244.013916.000366.020752.000122.003174.000122.006714.000244.01001.000244.009521.000366.019409.00061.028931v.001831c.000244.010254.000488.02063.000732.030762.000122.003418.000244.00708.000244.010498.000244.006836.000366.013184.000488.02002.000122.004517.000244.008911.000366.013306.000122.005493.000366.012207.000488.017578.000122.004517.000244.008789.000366.013184.000122.005493.000366.012329.000488.017822.000122.004395.000244.009155.000366.013672.000122.006104.000366.011108.000488.017212.000122.004395.000244.008911.000366.013306.000244.006104.000366.012085.00061.018188.000122.004272.000244.008667.000366.012817.000244.008057.000488.015381.000854.02356,0,.002197.000122.004517.000122.006714.000366.010132.000732.019897.001099.030029l.000366.011719c.000244.006104.000488.013184.000732.019287.000122.004272.000244.008667.000488.012939.000122.005493.000366.011841.00061.017334.000122.004761.000366.009521.000488.014282.000244.005371.000488.011108.000732.016479.000122.004883.000366.009521.000488.014404.000244.005493.000488.01062.000732.015991.000122.004883.000366.009766.000488.014648.000366.006104.000488.011108.000732.017212.000244.004395.000366.008789.00061.013184.000366.007446.00061.013062.000854.020508.000122.003296.000366.006714.000488.01001.000488.010132.000854.019531.001343.029663.000122.004272.000366.008667.00061.012939.000244.006104.000488.011353.000732.017456.000244.005005.000488.009888.000732.015015.000244.005371.000488.009766.000732.015137s.000488.010254.000854.015625c.000244.004761.000488.01001.000732.014648.000244.005371.000488.010986.000732.016235.000244.004761.000488.009155.000732.013916.000366.005371.00061.011108.000854.016357.000244.004761.000488.009399.000732.01416.000366.005493.00061.010864.000977.016357.000244.004639.000488.010376.000732.015137.000366.005005.00061.009766.000854.014893.000488.009399.001099.019043.001587.028442.000366.005859.000732.011475.000977.017212.000244.004761.000488.008423.000732.013184.000366.005371.000732.01123.001099.016724.000244.004639.000488.008911.000732.01355.000366.005493.000732.011108.000977.016479.000366.004761.00061.009033.000854.013794.000366.005615.000732.011353.001099.016968.000244.004028.000488.008667.000732.012695.000366.005737.000732.011719.001099.017456.000244.004028.00061.008667.000854.012695.000366.005859.000732.011719.001099.017456.000244.004028.00061.008423.000854.012451.001465.021606.00293.043335.004395.064941.000244.004028.000366.00647.000732.010498.000366.006348.000854.012695.001343.019043.000244.004028.000488.006958.000732.010986.000488.006226.000854.012085.001343.018188.000244.003418.00061.008667.000854.011963.000366.006226.000854.012329.001343.018433.000244.003418.000488.007568.000732.010986.000488.006226.000977.012817.001465.019043.000244.003418.000488.006592.000732.009888.000488.006836.000977.013428.001587.020264.000122.001953.000366.005371.000488.007446.001831.023804.003784.047852.005615.071533.000244.002686.000488.005005.00061.00769.00061.006714.001099.013306.001709.02002.000122.002686.000488.006958.000732.009644.000488.00647.001099.013062.001587.019531.000366.003296.00061.00708.000977.010498.000488.00647.000977.012695.001587.019165.000244.003418.000488.006836.000854.010132.000488.006592.001099.013184.001709.019775.000244.002686.000488.00647.000732.009155.00061.006836.001221.014038.001831.020874.000122.001343.000366.003784.000488.005127.002319.026367.004639.052856.00708.079224l.000122.000977c.00061.007812.001343.015747.002075.02356.000244.002075.000366.003906.00061.005981.00061.007202.001343.014771.002075.022095.000244.002686.000366.004517.000732.007202.00061.007568.001343.015015.002075.022583.000244.002075.000366.003906.00061.005859.000732.00769.001465.015381.002197.023193.000244.001953.000366.003296.000488.005249.005371.054199.010864.108398.016479.162476.000244.001343.000244.001953.000366.003296.000977.008545.001831.016968.002686.025391.000122.00061.000244.002075.000366.002686.000854.008789.001831.017578.002808.026245.000122.000732,0,.000122.000122.000854.005981.055542.012207.110962.018677.166504.000122.00061,0,.000122.000122.000732.001099.009033.002197.018188.003174.027222.000122.00061,0,.000122.000122.000854.187988,1.588623.559448,3.121094,1.092773,4.575439l18.38855-6.742676c.035889.099243.10022.220337.214478.309937l.427856-.545532.002686-.000977.013794.022217-12.708374,15.782837c1.77063,1.425781,3.7854,2.559937,5.97229,3.3302l.000244.000122c.048828.017212.097168.033936.14624.050781.000488.000244.000366.000122.000977.000366.009766.003418.018677.00647.028442.009766l.00061.000244c.049072.016724.09729.032959.146484.049438.000488.000122.000977.000244.001587.000488.009155.003052.018066.005981.027344.009033.000732.000366.001465.000488.002197.000854.038818.012817.078247.025757.117188.03833.000244.000122.000366.000122.00061.000244.009277.003052.018921.006104.028198.009155.000977.000366.001465.000488.002441.000732.008667.002808.017822.005737.026489.008545.000977.000366.002075.000732.003052.000977.009277.003052.018555.005981.027832.008911l.000732.000244c.029663.009521.059082.018799.088867.028198h.000122c.009399.00293.019287.006104.028564.009033.000854.000244.001831.000488.002686.000732.008667.002808.017212.005493.026001.008179.001221.000366.002808.000854.00415.001343.008667.002686.0177.005493.026367.008179.00061.000122.001587.000366.002075.00061.029785.009155.058594.018066.088501.0271.000488.000244.000854.000244.001343.000488.008667.002563.018799.005615.027588.008301.000977.000366.002319.000732.003418.001099.008667.002563.016724.005005.025391.007568.001587.000488.002808.000854.004517.001343.008667.002686.016724.005127.025513.00769.001343.000366.002075.00061.003418.001099.009399.002686.019043.005615.028442.008423l.000366.000122c.019897.005981.039673.011719.059692.0177.000244,0,.000488.000122.000732.000122.009399.002808.018311.005493.02771.008179.001587.000488.00293.000854.004517.001343.007568.002197.016724.004883.02417.00708.001831.000488.004028.001099.005859.001709.008179.002319.016357.004639.024536.00708.001343.000366.002563.000732.003906.001099.009399.002686.019043.005493.028442.008179.000244.000122.000122,0,.000366.000122.02002.005737.039551.011353.05957.01709.00061.000122.001587.000366.002075.000488.008789.002563.018066.005127.026855.00769.001343.000366.003296.000854.004761.001221.007446.002197.016357.004639.023926.006836.002075.00061.00415.001099.006226.001709.007568.002075.016357.004639.023926.006714.001587.000366.003174.000854.004883.001343.008789.002441.018433.005127.027222.007568l.001465.000366c.020142.005615.039795.011108.059937.016602l.000488.000122c.009399.002563.018677.005127.028198.00769.001587.000366.003174.000854.004761.001343.007568.001953.016479.004395.024048.00647.001831.000488.004517.001221.006348.001709.007568.002075.015991.004272.023438.006348.001953.000488.003662.000977.005615.001465.008789.002441.017334.004639.026123.00708.000854.000244.001831.000488.002563.00061.020264.005493.039795.01062.059937.015991q.000244,0,.000488.000122c.009521.002441.019287.005005.028687.007568.001343.000366.002441.00061.003784.000977.008911.002319.016235.00415.025024.00647.002197.00061.003784.000977.005981.001587.007568.001953.015991.00415.02356.006104.001953.000488.00415.001099.005981.001587.008301.002075.015625.004028.023926.006104.001831.000488.00354.000977.005493.001465.019653.005005.039673.010132.059326.015137l.00061.000244c.009521.002319.018433.004639.027954.006958.001831.000488.004395.001221.006348.001709.007568.001831.014893.003662.022461.005615l.007812.001953c.00769.001953.014526.003662.022095.005493l.006836.001709c.008301.002075.015381.003784.02356.005859l.005859.001465c.019653.004883.039307.009644.05896.014526.00061.000122.001709.000366.002197.000488.008911.002197.018188.004395.0271.006592.001953.000488.003784.000854.005737.001343.007568.001831.015381.003784.023071.005615.002686.00061.005127.001221.007812.001831.00769.001831.01416.003418.021851.005249.002441.00061.005127.001221.007568.001831.007568.001831.015015.00354.022705.005371.002075.00061.004272.001099.00647.001587.009521.002319.018433.004395.028076.006592.000488.000122.000244.000122.000854.000244.010132.002441.02002.004761.030273.00708.000732.000244.000977.000244.001831.000488.008911.002075.018188.004272.0271.006348.002197.000488.004517.000977.006714.001465.00769.001831.014648.003418.022339.005249.002808.00061.005737.001343.008545.001953.00708.001587.013916.003174.020996.004761.002686.000732.005615.001343.008301.001953.00708.001587.014893.003418.021973.005005.002441.00061.004883.001099.007324.001709.008911.002075.018433.00415.027466.006226.000488.000122.000732.000122.001221.000244.010254.002319.020264.004639.030396.006836.000366.000122.00061.000122.000854.000244.009644.002075.018799.00415.028442.006348.002197.000488.003906.000854.006104.001343.00769.001709.015625.003418.023315.005127.002441.00061.004761.001099.007202.001587.00769.001709.014771.003296.022461.005005.002441.000488.005127.001099.00769.001709.00708.001465.014893.003174.021973.004761.002441.000488.005127.001099.00769.001709.008301.001831.016968.003662.025391.005493.001099.000244.002563.000488.003662.000732.019897.004395.039185.008423.059082.012695.002808.00061.004883.001099.00769.001709.00708.001465.014282.00293.021362.004517.003296.00061.006226.001343.009644.001953.006348.001343.01355.00293.02002.004272.003052.00061.006226.001221.009277.001953.00708.001465.013916.00293.020996.004395.002808.000488.005615.001099.008423.001709.008301.001709.015015.003174.023438.004883.001953.000366.003906.000732.005737.001221.009766.001953.019897.004028.029663.005981.000732.000244.001587.000366.002441.00061l.0271.005493c.002563.000488.004639.000854.00708.001465.00708.001343.014893.00293.021973.004395.003052.00061.006226.001221.009277.001831.00708.001465.013428.002686.02063.00415l.009155.001831c.00708.001465.013672.002686.020752.00415.002808.000488.005981.001221.008789.001709.00769.001587.015869.003174.023682.004639.001587.000366.003784.000854.005493.001099.019287.003784.040161.007935.05957.011597.002197.000488.00415.000854.006348.001221.007202.001465.015625.003052.022827.004395.003052.00061.006226.001221.009277.001831.00708.001343.013184.002563.020264.003906.003418.00061.006226.001099.009521.001709.00708.001343.01355.002686.020752.004028.002808.000488.005981.001099.008789.001587.007812.001465.016235.003052.024048.004517.001587.000366.003418.00061.005005.000977.019531.003662.040527.007568.060059.011108.001953.000366.004272.000732.006226.001099.007202.001343.015625.00293.022705.00415.003418.00061.006348.001221.009644.001831.007202.001221.013184.002319.020264.003662.003418.00061.006592.001099.01001.001709.00647.001221.012939.002319.019409.00354.003296.00061.006958.001221.010376.001831.007202.001343.014404.002563.021484.003784.002563.000488.005127.000977.00769.001343.019531.00354.040161.007202.059692.010498.001953.000366.00354.00061.005493.000977.007812.001343.015991.002808.023804.00415.003052.000488.006226.001099.009277.001587.007202.001221.013306.002319.020386.00354.003174.000488.006592.001099.009644.001587.00647.001099.014038.002441.020508.00354.003418.000488.006226.000977.009644.001587.007202.001221.014282.002441.021484.00354.002808.000488.005127.000854.007935.001343.009155.001587.019043.003174.028198.004761.000488.000122.000854.000122.001465.000244.010376.001709.019775.003296.030273.005005.001709.000244.003418.000488.005127.000854.007812.001221.016235.002563.024048.003906.003052.000488.006592.000977.009644.001587.007202.001099.012695.001953.019897.003174.003662.00061.007202.001099.010864.001709.006592.001099.012329.001953.018921.003052.003662.00061.00708.001099.010742.001709.007202.001099.013916.002197.021118.003296.002808.000488.005371.000854.008301.001343.008423.001343.017578.002808.026123.00415.001099.000122.002441.000366.00354.000488.010498.001709.019531.003052.030029.004761.001953.000244.004028.00061.005981.000854.007202.001099.016235.002441.023438.003662.003418.000488.006958.000977.010376.001465.005859.000977.013306.002075.019165.00293.003662.00061.007446.001221.011108.001709.006592.000977.012573.001953.019165.00293.003418.000488.007324.001099.010742.001587.007202.001099.013184.001953.020386.003052.002808.000366.006226.000854.009033.001343.007935.001099.016113.002319.023926.00354.002075.000244.00415.000488.006104.000854.010498.001465.019409.002808.029907.004395l.005127.000732c.008545.001221.015869.002197.024414.003418.003174.000488.006104.000977.009277.001343.007202.001099.013794.001953.020996.003052.003174.000366.006592.000854.009644.001343.006592.000977.013306.001831.019897.002808.003662.000488.007202.000977.010864.001465.007202.001099.012817.001831.02002.002808.003052.000488.006592.000977.009644.001343.008545.001221.015991.002197.024536.003418.001709.000244.003296.000366.005005.00061.01062.001465.019775.002686.030396.00415.001343.000244.003174.000488.004517.00061.008667.001221.016602.002197.025146.003418.003052.000366.006226.000854.009399.001221.007202.000977.013428.001831.02063.002808.003418.000366.00647.000854.009888.001221.006592.000854.013916.001831.020508.002686.003174.000488.006836.000977.01001.001343.007202.000977.01355.001709.020752.002686.003174.000366.006226.000732.009277.001221.007935.000977.014404.001831.022339.002808.002563.000366.005371.000732.007935.000977.009888.001343.019897.002563.029785.003784.001709.000244.003174.000366.004883.00061.008545.001099.016113.002075.024658.003052.003418.000488.007324.000977.010742.001343.006592.000854.012573.001587.019165.002441.004028.000488.00769.000854.011719.001343.005859.000732.012329.001587.018311.002319.004028.000488.00769.000854.011597.001343.005981.000732.01355.001587.019531.002319.003662.000488.006714.000854.010498.001221.007202.000977.014282.001709.021606.002563.002808.000366.005371.000732.008301.000977.009888.001221.02002.002441.029907.00354.001221.000122.002441.000244.00354.000366.008667.001099.017578.002075.026245.003052.003418.000366.006714.000732.010132.001221.006714.000732.013184.001465.019775.002197.003784.000366.007568.000854.011353.001221.006592.000854.012329.001465.019043.002197.003662.000366.007446.000854.011108.001221.006714.000732.013184.001465.019897.002197.003418.000366.006714.000732.010132.001099.006592.000732.014771.001587.021362.002319.003174.000366.005859.00061.009033.000977.01001.001099.019897.002197.029785.003174.001221.000122.001709.000244.00293.000366.009277.000977.017578.001831.026855.002808.00354.000366.006958.000732.010376.001099.006714.000732.012939.001343.019531.002075.004028.000366.008301.000854.012329.001221.005981.00061.011353.001221.017456.00177.004272.000427.008545.000916.012817.001343.005981.00061.012329.001221.018311.001831.003784.000366.00769.000793.011475.00116.006592.000671.01416.001404.020752.002075.00293.000244.006226.000549.009033.000854.01001.000977.020264.002014.030273.00293h0c.01001.000977.019653.001953.029663.002869.003418.000366.007324.000671.010742.001038.006592.00061.012817.001221.019409.001831.003784.000366.007812.000732.011475.001038.005981.00061.012939.001221.018921.00177.004028.000366.007812.000732.011841.001099.006592.00061.012573.00116.019165.00177.003784.000305.006958.00061.01062.000916.006714.00061.014404.001343.021118.001892.003174.000305.006226.00061.009399.000854.02002.00177.040161.00354.060303.005249.002808.000244.005737.000488.008667.000732.007324.000671.014282.001221.021606.001831.003418.000305.007202.00061.01062.000916.006104.000488.013428.001099.019409.001648.003784.000305.007935.00061.011719.000916.006592.000549.012573.001038.019287.001587.00354.000305.007568.00061.010986.000916.006714.000549.013428.001038.020142.001587.003418.000305.006958.000549.010376.000854.008667.000671.017578.001343.026245.002014.001465.000122.002319.000183.003784.000305.01001.000793.02002.001587.030151.002319.003174.000244.006104.000488.009277.000732.006714.000488.01416.001038.020874.001526.003784.000305.007568.00061.01123.000854.006104.000427.013306.000977.019287.001404.003784.000305.007812.00061.011597.000854.006714.000488.012573.000916.019287.001404.003784.000244.007324.000549.011108.000793.006714.000488.013916.000977.02063.001465.003174.000244.006592.000488.009766.000671.009399.000671.019043.001343.028442.001953.000488.000061.000977.000061.001465.000122.010132.000671.020874.001404.030884.002075.002563.000183.004517.000305.007202.000488.007324.000488.015869.001038.023315.001526.003418.000244.006714.000427.010132.000671.006104.000366.013916.000854.019897.001282.004028.000244.00769.000488.011719.000732.006714.000427.012329.000732.019043.00116.003784.000244.007812.000488.011597.000732.006714.000427.013428.000793.020142.001221.00354.000244.006592.000427.010132.00061.008667.000549.015991.000977.024658.001465.002075.000122.003784.000244.005737.000366.010132.000549.020264.00116.030396.00177.002686.000122.005127.000244.007812.000427.007324.000427.015259.000854.022705.001282.003418.000183.006836.000366.010376.000549.006714.000366.013306.000732.02002.001099.003784.000183.008057.000427.011841.00061.005981.000366.012329.000671.018433.000977.004028.000244.008423.000488.012451.000671.006104.000305.012695.000671.018799.000977.003784.000183.007812.000427.011597.00061.007446.000366.016357.000793.023804.00116.002075.000122.00415.000244.006226.000305.010132.000488.020386.001038.030518.001465.002319.000122.004883.000244.007202.000366.008057.000366.015259.000732.023438.001099.003418.000122.006958.000305.010498.000488.006714.000305.013184.00061.02002.000854.003418.000183.00769.000366.01123.000549.006714.000244.013428.000549.020142.000854.00354.000183.00708.000305.01062.000427.006714.000305.013672.00061.020386.000916.00354.000122.00708.000244.010498.000427.007446.000305.016113.00061.02356.000916.002319.000122.004639.000183.006958.000305.010132.000366.020386.000793.030518.00116.002319.000122.004883.000183.007202.000305.008179.000305.015137.000549.023315.000854.00354.000122.007202.000244.010742.000366.006836.000244.013184.000488.02002.000732.003784.000122.00769.000244.011475.000366.006714.000244.012939.000488.019775.000671.003418.000122.007324.000244.010864.000366.006714.000244.01355.000488.020386.000671.00354.000122.007324.000244.010742.000366.007446.000244.015381.000488.022827.000671.002563.000122.005005.000183.007568.000244.010254.000305.020386.00061.03064.000916.001953.000061.004028.000122.006104.000183.008179.000183.016724.000427.024902.000671.003174.000061.006592.000183.009766.000244.006836.000183.01355.000366.020386.000549.003784.000122.008301.000183.012085.000305.006104.000122.012939.000305.019043.000488.00415.000061.00769.000183.011841.000244.006104.000183.013672.000305.019775.000488.00354.000061.007202.000122.01062.000244.007568.000122.015503.000305.023071.000488.002563.000061.005127.000061.007812.000122.010254.000244.02063.000427.030884.00061.000854.000061.002319.000061.003174.000061.009521.000183.018066.000366.027588.000549.00293,0,.006348.000061.009277.000122.007446.000122.013916.000244.021362.000366l.011353.000183c.006836.000122.012695.000183.019409.000305.003906.000061.008057.000122.011841.000122.006104.000122.013306.000183.019531.000305.004028.000061.007446.000061.011475.000122.007568.000122.014526.000183.021973.000244.002686.000061.005737.000122.008423.000122.010254.000122.020508.000244.030762.000305.001465,0,.002563.000061.004028.000061.008911.000061.018066.000122.026855.000244.00354,0,.006714,0,.010254.000061.006836.000061.013428.000122.020264.000122.00415.000061.007935.000061.012085.000061.006104.000061.012939.000122.019043.000122.00415.000061.008179.000061.012207.000061.006226.000061.013062.000061.019165.000061.003784.000061.007812.000061.011597.000061.006836,0,.014038.000061.020874.000061h.010132c.010254,0,.020386.000061.03064.000061h0v-19.574768c.080444,0,.225464-.027954.357544-.100342l10.331299,16.634155c3.963623-2.461914,7.016357-6.251953,8.535522-10.748535l-18.555298-6.269531c.031982-.093018.043457-.178711.043457-.228394,0-.039551-.007202-.100708-.025635-.170044l19.132202-4.18335c-.071777-.328613-.151611-.653931-.239136-.97644-.000366-.001221-.000488-.001831-.000854-.003174-.002075-.007812-.004272-.015625-.006348-.023438-.00061-.001831-.000732-.002441-.001221-.004272-.002197-.007935-.00415-.015015-.006226-.022827-.000366-.001221-.001099-.003906-.001465-.005127-.002075-.007568-.00415-.015259-.006226-.022705-.000366-.001343-.000732-.002563-.001099-.003906-.002197-.008057-.004395-.015869-.006592-.023926-.000244-.00061-.000122-.000244-.000244-.000854-.009521-.034424-.019165-.068726-.028931-.103027-.000488-.001831-.000732-.002686-.001221-.004517-.002075-.007324-.004028-.01416-.006104-.021362l-.001953-.006836c-.001831-.006348-.003784-.013184-.005615-.019653-.000854-.003052-.001709-.005737-.002563-.008911-.001709-.006104-.00354-.012329-.005371-.018555-.000854-.003052-.001953-.006958-.002808-.01001-.001709-.005859-.003418-.011597-.005127-.017456-.000977-.003784-.002075-.007202-.003174-.010986-.001587-.005859-.003296-.011597-.005005-.017456-.000977-.003174-.001831-.006226-.002808-.009399-.001831-.006348-.00354-.012329-.005371-.018677-.000366-.001221-.001099-.003784-.001465-.005005-.003906-.013062-.007812-.026489-.011719-.039551-.001099-.003784-.001709-.006104-.002808-.009888-.001709-.005615-.003418-.011353-.005127-.016968-.000854-.003052-.002197-.00769-.003174-.010864-.001709-.005493-.003296-.010864-.004883-.016479-.001343-.004272-.002441-.007935-.003662-.012329-.001587-.005005-.003052-.01001-.004517-.015015-.001343-.004395-.002686-.009033-.004028-.013428-.001465-.004639-.00293-.009644-.004395-.014404-.001465-.005005-.00293-.009766-.004395-.014648l-.004028-.01355c-.001587-.005005-.003052-.009766-.004517-.014771-.001343-.004395-.002808-.009033-.00415-.01355-.001709-.005493-.003174-.01062-.004883-.016235-.001221-.003784-.002441-.007935-.003662-.011841-.002441-.008057-.004761-.015625-.007324-.023682-.000366-.001465-.000854-.00293-.001343-.004395-.002808-.009277-.005737-.018799-.008667-.028076-.000854-.003052-.001953-.00647-.00293-.009521-.001831-.006226-.003784-.012329-.005737-.018555-.001221-.003906-.002441-.007812-.003662-.011597-.001709-.005615-.00354-.011597-.005249-.017212-.001099-.003296-.002319-.007202-.003418-.01062-.001953-.006104-.003784-.011963-.005615-.018188-.001221-.00354-.002197-.006958-.003418-.010498-.001953-.006226-.003662-.011841-.005615-.018066-.001099-.00354-.002197-.006958-.003296-.010498-.001953-.006226-.003906-.012085-.005859-.018311-.000977-.003296-.002197-.006836-.003174-.010132-.002441-.007446-.004761-.015015-.007202-.022461-.000488-.001709-.001099-.003418-.001587-.005005-.006348-.019775-.012329-.038574-.018799-.05835,0-.000366-.000122-.000732-.000244-.000977-.003052-.009277-.005859-.018066-.008911-.027344-.00061-.001831-.001221-.003784-.001831-.005737-.002563-.008057-.004883-.015137-.007568-.023193-.000732-.002197-.001221-.003906-.001953-.006104-.002441-.007446-.004883-.015015-.007324-.022461-.000732-.002197-.001587-.004517-.002197-.006714-.002441-.007446-.005005-.015137-.007446-.022583-.00061-.001831-.001343-.00415-.002075-.006104-.002563-.007935-.005005-.015503-.00769-.023438-.00061-.001709-.001099-.003296-.001709-.005005-.002808-.008545-.006104-.018311-.008911-.026978-.000244-.000488-.000244-.000732-.000488-.001343-.009766-.029419-.019531-.05835-.029419-.087769-.000244-.00061-.000366-.000977-.00061-.001465-.002808-.008667-.006226-.018555-.009155-.027222-.000366-.000977-.000732-.002197-.001099-.003296-.00293-.008667-.005737-.016846-.008667-.025391-.000488-.001465-.000977-.002686-.001465-.004028-.00293-.008667-.005615-.016724-.008545-.025269-.000366-.001099-.000854-.002319-.001221-.003418-.00293-.008667-.006104-.017944-.009155-.026489-.000244-.000732-.000488-.001343-.000732-.002197-.020264-.058716-.040527-.116455-.061279-.175049l-.000244-.000366c-.624268-1.755249-1.483032-3.398315-2.539307-4.893188-.000122-.000122-.00061-.000854-.000732-.001099-.005859-.008301-.011108-.015747-.016968-.024048l-.000488-.000488c-.029297-.041504-.058472-.082275-.088135-.123535-.000366-.000366-.000732-.000854-.001099-.001343-.005127-.007202-.011108-.015381-.016235-.022583-.000488-.000732-.001465-.001953-.001953-.002686-.005249-.007202-.010498-.014648-.015747-.021851-.000732-.000854-.001221-.001709-.001953-.002563-.005249-.007202-.011108-.015381-.016357-.022583-.000366-.000488-.00061-.000854-.000977-.001343-.005981-.008301-.011108-.015259-.01709-.023438-.000122-.000244-.000488-.000732-.000732-.000977-.02356-.032349-.047363-.064819-.071167-.097046-.000854-.001099-.001709-.002319-.002563-.003418-.004883-.006592-.010254-.013916-.015137-.020508-.001099-.001465-.001831-.002563-.00293-.003906-.005249-.00708-.009521-.012817-.014771-.02002-.001221-.001587-.001953-.002563-.003174-.00415-.004883-.006714-.009888-.013306-.014771-.02002-.001099-.001343-.002075-.002686-.003174-.004028-.004883-.006714-.009644-.012939-.014526-.019531-.000977-.001465-.002319-.003174-.003418-.004517-.005615-.00769-.011108-.015015-.016846-.022583-.000366-.000488-.000244-.000244-.000488-.000732-.012207-.016235-.02417-.032104-.036499-.04834-.000244-.000488-.00061-.000854-.000977-.001343-.005371-.00708-.011108-.014771-.016479-.021851-.001343-.001831-.002441-.003174-.003784-.005005-.005005-.006592-.009033-.011841-.014038-.018433-.001343-.001831-.002808-.003662-.00415-.005493-.004639-.006104-.009155-.012085-.013794-.018066-.001343-.001831-.003052-.00415-.004395-.005859-.004639-.006104-.008911-.011597-.01355-.0177-.001343-.001709-.003052-.004028-.004517-.005859-.00415-.005615-.009033-.011963-.013306-.017456-.001709-.002319-.003052-.004028-.004761-.006226-.005005-.006592-.010254-.013306-.015259-.019897-.000854-.001099-.001465-.001831-.002319-.00293-.012329-.016113-.023926-.031128-.036377-.047241-.000977-.001343-.002197-.002686-.003174-.004028-.005005-.006592-.009277-.012085-.014404-.018555-.001709-.002319-.003906-.005127-.005615-.007324-.004272-.005493-.008179-.01062-.012573-.016113-.001831-.002441-.003906-.005005-.005737-.007446l-.011719-.015015c-.002319-.00293-.004639-.005859-.006836-.008789-.00354-.004517-.007568-.009644-.011108-.01416-.002441-.003052-.004639-.005981-.00708-.009033l-.01062-.01355c-.002563-.003296-.004883-.006104-.007446-.009521-.003906-.005005-.007446-.009399-.011475-.014404-.002197-.00293-.00415-.005371-.006348-.008179-.005127-.00647-.009644-.012207-.014771-.018677-.001099-.001343-.002075-.002686-.003174-.004028-.005859-.007446-.011841-.015015-.0177-.022461-.002197-.002686-.00415-.005249-.006348-.007812-.00354-.004517-.008179-.010376-.011719-.014893-.002441-.003052-.005127-.006348-.007568-.009521-.003174-.003906-.00708-.008911-.010254-.012817-.002808-.00354-.005615-.006958-.008423-.010498s-.006592-.008301-.009399-.011841c-.003052-.003662-.006226-.00769-.009155-.011353-.002808-.00354-.005737-.007202-.008545-.010742-.003174-.003906-.006348-.007812-.009521-.011841-.002808-.003418-.005615-.006958-.008423-.010376-.003296-.004272-.00647-.008057-.009888-.012329-.002319-.00293-.005371-.006714-.007812-.009644-.00354-.004395-.006592-.008179-.010132-.012573-.002319-.00293-.004761-.005859-.00708-.008911-.008057-.009888-.015869-.019409-.023804-.029297-.001221-.001465-.00293-.003662-.00415-.005127-.003906-.004761-.00769-.009399-.011597-.01416-.001953-.002441-.00415-.005127-.006226-.007568-.003906-.004883-.007446-.009277-.011353-.014038-.002441-.00293-.004395-.005371-.006836-.008301-.003906-.004883-.007446-.009155-.011353-.013916-.002441-.00293-.003906-.004883-.006348-.007812-.003906-.004761-.00769-.009399-.011597-.01416-.002441-.00293-.004028-.004883-.00647-.007812-.003906-.004761-.008057-.009888-.012085-.014648-.001953-.002441-.003052-.003784-.005127-.006226-.004272-.005249-.008667-.010498-.012939-.015747-.001709-.001953-.00293-.00354-.004517-.005493-.004517-.005493-.008911-.010742-.013428-.016235-.001221-.001465-.001953-.002319-.003174-.003784-.015869-.019165-.031738-.03833-.047729-.057373-.000366-.000488-.001343-.001587-.001709-.002075-.004761-.005615-.009155-.010986-.013916-.016602-.001221-.001465-.003174-.003784-.004395-.005249-.004395-.005249-.008667-.010254-.012939-.015503-.001709-.001953-.003662-.004272-.005249-.006226-.004517-.005371-.008911-.010498-.013428-.015991-.001587-.001831-.002563-.003052-.00415-.004883-.004517-.005493-.009521-.01123-.014038-.016602l-.003662-.004395c-.004883-.005859-.009766-.011597-.014771-.017456-.000732-.000977-.001343-.001587-.002075-.002563-.005371-.006226-.01062-.012451-.015869-.018677l-.000366-.000366c-.023193-.027344-.046021-.054199-.069458-.081421q-.000366-.000488-.000854-.000977c-.005493-.00647-.010986-.012817-.016479-.019287-.000366-.000488-.000977-.001099-.001465-.001587-.005249-.006226-.01062-.012329-.015869-.018555-.000854-.000977-.001587-.001831-.002441-.002808-.005371-.006226-.01062-.012207-.015991-.018433-.000366-.000488-.001099-.001343-.001465-.001831-.005615-.006348-.011108-.012817-.016724-.019165l-.00061-.000732c-.04126-.047607-.082764-.094971-.12439-.142212-.000488-.000488.000244.000366-.000122-.000122-.005981-.006714-.011841-.013306-.017822-.020142l-.000244-.000244c-.814697-.919678-1.711426-1.764648-2.678955-2.523804l-12.084106,15.402466c-.101685-.072754-.221558-.113892-.317261-.132446L23.765869,1.149902c-.500977-.061035-1.007446-.10376-1.518921-.127563-.000732,0-.001221-.000122-.001831-.000122-.018433-.000854-.036865-.001709-.055298-.002441-.002075-.000122-.004395-.000244-.00647-.000366-.009766-.000366-.019653-.000854-.029419-.001221-.001953-.000122-.005737-.000244-.00769-.000366-.005737-.000244-.011475-.000366-.01709-.00061-.001343-.000122-.003174-.000122-.004517-.000244-.010376-.000366-.020752-.000854-.031006-.001221-.003418-.000122-.006226-.000244-.009521-.000366-.008179-.000366-.016357-.00061-.024536-.000977-.004028-.000122-.007935-.000244-.011963-.000366-.004883-.000244-.009766-.000366-.014526-.00061-.006836-.000244-.014526-.000488-.021362-.000732-.004395-.000122-.008789-.000244-.013184-.000488-.005493-.000122-.010742-.000366-.016235-.000488-.005127-.000244-.010376-.000366-.015625-.000488-.006104-.000244-.012329-.000488-.018433-.00061-.003906-.000122-.007812-.000244-.011841-.000366-.008179-.000244-.015747-.000488-.023804-.000732-.003418-.000122-.006714-.000244-.010132-.000366-.006714-.000244-.012573-.000366-.019409-.00061-.00415-.000122-.008301-.000244-.012451-.000244-.006836-.000244-.01416-.000488-.020874-.00061-.003418-.000122-.006836-.000244-.010254-.000244-.008057-.000244-.016479-.000488-.024658-.000732-.003174,0-.00647-.000122-.009766-.000244-.007446-.000122-.014282-.000366-.021851-.000488-.002563-.000122-.005249-.000122-.007812-.000244-.008179-.000122-.016724-.000366-.024902-.000488-.002686-.000122-.005493-.000122-.008179-.000244-.008911-.000122-.017578-.000366-.026367-.000488-.002441-.000122-.004883-.000122-.007324-.000244-.008789-.000122-.016235-.000244-.025146-.000488h-.004517c-.008789-.000244-.018188-.000366-.0271-.00061-.002319,0-.004639,0-.006958-.000122-.009521-.000122-.017578-.000244-.0271-.000366-.002319-.000122-.004517-.000122-.006714-.000122-.008911-.000122-.0177-.000244-.026489-.000366-.001099,0-.002197-.000122-.003296-.000122-.008911-.000122-.018555-.000244-.027466-.000366-.002441,0-.004761,0-.00708-.000122-.009644-.000122-.018066-.000122-.027588-.000244-.001953,0-.003906-.000122-.005737-.000122-.009644-.000122-.018799-.000122-.02832-.000244h-.001099c-.009521-.000122-.019775-.000244-.029297-.000244-.001831,0-.00354-.000122-.005371-.000122-.009521,0-.018677-.000122-.028198-.000122-.002075,0-.00415,0-.006226-.000122-.008911,0-.019043-.000122-.027832-.000122h-.001831c-.009644,0-.019409-.000122-.028931-.000122h-.005493c-.009521,0-.018677,0-.028198-.000122h-.035156v19.574707h0v.690308h0V1h0ZM21.256592,21.27417l-.104492-.168213.133423.161499-.000366.000488.00061-.000122.001709.001953v-.002319h0v.002319h0v.015503l-.003052.001099.003052.001099v.002197l-.006348-.002075.003296-.001221-.010742-.003784.011475-.014648-.028564.006226h0ZM21.326416,21.258911l.081055-.0177-.093018.034058.000244-.001831.011719-.014526h0ZM21.311768,21.297852l.000244-.001831.132935.046875-.133179-.045044h0Z"/><path class="cls-3" d="M21.287354,1c11.204468,0,20.287476,9.083008,20.287476,20.287354,0,11.204468-9.083008,20.287415-20.287476,20.287415-11.204346,0-20.287354-9.082947-20.287354-20.287415C1,10.083008,10.083008,1,21.287354,1M21.287354,0C9.549438,0,0,9.549438,0,21.287354s9.549438,21.287415,21.287354,21.287415,21.287476-9.5495,21.287476-21.287415S33.025269,0,21.287354,0h0Z"/></svg>