<?xml version="1.0" encoding="UTF-8"?><svg id="Ebene_1" xmlns="http://www.w3.org/2000/svg" width="42.574829" height="42.574707" viewBox="0 0 42.574829 42.574707"><defs><style>.cls-1{fill:#043854;}.cls-1,.cls-2,.cls-3{stroke-width:0px;}.cls-2{fill:#32a98d;}.cls-3{fill:#fff;}</style></defs><path class="cls-2" d="M21.286987,42.074585C9.825073,42.074585.499878,32.74939.499878,21.287476.499878,9.825073,9.825073.499878,21.286987.499878c11.462891,0,20.788086,9.325195,20.788086,20.787598,0,11.461914-9.325195,20.787109-20.788086,20.787109Z"/><path class="cls-3" d="M21.287354,1c11.204468,0,20.287476,9.083008,20.287476,20.287354s-9.083008,20.287354-20.287476,20.287354c-11.204346,0-20.287354-9.083008-20.287354-20.287354S10.083008,1,21.287354,1M21.287354,0C9.549438,0,0,9.549438,0,21.287354s9.549438,21.287354,21.287354,21.287354,21.287476-9.549438,21.287476-21.287354S33.025269,0,21.287354,0h0Z"/><polygon class="cls-1" points="18.237638 40.123176 17.369862 25.113265 2.35995 24.245491 34.930716 7.5524 18.237638 40.123176"/></svg>