<?xml version="1.0" encoding="UTF-8"?><svg xmlns="http://www.w3.org/2000/svg" width="42.574829" height="42.574707" viewBox="0 0 42.574829 42.574707"><defs><style>.cls-1{fill:#043854;}.cls-1,.cls-2,.cls-3{stroke-width:0px;}.cls-2{fill:#32a98d;}.cls-3{fill:#fff;}</style></defs><g id="Ebene_1"><path class="cls-2" d="M21.286987,42.074646C9.825073,42.074646.499878,32.749451.499878,21.287537.499878,9.825134,9.825073.499939,21.286987.499939c11.462891,0,20.788086,9.325195,20.788086,20.787598,0,11.461914-9.325195,20.787109-20.788086,20.787109Z"/><path class="cls-3" d="M21.287354,1c11.204468,0,20.287476,9.082947,20.287476,20.287354s-9.083008,20.287354-20.287476,20.287354c-11.204346,0-20.287354-9.082947-20.287354-20.287354S10.083008,1,21.287354,1M21.287354,0C9.549438,0,0,9.5495,0,21.287354s9.549438,21.287354,21.287354,21.287354,21.287476-9.5495,21.287476-21.287354S33.025269,0,21.287354,0h0Z"/></g><g id="Ebene_3"><polygon class="cls-1" points="21.080228 14.50048 29.792697 3.195727 26.38642 17.055808 40.656968 16.819092 27.696941 22.797577 36.779554 33.807151 24.024942 27.402118 21.080228 41.367548 18.135513 27.402118 5.380901 33.807151 14.463514 22.797577 1.503487 16.819092 15.774035 17.055808 12.367758 3.195727 21.080228 14.50048"/></g></svg>