<?xml version="1.0" encoding="UTF-8"?><svg id="Ebene_1" xmlns="http://www.w3.org/2000/svg" width="42.574829" height="42.574768" viewBox="0 0 42.574829 42.574768"><defs><style>.cls-1{fill:#043854;}.cls-1,.cls-2,.cls-3{stroke-width:0px;}.cls-2{fill:#32a98d;}.cls-3{fill:#fff;}</style></defs><path class="cls-2" d="M21.286987,42.074585C9.825073,42.074585.499878,32.74939.499878,21.287476.499878,9.825073,9.825073.499878,21.286987.499878c11.462891,0,20.788086,9.325195,20.788086,20.787598,0,11.461914-9.325195,20.787109-20.788086,20.787109Z"/><path class="cls-3" d="M21.287354,1c11.204468,0,20.287476,9.083008,20.287476,20.287415s-9.083008,20.287354-20.287476,20.287354c-11.204346,0-20.287354-9.082947-20.287354-20.287354S10.083008,1,21.287354,1M21.287354,0C9.549438,0,0,9.5495,0,21.287415c0,11.737854,9.549438,21.287354,21.287354,21.287354s21.287476-9.5495,21.287476-21.287354C42.574829,9.5495,33.025269,0,21.287354,0h0Z"/><path class="cls-1" d="M24.02499,26.003213c-.811544.448442-1.744739.703682-2.737544.703682-1.068661,0-2.068249-.295719-2.921398-.809791l-6.317845,10.809499c2.707722,1.600134,5.866248,2.518369,9.239243,2.518369,3.297158,0,6.389387-.877422,9.055931-2.41151l-6.318387-10.810249ZM15.618929,21.038379c0-1.956605.991351-3.681685,2.499182-4.70035l-6.131378-10.931312C6.665333,8.579707,3.100852,14.392788,3.100852,21.038379h12.518077ZM24.087237,16.108529c1.713264.975111,2.86865,2.817564,2.86865,4.92985h12.518077c0-6.721417-3.646286-12.591218-9.068693-15.739239l-6.318034,10.809389Z"/><path class="cls-1" d="M21.286987,26.723511c-3.134766,0-5.68457-2.550293-5.68457-5.685059,0-3.135254,2.549805-5.685547,5.68457-5.685547s5.685547,2.550293,5.685547,5.685547c0,3.134766-2.550781,5.685059-5.685547,5.685059Z"/><path class="cls-2" d="M21.287476,17.353088c2.035278,0,3.685303,1.649963,3.685303,3.685303s-1.650024,3.685364-3.685303,3.685364c-2.0354,0-3.685425-1.650024-3.685425-3.685364s1.650024-3.685303,3.685425-3.685303M21.287476,13.353088c-4.237793,0-7.685425,3.447632-7.685425,7.685303,0,4.237732,3.447632,7.685364,7.685425,7.685364,4.237671,0,7.685303-3.447632,7.685303-7.685364,0-4.237671-3.447632-7.685303-7.685303-7.685303h0Z"/></svg>