<?xml version="1.0" encoding="UTF-8"?><svg id="Ebene_1" xmlns="http://www.w3.org/2000/svg" width="42.574707" height="42.574768" viewBox="0 0 42.574707 42.574768"><defs><style>.cls-1{fill:#043854;}.cls-1,.cls-2,.cls-3{stroke-width:0px;}.cls-2{fill:#fff;}.cls-3{fill:#e498b1;}</style></defs><circle class="cls-1" cx="21.494581" cy="21.287393" r="20.287361"/><path class="cls-3" d="M21.494629,1h-.030762c-.003662,0-.00708,0-.01062.000122h-.032593c-.006104,0-.012695.000122-.018921.000122h-.012573c-.006836.000122-.011841.000122-.018677.000122-.004395,0-.008301.000122-.012817.000122-.006104,0-.012451.000122-.018677.000122-.00415,0-.007935,0-.012085.000122-.006836,0-.01355.000122-.020264.000122-.003662,0-.007324.000122-.010864.000122-.020508.000244-.041016.000366-.061401.000732-.003662,0-.006836,0-.010376.000122-.006836,0-.013916.000122-.020752.000244-.003906,0-.007935.000122-.011841.000122-.006104.000122-.012817.000244-.019043.000366-.00415,0-.008301.000122-.012451.000122-.006836.000122-.012085.000244-.018921.000366-.00415.000122-.008179.000122-.012329.000244-.006104.000122-.012451.000244-.018555.000244-.00415.000122-.008301.000244-.012451.000244-.006836.000122-.013794.000366-.020508.000488-.003296,0-.006958.000122-.010254.000122-.010132.000244-.020386.000488-.03064.000732h0c-.010132.000244-.020752.000488-.030884.000732-.003296,0-.006836.000122-.010132.000244-.006836.000122-.013672.000244-.020386.000488-.004517.000122-.008301.000122-.012817.000244-.006104.000244-.012207.000366-.018311.000488l-.012451.000366c-.006836.000244-.011841.000366-.018677.000488-.00415.000122-.008423.000244-.012573.000366-.006104.000244-.012817.000366-.018921.00061-.00415.000122-.007568.000244-.011719.000366-.006836.000122-.013428.000366-.020264.00061-.00354.000122-.007202.000244-.010742.000366-.010254.000244-.019653.00061-.029785.000854l-.00061.000122c-.010132.000244-.02063.00061-.030762.000977-.003296.000122-.006836.000244-.010132.000366-.006714.000244-.013916.000488-.020752.000732-.003784.000122-.008301.000366-.012085.000488-.006104.000244-.012207.000366-.018311.00061-.00415.000244-.008911.000366-.013062.000488l-.018311.000732c-.00415.000244-.008301.000366-.012451.000488-.006104.000244-.012451.000488-.018555.000732-.00415.000244-.008179.000366-.012329.00061-.006714.000244-.013306.000488-.02002.000732-.003662.000244-.006958.000366-.010498.000488-.009521.000366-.018555.000854-.028076.001221-.00061,0-.001831.000122-.002441.000122-.010132.000488-.020752.000977-.030884.001343-.00293.000244-.005615.000366-.008545.000488-.006836.000244-.015259.00061-.022095.000977-.00354.000122-.007812.000366-.011353.00061-.006714.000244-.012451.000488-.019287.000854-.00415.000244-.007935.000366-.012085.00061-.006104.000366-.012573.00061-.018555.000977-.00415.000122-.008545.000366-.012695.00061-.006104.000244-.012085.00061-.018188.000977-.004395.000122-.008179.000366-.012573.00061-.006836.000366-.012695.00061-.019531.000977-.00354.000244-.007324.000488-.010864.00061-.009521.000488-.018799.001099-.028198.001587-.00061,0-.001465,0-.002075.000122-.010132.000488-.020752.001099-.030884.001709-.00293.000122-.005737.000366-.008667.000488-.006714.000366-.015137.000854-.021851.001221-.003906.000244-.007324.000488-.01123.000732-.006714.000366-.012695.000732-.019531.001099-.003784.000244-.007812.000488-.011597.000732-.006714.000366-.012451.000732-.019287.001221-.004028.000244-.007812.000488-.011963.000732-.005981.000366-.012817.000732-.018921.001099-.003784.000244-.007812.000488-.011597.000732-.006714.000488-.013916.000977-.02063.001343-.00354.000244-.006348.000488-.009888.000732-.009399.00061-.019043.001221-.028442.001831-.00061,0-.001221.000122-.001831.000122-.010742.000732-.020386.001343-.031128.002075-.002319.000122-.004395.000366-.006714.000488-.008057.000488-.015381.000977-.023438.001587-.003906.000244-.007446.000488-.01123.000854-.006714.000366-.012573.000854-.019287.001343-.003906.000244-.007935.000488-.011841.000854-.006714.000366-.012329.000854-.019043.001343-.003784.000244-.008057.00061-.011841.000854-.006104.000488-.012695.000977-.018799.001343-.003784.000366-.008179.00061-.011963.000977-.006714.000488-.012451.000854-.019165.001343-.003906.000366-.007568.00061-.011475.000854-.008667.000732-.017212.001343-.025879.002075-.001465.000122-.002563.000122-.004028.000244-.01001.000854-.02063.001709-.03064.002441-.002441.000244-.005005.000366-.007324.00061-.008057.00061-.015381.001221-.023438.001831-.003174.000244-.00647.000488-.009766.000854-.006714.000488-.013794.001099-.020508.001587-.003784.000366-.007202.00061-.011108.000977-.006714.000488-.013306.001099-.02002.001709-.003784.000244-.006836.000488-.01062.000854-.006714.000488-.01355.001099-.020264.001709-.003174.000244-.00708.00061-.010376.000854-.007324.00061-.014282.001221-.021606.001953-.00293.000244-.005981.000488-.008911.000732-.009399.000854-.017822.001587-.027222.002319-.001221.000122-.001953.000244-.003052.000366-.010742.000854-.020386.001831-.031128.002686-.001709.000244-.003296.000366-.005005.000488-.008667.000854-.016479.001587-.025146.002319-.00354.000366-.006348.00061-.009888.000977-.006714.00061-.013794.001221-.020508.001831-.003418.000366-.007446.000732-.010864.000977-.006714.000732-.012695.001221-.019409.001831-.003784.000366-.008179.000854-.011963.001221-.005981.000488-.012939.001221-.018921.001831-.00354.000244-.007568.000732-.010986.000977-.006714.000732-.01416.001465-.020752.002075-.003174.000366-.006592.00061-.009766.000977-.008667.000854-.017822.001709-.026489.002563-.001221.000122-.002319.000244-.00354.000366-.01001.000977-.020386.002075-.030396.003052-.00293.000366-.005615.00061-.008545.000854-.007324.000732-.014526.001587-.021851.002319-.003418.000366-.007202.000732-.010742.001099-.006714.00061-.012939.001343-.019531.001953-.00354.000366-.007812.000854-.01123.001221-.006714.000732-.012939.001343-.019531.002075-.003784.000366-.007324.000732-.011108.001221-.005981.00061-.013306.001343-.019287.002075-.003418.000366-.007812.000732-.011353.001221-.006592.00061-.013306.001465-.02002.002075-.003418.000488-.006714.000732-.010132.001221-.008667.000854-.0177.001831-.026367.002808-.001099.000122-.002197.000244-.003418.000366-.01062.001221-.020264.002319-.030884.00354-.001465.000122-.003296.000366-.004761.000488-.008667.000977-.016479.001953-.025146.00293-.003418.000366-.006714.000732-.010254.001099-.006592.000732-.013306.001587-.02002.002319-.003418.000366-.007446.000854-.010864.001221-.006592.000854-.012817.001587-.019409.002319-.004028.000488-.007446.000854-.011475.001343-.006592.000732-.012573.001465-.019165.002319-.00354.000366-.007324.000854-.010864.001221-.006592.000854-.014038.001709-.020752.002563-.003174.000366-.006226.000732-.009399.001099-.008667.000977-.017334.002075-.025879.003174-.001221.000122-.002808.000244-.004028.000488-.01062.001221-.02002.002441-.03064.003784-.001709.000122-.003296.000366-.005127.00061-.008545.000977-.016357.001953-.025024.003052-.003174.000488-.006348.000854-.009521.001221-.006592.000854-.01355.001709-.020264.002563-.003662.000488-.007446.000977-.01123.001465-.005859.000732-.013428.001709-.019409.002441-.00354.000488-.007202.000977-.01062.001343-.006592.000854-.013428.001831-.02002.002686-.00354.000366-.006714.000854-.010132.001221-.007324.000977-.014282.001953-.021606.00293-.002808.000366-.005615.000732-.008545.001099-.008545.001099-.017456.002319-.026001.003418-.001465.000244-.002441.000366-.003906.000488-.01062.001465-.020386.002808-.030884.00415-.00061.000122-.001465.000244-.002075.000366-.009155.001221-.018799.002441-.027954.003784-.002686.000366-.005249.000732-.007812.001099-.007202.000977-.015137.002075-.022339.003052-.003174.000366-.006104.000854-.009277.001221-.006592.000977-.014038.001953-.02063.00293-.003418.000488-.007202.000977-.01062.001465-.006592.000977-.013428.001831-.02002.002808-.003174.000488-.006592.000977-.009766.001343-.007202.001099-.014282.002075-.021484.003052-.00293.000488-.005859.000854-.008789.001343-.008545.001221-.017578.002441-.026123.003784-.001221.000122-.002319.000244-.00354.000488-.010498.001465-.020142.00293-.03064.004395-.001221.000244-.002197.000366-.003418.000488-.008545.001343-.017944.002686-.026489.003906-.00293.000488-.005859.000854-.008789.001343-.007202.001099-.013794.002075-.020996.003174-.00354.000488-.006836.000977-.010254.001465-.006592.000977-.013428.002075-.019897.003052-.003784.000488-.00708.000977-.010864.001587-.006592.000977-.012329.001831-.018921.00293-.003784.000488-.007446.001099-.01123.001709-.007202.001099-.013062.001953-.020264.003052-.003174.000488-.006104.000977-.009277.001465-.008545.001343-.016724.002563-.025269.003906-.001465.000244-.00293.000488-.004272.00061-.020386.003174-.040161.006348-.060425.009521-.002563.000488-.005737.000977-.008423.001343-.007202.001221-.014282.002319-.021362.00354-.00354.000488-.006226.000977-.009644.001465-.007202.001221-.013428.002197-.02063.003296-.003174.00061-.006714.001099-.009888.001709-.00647.000977-.013916.002197-.020508.003296-.003174.000488-.006226.000977-.009399.001587-.00708.001099-.013916.002319-.021118.003418-.002808.000488-.006226.001099-.009033.001465-.008423.001465-.016602.002808-.025024.004272l-.004395.000732c-.020142.003296-.040039.006714-.060181.010132-.002563.000488-.005737.000977-.008301.001465-.007202.001221-.013916.002319-.021118.00354l-.010254.001831c-.007202.001221-.013062.002197-.020142.003418-.003418.00061-.006348.001099-.009766.001709-.00647.001099-.013672.002441-.020142.00354-.003418.00061-.006592.001099-.01001.001709-.00708.001343-.014038.002563-.02124.003784-.002808.000488-.005371.000977-.008179.001465-.008545.001465-.016846.00293-.025269.004517-.001343.000244-.00293.000488-.004395.000732-.020142.00354-.040039.007202-.060181.010864-.002319.000366-.004761.000854-.00708.001221-.007202.001343-.015381.002808-.022583.00415-.003174.00061-.005737.001099-.008911.001709-.00708.001221-.013672.002441-.020874.003784-.003418.00061-.00647.001221-.009888.001831-.00647.001221-.013428.002563-.019897.003662-.003418.000732-.006348.001221-.009766.001831-.007202.001343-.013916.002686-.020996.004028-.003174.00061-.005493.000977-.008667.001587-.008423.001587-.01709.003174-.025513.004883-.001099.000122-.002563.000366-.003662.00061-.020142.003784-.040283.00769-.060303.011597-.001953.000366-.004395.000854-.006348.001221-.007202.001343-.015869.003052-.022949.004395-.003174.00061-.005981.001221-.009033.001831-.007202.001343-.013672.002686-.020752.004028-.003418.000732-.006226.001221-.009644.001953-.00647.001221-.013306.002563-.019775.003906-.003418.00061-.006958.001343-.010254.001953-.007202.001465-.013306.002686-.020386.004028-.002808.00061-.006104.001221-.008911.001831-.008423.001709-.015381.003052-.023804.004761-.001709.000366-.003784.000732-.005493.001099-.02002.004028-.039429.007935-.059326.012085-.00293.00061-.005371.001099-.008179.001709-.00708.001343-.014404.00293-.021484.004395-.003174.00061-.005981.001221-.009155.001831-.00708.001465-.013062.002686-.020142.00415-.003418.000732-.00708.001465-.010376.002197-.00647.001343-.012817.002686-.019287.004028-.003296.000732-.006836.001465-.010254.002197-.00708.001465-.012817.002686-.019897.00415-.003296.000732-.006104.001343-.009521.001953-.00708.001587-.015991.003418-.023071.004883-.001953.000488-.003906.000854-.005859.001343-.019287.004028-.040161.008545-.059448.012695-.002319.000488-.004395.000977-.006592.001465-.00708.001465-.015503.003296-.022583.004883-.003052.00061-.005859.001221-.009033.001953-.00708.001587-.013672.00293-.020752.004517-.003174.000732-.005859.001343-.008911.001953-.00647.001465-.014404.003174-.020874.004639-.003052.00061-.005615.001221-.008667.001831-.00708.001587-.015015.003418-.022095.005005-.002563.000488-.004639.000977-.007202.001587-.008301.001831-.01709.003784-.025391.005615-.001099.000244-.002686.00061-.003784.000854-.020508.004639-.039429.008911-.059937.01355-.001465.000366-.003174.000732-.004639.001099-.008301.001831-.016113.003662-.024414.005493-.002808.000732-.005127.001221-.007935.001831-.00708.001709-.01416.003296-.021118.004883-.003174.000732-.00647.001465-.009521.002197-.006348.001465-.013916.003296-.020386.004761-.003052.000732-.005493.001221-.008667.001953-.006958.001709-.014893.00354-.021851.005127-.002197.000488-.005127.001221-.007324.001709-.008911.002075-.017334.004028-.026245.006226-.000854.000122-.001709.000366-.002563.00061-.020386.004761-.039795.009399-.060181.014282-.001099.000244-.002075.000488-.003174.000732-.008911.002075-.016602.003906-.025513.006104-.002441.00061-.005371.001343-.007812.001831-.00708.001709-.014648.00354-.021606.005249-.002808.000732-.005737.001343-.008423.002075-.00647.001587-.014282.003418-.020752.005005-.003052.000732-.005859.001465-.008911.002197-.006958.001709-.014526.00354-.021606.005249-.002197.00061-.005127.001343-.007324.001831-.008301.002075-.016968.00415-.025146.006226-.001099.000244-.002563.00061-.003662.000854-.020386.005127-.039307.009766-.059692.014893-.001343.000366-.002075.000488-.00354.000854-.008179.002075-.01709.004395-.025391.00647-.002197.000488-.004761.001099-.006958.001709-.006958.001709-.015137.003784-.022095.005615-.002808.000732-.005371.001343-.008179.002075-.007568.001953-.013672.003418-.02124.005371-.002808.000732-.005371.001465-.008179.002075-.006958.001831-.013916.003662-.020874.005371-.003052.000854-.005615.001465-.008667.002319-.008301.002075-.016479.00415-.02478.006348-.001343.000366-.001953.000488-.003418.000854-.020142.005249-.039673.010376-.059937.015625-.000244.000122-.000366.000122-.00061.000122-.009521.002563-.018433.004883-.027832.007324l-.006592.001831c-.007568.001953-.015015.003906-.022583.005981-.002563.00061-.004883.001221-.007446.001953-.007568.001953-.01416.003784-.021729.005737-.002808.000732-.004883.001343-.00769.002075-.007568.002075-.015503.00415-.023071.006226-.001709.000366-.003784.000977-.005493.001465-.008789.002319-.0177.004761-.026611.007202-.000732.000122-.001465.000366-.002319.00061-.020142.005493-.039795.010742-.059937.016235l-.000366.000122c-.009399.002563-.018799.005127-.028198.007812-.001953.000488-.003662.000977-.005615.001587-.007568.002075-.015747.004272-.023315.006348-.002441.000732-.004639.001343-.00708.001953-.007568.002197-.014648.00415-.022095.006226-.002197.00061-.004883.001343-.00708.001953-.007568.002075-.014893.00415-.022461.006226-.002441.000732-.004395.001221-.006836.001953-.008789.002441-.016479.004639-.025269.00708-.001099.000366-.001953.00061-.003052.000977-.020142.005615-.039429.011108-.059448.016846-.000366,0-.000488.000122-.000732.000122-.009399.002686-.018311.005249-.02771.008057-.001953.000488-.004028.001099-.005981.001709-.008179.002319-.015015.004272-.023071.006592-.002441.000732-.004395.001221-.006836.001953-.007568.002197-.014282.00415-.021851.006348-.002441.000732-.005249.001587-.00769.002197-.007568.002197-.014648.004272-.022095.00647-.002197.000732-.004395.001343-.006592.001953-.008667.002563-.016479.004883-.025146.007446-.001099.000244-.002075.000488-.003174.000854-.02002.005859-.039185.011597-.059082.017456-.000244.000122-.000854.000244-.001099.000366-.009399.002808-.018188.005371-.027466.008179-.001709.000488-.003662.001099-.005371.001587-.008057.002441-.015259.004639-.023315.00708-.002441.000732-.004639.001343-.00708.002075-.007446.002197-.014282.004272-.021851.006592-.002441.000732-.004639.001465-.00708.002197-.007446.002197-.014404.004272-.021851.006592-.002197.00061-.005005.001465-.007202.002197-.008667.002563-.016113.004883-.024902.007568-.001099.000366-.001953.00061-.003052.000977-.029175.008911-.057739.0177-.086914.026733-.002441.000732-.004272.001343-.006714.002075-.007446.002319-.014771.004639-.022217.006958-.002075.000732-.004883.001587-.00708.002197-.007446.002319-.013672.004395-.021118.006714-.002808.000854-.005371.001587-.008057.002441-.007446.002319-.014038.004395-.021362.006836-.002197.00061-.004883.001465-.00708.002197-.008057.002563-.016113.005127-.02417.007568-.001343.000488-.002563.000854-.003906.001343-.029053.009155-.057861.018433-.086914.027832-.001343.000366-.003052.000977-.004395.001465-.008057.002563-.015991.005127-.023926.00769-.002197.000732-.004272.001343-.00647.002075-.007324.002441-.014893.004883-.022339.007324-.002075.00061-.004395.001343-.00647.002075-.007446.002441-.015137.005005-.022583.007446-.002197.00061-.003906.001221-.006104.001953-.008545.002808-.017212.005615-.025757.008423-.00061.000244-.001465.000488-.001953.000732-.028931.009521-.058228.019287-.087158.028931-.001343.000488-.002563.000854-.003906.001343-.008057.002686-.016479.005493-.024414.008179-.001953.00061-.003906.001343-.005737.001953-.007446.002441-.014893.005005-.022217.007446-.002441.000854-.005005.001709-.007324.002563-.007446.002441-.014526.004883-.021851.007324-.001953.000732-.004395.001465-.006226.002075-.008545.00293-.016724.005737-.025391.008667-.000732.000366-.001587.00061-.002319.000854-.029419.01001-.057617.019775-.087036.029907-.000732.000366-.001831.000732-.002563.000977-.008545.00293-.016724.005737-.025269.008789-.001953.00061-.003784.001343-.005737.001953-.007324.002563-.015259.005371-.022583.007935-.002075.000732-.00415.001465-.006348.002197-.007324.002563-.014771.005127-.022095.007812-.002319.000732-.004028.001343-.00647.002197-.008545.003052-.016357.005859-.024902.008789-.000854.000366-.001709.00061-.002441.000977-.029297.010254-.057251.020264-.086426.030762-.000854.000244-.002197.000732-.003052.001099-.008423.003052-.016724.005981-.025269.009033-.001587.00061-.00293.001099-.004517.001709-.007324.002686-.015991.005737-.023315.008423-.002197.000732-.003906.001465-.006104.002197-.007202.002686-.015503.005615-.022827.008301-.001831.000732-.003418.001221-.005249.001953-.008545.003052-.015991.005737-.024536.008911-.000977.000366-.002441.000854-.00354.001343-.029053.01062-.056885.020874-.085938.031616-.000488.000244-.001343.000488-.001831.000732-.008545.003174-.017212.006348-.025635.009521-.001587.00061-.003906.001465-.005493.002075-.007324.002686-.015503.005737-.022705.008423-.001831.000732-.003906.001465-.005737.002197-.007202.002686-.015381.005737-.022705.008545-.001831.000732-.003784.001465-.005615.002075l-.025269.009521c-.000488.000244-.001465.00061-.002075.000854-.028931.010986-.056763.021484-.085693.032593-.000977.000488-.001465.00061-.002563.000977-.008423.003296-.01709.006592-.025513.009888-.001221.000488-.00293.001099-.004272.001587-.007202.002808-.015869.006226-.023071.008911-.001953.000732-.004272.001709-.006104.002441-.007202.002808-.015259.005859-.022461.008667-.001953.000732-.00354.001465-.005371.002075-.008423.003296-.016235.006348-.024658.009644-.000732.000244-.002075.000854-.002808.001099-.028931.01123-.056274.022095-.085083.033447-.000977.000366-.001831.000732-.00293.001099-.008301.003418-.016113.00647-.024536.009766-.001831.000732-.003784.001587-.005615.002319-.007202.002808-.014771.005859-.021973.008789-.002075.000732-.004272.001709-.006348.002441-.007202.00293-.014648.005859-.021851.008789-.002075.000854-.003906.001587-.005981.002441-.008423.003296-.015991.006348-.024292.009766-.000732.000244-.001953.000732-.002686.001099-.028687.011475-.055908.022583-.084595.034302-.000977.000366-.001953.000854-.003052.001221-.008301.003418-.016235.006714-.024658.010132-.001465.00061-.003174.001221-.004761.001953-.00708.00293-.015503.006348-.022583.009277-.002075.000854-.003906.001587-.005981.002441-.007202.00293-.015259.006348-.022339.009277-.001587.00061-.00354.001465-.005127.002075-.008301.003418-.015747.006592-.024048.01001-.001099.000488-.002319.000977-.003418.001343-.027832.011597-.05603.023438-.083984.035156-.000732.000366-.001831.000854-.002686.001221-.008301.003418-.015869.006592-.02417.010132-.002075.000854-.00415.001831-.006226.002686-.007202.003052-.014404.006104-.021484.009033-.002075.000977-.004028.001709-.006104.002686-.00708.00293-.014404.006104-.021484.009033-.002319.001099-.003906.001709-.006348.002808-.008179.00354-.015015.006348-.023315.009888-.000977.000488-.002319.000977-.003296.001465-.008911.003784-.018188.007812-.0271.011597l-.000488.000244c-.018799.008057-.037354.016113-.056274.024292-.000488.000244-.000854.000366-.001343.00061-.008301.00354-.017578.007568-.025757.01123-.001587.00061-.003052.001221-.004639.001953-.006958.003052-.014893.006592-.021973.009644-.002319.000977-.004395.001831-.006714.00293-.006958.003052-.014526.006348-.021606.009399-.001831.000854-.003418.001587-.005249.002319-.008301.003662-.015503.006836-.023804.010498-.001221.00061-.001831.000854-.003174.001465-.027588.012085-.055908.024658-.083374.036987l-.000977.000488c-.008789.003906-.017334.00769-.026123.011597-.001221.00061-.002808.001343-.00415.001831-.00708.003174-.015625.00708-.022583.010254-.001831.000732-.00415.001831-.005981.002563-.006958.003174-.01416.00647-.02124.009644-.002075.000977-.00415.001953-.006226.002808-.007568.003418-.015381.006958-.022949.010376-.001221.00061-.002197.000977-.003418.001587-.027466.012451-.05542.025269-.082886.037842l-.001221.00061c-.008179.003784-.0177.008179-.025879.011841-.001099.000488-.002441.001221-.003418.001709-.008179.003662-.015503.00708-.02356.010864-.001587.000732-.003052.001343-.004517.002075-.008179.003784-.015015.006958-.023193.010742-.001587.000732-.002563.001221-.00415.001831-.008057.003906-.016357.00769-.024536.011475l-.002197.001099c-.036621.01709-.073242.034302-.109741.051636-.000977.000488-.002319.001099-.003418.001587-.008057.003784-.015137.007202-.023315.011108-.001465.000732-.003174.001465-.004761.002197-.006958.003418-.015381.007446-.022339.010742-.001587.000732-.003418.001587-.005005.002319-.008057.003906-.015503.007446-.023682.011353-.000977.000488-.001587.000854-.002686.001343-.036987.0177-.072388.034912-.109253.052856-.000732.000366-.001343.00061-.002197.000977-.008057.004028-.016235.008057-.024292.011963-.001343.00061-.002808.001343-.004028.001953-.008057.003906-.015747.00769-.023804.011719-.000977.000488-.001831.000854-.002808.001343-.008057.003906-.017212.008423-.025269.012451-.000488.000244-.001099.000488-.001587.000732-.036743.018188-.07251.035889-.109131.054321-.000488.000244-.001099.000488-.001587.000732-.007935.004028-.01709.008545-.025024.012573-.001099.000488-.002075.000977-.003052.001587-.008057.004028-.015625.007812-.02356.011841-.001343.00061-.002686.001343-.003906.001953-.008545.004272-.016235.008179-.024902.012573l-.001221.00061c-.036499.018433-.072266.036743-.108643.05542-.000488.000244-.000854.000488-.001343.000732-.007935.004028-.016968.008667-.024902.012817l-.003418.001709c-.007935.00415-.015625.008057-.02356.012207-.001221.00061-.001953.001099-.003296.001709-.007935.00415-.016235.008423-.02417.012573l-.002197.001099c-.036377.018921-.071167.037109-.107422.056274-.000977.000488-.001465.000732-.002441.001343-.007935.00415-.015869.008301-.023682.012451-.001343.000732-.002686.001465-.003906.002075-.007935.004272-.014771.007812-.022583.011963-.001587.000854-.002808.001465-.004272.002319-.007935.00415-.015625.008301-.02356.012451-.000732.000488-.001587.000977-.002319.001343-.036133.019287-.070923.037964-.106812.057373-.000854.000366-.000977.000488-.001709.000977-.007935.004272-.015991.008545-.023804.012817-.001465.000854-.003296.001831-.004761.002563-.007324.004028-.014648.008057-.021973.011963-.001465.000854-.002563.001465-.004028.002197-.007935.004395-.015503.008545-.023438.012817-.000977.000488-.001465.000854-.002441.001343-.035889.019653-.070435.038696-.106201.058594-.000488.000244-.000854.000488-.001343.000732-.007812.004272-.016724.009277-.024536.013672-.000977.000488-.002197.001221-.003174.001709-.007812.004395-.014893.008301-.022705.012695-.001465.000854-.002563.001465-.004028.002197-.008423.004761-.015747.008911-.02417.01355-.000488.000244-.00061.000366-.001099.00061-.043945.024658-.088257.049683-.131958.074707-.000732.000488-.001587.000977-.002319.001343-.007812.004395-.016235.009277-.023926.013672-.000732.000488-.001831.000977-.002563.001465-.00769.004395-.016479.009399-.02417.013916-.000488.000244-.001221.00061-.001709.000977-.044312.025391-.087524.050537-.131592.076294-.000488.000244-.000244.000122-.000732.000488-.008301.004761-.016602.009644-.02478.014526-.000732.000366-.001587.000854-.002319.001343-.00769.004517-.016602.009766-.024292.014282-.000488.000244-.000977.00061-.001465.000854-.008789.005127-.016846.009888-.025635.015137l-.000244.000122c-.034668.020508-.06958.04126-.104004.06189l-.00293.001831c-.00769.004517-.015259.009155-.022949.013672-.000977.00061-.002075.001221-.00293.001831-.00769.004639-.015869.009521-.023438.01416-.000732.000366-.001343.000732-.002075.001221-.043701.026367-.085815.052002-.129272.078613-.00061.000488-.001099.000732-.001831.001099-.007568.004639-.015869.009766-.023438.014526-.000977.00061-.001831.001099-.002808.001709-.008179.005005-.015869.009766-.024048.014771-.000244.000122-.000732.000488-.000977.00061-.043335.026855-.085571.053101-.128662.0802-.000732.000488-.001099.000732-.001831.001099-.007568.004761-.016357.010376-.023926.015137-.000488.000244-.001221.000732-.001709.000977-.007446.004761-.016479.010498-.024048.015259-.000488.000244-.000977.00061-.001465.000977-.043091.027222-.084839.053833-.127686.081421-.00061.000366-.000854.00061-.001587.000977-.007568.004883-.015991.010254-.023438.015137-.000732.000488-.001831.001221-.002563.001587-.007446.004883-.015991.010376-.023438.015259-.000488.000244-.000977.00061-.001465.000854-.008545.005615-.016357.01062-.024902.016235l-.000244.000122c-.033569.021851-.067749.044189-.101318.066284-.00061.000366-.001709.001099-.002319.001465-.007446.005005-.015625.010376-.023071.015259-.000732.000488-.001221.000854-.001953.001343-.007935.005249-.015991.010498-.023926.015747-.000244.000244-.00061.000366-.000854.00061-.042358.028076-.084106.055908-.126343.084351-.000244.000122-.000732.000488-.000977.00061-.007812.005371-.015381.010376-.023193.015747-.000977.00061-.002075.001343-.00293.001953-.007935.005371-.015259.010254-.023071.015625-.000244.000122-.000977.00061-.001099.000732-.042114.028564-.08374.057007-.12561.085815h0c-.008423.005859-.016479.011353-.02478.01709-.000244.000244-.000488.000366-.000732.000488-.008301.005737-.016113.011108-.024414.016968l-.000488.000244c-.050171.03479-.099487.069336-.149414.104614-.000122.000122-.00061.000488-.000854.00061-.008301.005859-.015991.011353-.024292.017212l-.000244.000122c-.409546.290405-.808228.595825-1.19458.914917l12.469116,15.090942c-.064697.049438-.159912.144409-.222168.321167L2.354248,14.545898c-.324829.922485-.584961,1.875488-.77478,2.853638-.000122.00061-.000244.001221-.000366.001953-.01001.051514-.019897.103149-.029419.154907-.000244.001221-.000244.001343-.000488.002686-.001587.007935-.003052.016113-.004517.024048-.000244.001221-.000244.001709-.000488.00293-.001587.008057-.003052.016357-.004517.024414v.000244c-.006348.034058-.012451.067993-.018433.102173-.000244.001343-.00061.003296-.000854.004639-.001343.007324-.002686.014771-.003906.022217-.000366.001953-.00061.003296-.000977.005249-.001343.007324-.002563.014771-.003906.022095-.000366.001953-.00061.003418-.000854.005371-.005737.032349-.01123.064697-.016846.097168-.000244.001953-.00061.004272-.000977.006226-.001221.006958-.002319.013794-.00354.02063-.000366.002686-.000732.005005-.001221.007568-.001099.006714-.002319.013428-.003418.020264-.000244.001953-.000854.005493-.001221.007446-.001221.007202-.002319.01416-.00354.021362-.000244.001343-.000122.000977-.000366.002197-.004028.024292-.007935.048584-.011841.072754-.000366.002075-.000732.00415-.000977.006104-.001099.006714-.002197.01355-.003296.020386-.000488.002563-.000854.005127-.001221.007812-.001099.006714-.002197.013306-.003296.020142-.000366.002563-.000854.005371-.001221.007935-.001099.006836-.002197.01355-.003174.020386-.000366.001953-.000732.004517-.001099.00647-.003784.023926-.007446.047974-.011108.071899-.000122.000732-.000366.002563-.000488.003174-.001099.006958-.002075.013672-.003174.02063-.000366.002686-.000854.005615-.001221.008179-.000977.006226-.001831.012451-.002808.018677-.00061.003906-.000977.006714-.001587.01062-.000977.006104-.001831.012085-.002808.018188-.000488.003296-.000854.00647-.001343.009766-.000977.006348-.001953.012573-.002808.018921-.000366.001953-.000854.005127-.001099.00708-.002319.015381-.004517.031006-.006714.046387l-.000122.000854c-.000977.006348-.001953.012817-.002808.019287-.000488.003174-.000977.006104-.001343.009399-.000977.006104-.001831.012085-.002686.018188-.000488.003296-.001099.00769-.001587.010986-.000732.005859-.001587.011719-.002441.017578-.000488.003906-.000977.00708-.001587.011108-.000854.005981-.001587.011841-.002441.017822-.000488.003174-.001099.007568-.001587.010864-.002808.020752-.005615.04126-.008423.062012-.00061.004028-.001099.007202-.001587.01123-.000732.005493-.001465.010864-.002197.016479-.000488.003906-.001221.008789-.001709.012695-.000732.005493-.001465.010986-.002197.016357-.000488.004028-.001221.009033-.001709.012939-.000732.005249-.001465.01062-.002075.015869-.00061.004639-.001221.009155-.001831.013672-.000732.005249-.001343.010498-.002075.015625-.00061.005249-.001343.010376-.001953.015625-.001099.008545-.002197.016724-.003296.025269-.00061.004639-.001343.010376-.001953.015015-.00061.005371-.001343.010742-.001953.016113-.00061.004639-.001099.008667-.001709.013306-.000732.005371-.001343.010498-.001953.015747-.00061.004639-.001099.008911-.001709.01355-.00061.005127-.001343.010498-.001953.015625-.00061.004639-.001099.009277-.001709.013916-.00061.005249-.001221.010254-.001953.015625-.000488.004639-.000977.008301-.001587.012939-.000977.008911-.002197.018066-.003174.026978-.000732.005371-.001343.011108-.001953.016357-.00061.004761-.001221.009521-.001709.014282-.00061.005371-.001221.009888-.001831.015259-.00061.004883-.001099.009766-.001709.014648-.00061.004639-.001221.010254-.001709.014893-.00061.004883-.001221.009766-.001709.014648-.00061.004761-.001221.01001-.001709.014648-.00061.004883-.001221.010132-.001709.015015-.00061.005249-.001221.010254-.001831.015625-.000488.004639-.000977.008789-.001465.013428-.000977.008667-.001831.016724-.002808.025269-.000488.004395-.000977.008789-.001465.013062-.000732.005981-.001465.013306-.002197.019287-.000488.004517-.000977.009277-.001465.013672-.00061.005371-.001099.010376-.001709.015747l-.001465.013916c-.00061.005249-.001221.011108-.001831.016479-.000366.004395-.000854.008789-.001343.013184-.00061.005371-.001221.011108-.001709.016479-.000488.004517-.000977.009033-.001465.013428-.000488.005371-.001221.011475-.001709.016846-.000732.006958-.001465.013916-.002197.020996-.000732.006592-.001343.013062-.002075.019653-.000366.004395-.000854.008911-.001343.013306-.000488.005981-.000977.01062-.001587.016602-.000488.004517-.000977.008911-.001343.013428-.00061.005371-.001099.010986-.001587.016235-.000488.004639-.000977.009155-.001465.013794-.000488.005981-.000977.01123-.001587.017212-.000366.004028-.000854.007935-.001221.011963-.00061.006714-.001221.012695-.001831.019409-.000366.003662-.000732.007202-.001099.010864-.000854.009277-.001831.019409-.002686.028809-.000244.00293-.00061.006226-.000854.009155-.00061.006714-.001221.01355-.001831.020264-.000366.004272-.000732.008179-.001099.012451-.00061.005981-.001099.011963-.001709.017944-.000366.00415-.000732.008057-.001099.012207-.000488.005981-.001099.011719-.001587.0177-.000366.004272-.000732.008301-.001099.012573-.00061.006592-.001099.012329-.001709.019043-.000244.00354-.00061.00708-.000854.01062-.001831.02002-.003418.039307-.005127.059326-.000366.00354-.00061.006836-.000854.010376-.00061.006714-.001099.012573-.001587.019287-.000366.004272-.000732.008301-.001099.012451-.000488.006104-.000977.011963-.001465.017944-.000244.004028-.00061.008057-.000977.012085-.000488.005981-.000977.012329-.001465.018433-.000244.003906-.00061.008057-.000977.011963-.000488.006714-.001099.014038-.001587.020752-.000244.00293-.000488.005981-.000732.008911-.000732.009399-.001465.019897-.002197.029297-.000244.003296-.000488.00647-.000732.009644-.000488.006714-.001099.013794-.001587.020508-.000244.003784-.00061.007812-.000854.011597-.000366.006104-.000854.012451-.001343.018555-.000244.003906-.00061.008057-.000854.011963-.000488.006104-.000977.012695-.001343.018677-.000366.004028-.00061.00769-.000854.011719-.000488.006714-.000977.01355-.001465.020264-.000244.003296-.000366.006348-.00061.009644-.000732.01001-.001465.019775-.002075.029907-.000122.001343-.000244.002686-.000244.004028-.00061.008789-.001221.017212-.001831.026001-.000244.003418-.000366.006714-.00061.010132-.000488.006714-.000854.013306-.001343.02002-.000244.003662-.000488.007568-.000732.01123-.000488.006714-.000854.012451-.001221.019165-.000244.004028-.000488.00769-.000732.011719-.000488.006714-.000854.012817-.001221.019531-.000244.00354-.000488.006958-.000732.010498-.000488.008789-.000977.017578-.001587.026367,0,.001221-.000122.002441-.000244.00354-.00061.010132-.001099.020264-.001709.030273-.000244.003052-.000366.005859-.000488.008911-.000488.006714-.000854.01416-.001221.020996-.000244.003906-.000488.00769-.000732.011719-.000366.005981-.000732.012939-.001099.018921-.000122.003906-.000366.007568-.00061.011475-.000366.005981-.000732.01355-.001099.019531-.000122.00354-.000366.007324-.000488.010864-.000488.007446-.000854.014526-.001221.021973-.000122.002686-.000244.005615-.000488.008301-.000488.010132-.000977.019897-.001465.030029-.000122.002319-.000244.004639-.000366.00708-.000366.007324-.000854.015747-.001221.023193-.000122.00354-.000244.006958-.000488.010498-.000244.006104-.00061.013794-.000977.019897-.000122.003784-.000366.007568-.000488.011475-.000366.006714-.00061.012451-.000854.019287-.000244.003662-.000366.007446-.00061.01123-.000244.006714-.00061.013916-.000854.020752-.000244.003052-.000366.00647-.000488.009521-.000854.020264-.001709.040283-.002563.060547l-.000366.009521c-.000366.006836-.00061.014038-.000854.020874-.000122.00354-.000366.007446-.000488.011108-.000244.006714-.000488.012573-.000732.019409-.000122.003784-.000244.00769-.000488.011597-.000122.006104-.000488.013916-.000732.02002l-.000366.010254c-.000244.008179-.00061.01709-.000854.025146-.000122.001709-.000122.003296-.000244.005005-.000244.010254-.00061.020508-.000977.030762-.000122.002197-.000122.004517-.000244.006836-.000244.007446-.000488.016113-.000732.02356-.000122.003418-.000244.006958-.000366.010498-.000244.006714-.000366.013184-.00061.019897l-.000366.011353c-.000122.006104-.000366.013306-.000488.019409-.000122.003906-.000244.007812-.000366.011597-.000244.006836-.000366.014282-.00061.020996-.000122.003174-.000122.005981-.000244.009155-.000244.010132-.000488.019897-.000732.030029-.000122.002197-.000122.004517-.000244.006714-.000122.008057-.000366.015747-.00061.023926,0,.003418-.000122.006958-.000244.010376-.000122.006836-.000244.013428-.000366.020264-.000122.003662-.000244.007446-.000244.011108-.000244.006836-.000366.013428-.000488.020142-.000122.003662-.000122.007324-.000244.010864-.000122.006836-.000244.013428-.000366.020264-.000122.003418-.000122.00708-.000244.010498-.000122.008911-.000244.016357-.000366.025146-.000122.001831-.000122.003662-.000122.005371-.000244.010254-.000366.019897-.000488.030151-.000122.003296-.000122.00647-.000244.009766,0,.006836-.000122.013794-.000244.02063-.000122.004028-.000122.007812-.000122.011719-.000122.006226-.000244.012817-.000366.018921,0,.00415,0,.008179-.000122.012329,0,.006226-.000122.013062-.000244.019287,0,.00354,0,.007324-.000122.010986,0,.007446-.000122.015015-.000244.022461v.008301c-.000122.010132-.000244.02002-.000244.030273-.000122.002197-.000122.004761-.000122.006836,0,.007568-.000122.015991-.000122.02356,0,.003662-.000122.007446-.000122.01123,0,.006104,0,.013306-.000122.019531v.011963c0,.006104-.000122.012817-.000122.018921v.032227c-.000122.00354-.000122.006714-.000122.010254v.030396h0v.030762c0,.003662,0,.007202.000122.010864v.032593c0,.006104.000122.012451.000122.018555v.012939c.000122.005493.000122.012817.000122.018311,0,.004272.000122.008667.000122.012939,0,.006104.000122.012573.000122.018677,0,.004028,0,.008179.000122.012207,0,.006714.000122.013794.000122.02063,0,.003418.000122.006836.000122.010254.000122.010254.000244.020142.000366.030396v.000366c.000122.010254.000244.02063.000366.030884,0,.00354,0,.006836.000122.010376,0,.006836.000122.013794.000244.02063,0,.004028.000122.008057.000122.012085.000122.006104.000244.012451.000366.018677,0,.004272.000122.008545.000122.012817.000122.006226.000244.012329.000366.018433.000122.004395.000122.008423.000244.012817.000122.006104.000244.012085.000244.018188.000122.004272.000244.008423.000244.012817.000122.006714.000366.013062.000488.019897,0,.003662.000122.00708.000122.010742.000244.008911.000488.018433.00061.027222,0,.001221.000122.002319.000122.00354.000244.010254.000488.020386.000732.030518,0,.003784.000122.007568.000244.011353.000122.006104.000244.013062.000488.019165.000122.004639.000244.009277.000366.013794.000122.005493.000244.011597.000366.01709.000122.004395.000244.009155.000366.01355.000122.005493.000366.011963.000488.017334.000122.004761.000244.009277.000366.014038.000244.005493.000366.011353.000488.016724.000244.004639.000366.009277.000488.013794.000122.006104.000366.011597.000488.0177.000122.004272.000366.008911.000488.013306l.000732.022339c0,.002563.000122.005371.000244.007935.000366.010132.00061.019653.000977.029907.000122.00415.000244.008179.000488.012451.000122.006104.000366.012207.00061.018311.000122.004639.000366.009399.000488.013916.000244.005493.000488.010864.00061.016235.000244.005005.000366.01001.00061.015015.000244.005493.000366.010376.00061.015747.000244.005127.000366.010132.00061.015137.000122.004761.000366.010376.00061.015137.000244.005127.000366.010254.00061.015381.000244.005371.000488.010742.000732.016235.000122.004761.000366.009399.000488.01416.000366.006104.00061.012695.000854.018799.000244.003906.000366.007812.000488.011597.000488.009521.000977.019897.001343.029297.000244.004639.000488.009399.00061.014038.000366.005371.00061.010986.000854.016357.000244.005249.000488.010376.000732.015625.000244.004761.000488.009888.000732.014648.000244.005249.000488.01062.000732.015991l.000732.014282c.000244.005615.000488.010986.000854.016602.000244.004761.000366.008545.00061.013306.000366.005615.00061.011475.000977.01709.000122.004028.000488.008911.00061.013062.000366.005737.00061.011475.000977.017334.000244.004639.000488.008423.000732.013062.001099.02124.002319.042236.00354.063354.000244.00415.000488.007935.000732.011963.000366.005859.00061.011597.000977.017334.000244.004761.000488.008301.000732.013062l.001099.016846c.000244.004761.000488.008667.000732.013428.000366.005737.000732.011597.001099.017334l.000732.012085c.000488.005981.000854.012085.001221.018188.000244.004028.000488.00769.000732.011719.000366.006226.000732.012085.001221.018311.000244.004028.000366.006958.000732.010986.001465.022217.00293.044556.004395.066772.000244.003296.000488.00647.000732.009888.000488.00647.000854.012939.001343.019409.000244.003296.000488.00708.000732.010498.000488.006104.000977.012573.001343.018799.000244.003296.00061.007935.000854.01123.000488.006348.000977.012695.001343.019043.000244.003296.000488.006714.000732.010132.000488.006592.001099.013306.001587.019897.000122.002686.000366.006104.00061.008789.000488.00708.001099.01416.001587.02124l.000488.005371c.001831.025146.003784.050171.005859.075317.000122.001343.000366.00415.000488.005493.000488.006958.001099.014038.001709.021118.000122.002686.000488.005859.00061.008545.00061.006714.001099.013428.001709.020142.000244.003418.000488.00647.000854.009888.000488.006592.001099.013062.001587.019653.000366.003418.00061.006226.000854.009644.00061.006714.001099.013428.001709.020142.000244.002686.000488.006104.000732.008789l.001831.02124c.000122.001343.000366.00354.000488.004883.002319.026489.004639.052856.00708.079346l.000122.000977c.000732.007812.001465.015747.002197.02356.000122.002075.000366.003906.000488.005981.000732.007324.001465.014648.002075.021973.000244.002686.000488.004761.000732.007446.000732.007446.001465.014893.002075.022339.000244.001953.000488.004272.00061.006226.000732.00769.001465.015137.002197.022705.000244.002075.000366.003906.00061.005859.004395.045288.008911.090454.013672.13562.000122.000732,0,0,.000122.00061l.002563.024902c.000122.001343.000366.003662.000488.005005.000854.007812.001709.015991.002563.023926.000244.001953.000244.002319.000488.004272.000854.008301.001709.016602.002686.024902,0,.00061.000244.001831.000244.002563.005981.054688.012085.109619.018555.164185,0,.000732.000122.001831.000244.002563.000977.008667.002075.01709.003052.025879.000122.00061.000244.001465.000244.002197.001099.008667.002075.0177.003174.026367.000122.000732,0,.000244.000122.000977.006592.05542.013428.110596.020508.165894l.000122.00061c.001099.009033.002319.018066.003418.026978.000122.000732.000122.00061.000244.001221.124634.963013.316895,1.904419.571655,2.820068l.000122.000244c.002319.008545.004761.016968.00708.025513.000244.00061.000366.001099.000488.001709.01709.060913.034424.121826.052002.182495.000244.00061.000366.001099.000488.001709.002319.008057.004639.015869.006958.023926.000366.001221.000732.002319.001099.00354.002197.00769.004517.015625.006714.023315.000366.001221.00061.002075.000977.003296.002441.008057.004761.015869.00708.023926l.000244.000854c.010132.034424.020264.068604.03064.102905.000122.000732.000244.001099.000488.001709.002197.007568.004517.015137.006836.022583.000488.001831.000977.003174.001465.005127.002197.00708.004272.014038.00647.021118.000732.002441.001099.003784.001831.006226.002197.00708.004272.01416.00647.02124.00061.001831.001099.003662.001709.005493.002075.00708.004272.014282.00647.021362.00061.001831.000977.003174.001587.005127.009766.03186.019653.063965.029663.095703.000488.001831.001343.004272.001831.006104.002075.006592.004028.012817.006104.019287.000977.003052.001587.005127.002563.008301.001953.006104.003784.012085.005737.018188.000977.003052.002197.006836.003174.01001.001831.005737.00354.011475.005371.017212.001221.003784.002075.00647.003296.010254.001831.005615.003662.011475.005493.01709.001099.003784.002197.00708.003418.010742.001709.005737.00354.011353.005371.01709.000854.002441.001709.005249.002441.00769.004272.013428.008667.026855.012939.040161.000366.001221.001221.003784.001587.005127.001831.005371.00354.010742.005371.016235.001343.004272.002319.007324.003784.011719.001587.005127.003418.010498.005005.015625.001465.004395.002563.00769.003906.011963.001709.005005.003418.010254.005005.015259.001343.004272.002808.008667.004272.012939.001587.004883.003174.009766.004761.014526.001343.004395.003052.009521.004517.013794.001465.004517.00293.008911.004395.01355.001831.005493.003296.009644.005127.015137.001343.004395.002686.008545.00415.012817.001831.005493.00415.012207.005981.017822.000977.003174.002075.00647.003174.009644.003052.009277.005981.017822.009033.026978.001099.00354.002319.00708.00354.010498.001831.005615.004028.012085.005859.0177.001343.003662.002563.007324.003784.011108.001831.005493.003662.010986.005615.016479.001343.003906.002686.007935.004028.011841.001831.005615.003784.011353.005615.016846.001221.003418.002441.00708.003662.01062.002075.006104.00415.012085.006226.018311.001099.003052.002197.006348.003174.009399.002319.006714.004883.014038.007202.020752.000732.002319.001587.004761.002319.006958.00293.008667.006348.018433.009277.026978.000122.000244.000244.000732.000366.000977.003418.009888.006592.019165.01001.028931.000244.000732.00061.001587.000854.002441.00293.008545.005981.01709.008911.025635.000732.002075.001465.004028.002075.005981.002563.007446.005127.014771.00769.022095.000854.002441.001709.004761.002563.007202.002563.007324.004883.013794.007446.021118.000854.002441.001709.005005.002563.007446.002686.007324.005371.014893.007935.022217.00061.001831.001221.00354.001831.005249.003052.008545.006226.017578.009277.026001.000244.000732.000366.001343.00061.001953.013916.039062.027344.07666.041504.115479.000244.000854.000488.001587.000854.002319.003052.008545.006592.018311.009766.026855l.00061.001831c.00354.009644.00647.0177.01001.027466.000244.000366.000366.000854.000488.001221.001099.003052.001953.005371.003052.008423l18.388428-6.742676c.035889.099365.10022.220215.214478.309814l.427734-.545288.00293-.000977.013794.022095-12.708252,15.782837c.031128.025024.061768.049561.09314.074463l.000244.000244c2.081665,1.656128,4.495728,2.911499,7.126587,3.64978.000244.000122.000366.000122.00061.000244.060303.016846.119751.033203.180176.049561.00061.000244.000732.000244.001221.000366.060547.016357.119995.032227.180664.047974.000244.000122.000732.000244.000977.000244.010132.002686.019409.005127.029541.00769l.000488.000122c.040527.010498.080688.020752.121216.031006l.00061.000122c.009521.002441.019287.004883.028809.007324.000854.000122.001953.000488.002808.00061.008911.002319.018921.004761.027832.006958.000488.000122.001221.000366.001831.000488.050171.012451.100342.02478.150635.036865.000854.000244.001953.000488.002808.000732.008911.002075.018433.004395.027344.006592.000854.000122.002075.000488.00293.00061.009521.002319.019043.004639.028687.006836.000244.000122.00061.000122.000854.000244.03064.007324.060791.014404.091431.021484l.000732.000122c.009521.002197.018799.004395.02832.006592.001465.000366.003052.000732.004395.000977.009033.002075.016724.003906.025635.005981.001709.000366.002808.00061.004395.000977.008911.002075.017944.004028.026855.006104.001099.000244.001709.000366.002808.00061.03064.00708.060547.013794.091309.02063h.000244c.009644.002197.019775.004395.029419.006592.000732.000122.001953.000366.002808.00061.009033.001953.018433.004028.027344.005981l.003296.000732c.009033.001953.018433.004028.027344.005981.000854.000122.001953.000488.002808.00061.030884.006714.060181.013062.091064.019653.000854.000122.001587.000244.002441.000488.008911.001831.018066.003784.026978.005737.001709.000366.003418.000732.005127.000977.008423.001831.016846.003662.025269.005371.001587.000366.003052.00061.004761.000977.009033.001953.017212.003662.026245.005493.001343.000244.002319.000488.003784.000732.030273.006348.061035.012695.091309.018799.000244.000122.000488.000122.000854.000122.009644.002075.018921.003906.028564.005859.001587.000366.003052.00061.004761.000977.008301.001709.016846.003296.025269.005005.001953.000366.003418.000732.005371.001099.008423.001709.01709.003418.025391.005127.001709.000244.002808.000488.004395.000854.030396.005981.061157.011963.091675.017822.000244.000122.000122.000122.000366.000122.009644.001831.019287.003662.028931.005615.001709.000244.003296.00061.005005.000977l.025269.004761c.001587.000366.003662.000732.005371.000977.008423.001587.016724.003174.025146.004761.001709.000366.003418.000732.005005.000977.009766.001831.019653.003662.029297.005493h.000122c.020752.003906.041382.00769.062256.011597h.000244c.009766.001831.019287.00354.029053.005371.001709.000244.003662.00061.005249.000854.008545.001587.016602.003052.025024.004517l.005859.001099c.007812.001465.016724.003052.024536.004395.001953.000366.003784.000732.005737.001099.009155.001587.018555.003296.027588.004883.000854.000122.001221.000122.001953.000366.03064.005371.061157.010742.091797.015991.001709.000244.003174.000488.004761.000854.008545.001465.016846.002808.025391.004272.001953.000366.003784.00061.005737.000977.007812.001343.017212.00293.025024.004272.001953.000366.003418.00061.005371.000977.009155.001465.017822.00293.026855.004517.000854.000122.002319.000366.003174.000488.03064.005127.060669.01001.091309.015015.002075.000366.00415.000732.006104.000977.007812.001343.016113.002686.023926.003906.002319.000366.005127.000854.007324.001221.007812.001221.015137.002441.022949.003662.002563.000366.004883.000732.007446.001099.008423.001343.016357.002686.024902.004028.001343.000244.003418.000488.004883.000732.020264.003174.041016.00647.061401.009521.000488.000122.00061.000122.001221.000244.009155.001465.019165.00293.028442.004395.002197.000366.004517.00061.006714.000977.007935.001221.015259.002319.023193.00354.002563.000366.005493.000854.007935.001221.007935.001221.014648.002197.022583.003418.002441.000366.005371.000732.007812.001099.007935.001221.015991.002441.023926.00354.001953.000366.004028.00061.005981.000977.009766.001465.019287.002808.029175.004272.000244,0,.00061.000122.000854.000122.010498.001587.020752.003052.03125.004517.000244.000122.000977.000122.001221.000244.009155.001343.019287.002686.028442.004028.002319.000366.004517.000732.006836.000977.007812.001099.015747.002319.023682.003418.002319.000244.005127.000732.007446.000977.007202.001099.014893.002197.022217.003174.002808.000366.006226.000854.009033.001221.007202.001099.015137.002197.022339.003174.002319.000366.005127.000732.007446.000977.009155.001343.019043.002686.028198.003906.000244,0,.001221.000244.001465.000244.01062.001465.020874.002808.031372.004272h.000366c.009888.001343.019653.002686.029541.004028.002319.000244.004517.00061.006836.000854.007812.001099.015503.002075.023438.003174.002441.000244.005249.00061.00769.000977.007935.000977.015015.001953.022827.00293.002563.000366.005493.000732.008057.001099.007935.000977.015259.001953.023193.003052.002319.000244.004761.00061.006958.000854.008667.001099.0177.002319.026367.003418.001099.000122.002808.000366.004028.000488.020386.002563.040405.005127.060913.007568.002197.000366.004883.00061.007202.000977.007202.000854.015503.001831.022827.002808.003052.000366.005859.000732.008911.001099.006714.000732.014771.001709.021484.002563.002808.000366.006226.000732.009155.001099.007202.000854.015137.001831.022461.002686.002441.000366.005005.00061.007568.000977.008667.000977.017212.001953.025757.003052.001465.000122.003052.000244.004395.000488.02063.002441.040527.004761.061157.00708.002563.000244.004639.000488.007202.000854.007324.000732.015625.001709.022949.002563.002808.000366.005981.00061.008789.000977.007324.000854.014526.001587.021851.002441.002808.000366.006104.000732.008911.000977.007324.000854.015259.001709.022461.002563.002686.000244.005127.000488.00769.000732.008667.000977.016602.001831.025146.002808.001709.000122.003662.000366.005371.00061.019897.002075.041016.004395.060913.00647.002563.000244.005249.000488.007812.000732.007324.000854.014893.001587.022217.002319.00354.000366.006958.000732.010376.001099.006714.000732.012817.001343.019531.002014.003662.000366.007446.000732.011108.001099.006714.000671.013794.001404.020386.002075.003418.000366.006226.00061.009644.000977.007324.000732.015991.001587.023315.002319.002075.000183.004639.000427.006592.00061.02002.002014.040894.004028.060913.00592.002808.000244.005615.000549.008545.000793.007324.000732.014404.001404.021851.002075.003052.000305.00647.00061.009644.000916.006592.00061.01416.001282.020874.001892.003418.000366.006836.000671.010254.000977.006714.00061.014038.001282.020752.001892.003174.000305.006226.000549.009399.000854.007324.000671.015259.001343.022583.002014.002563.000244.005371.000488.007935.000732.02002.00177.041016.003601.061035.00531.002319.000183.004272.000366.006592.000549.007324.00061.016479.001404.023804.002014.00293.000244.006592.000549.009399.000793.006714.000549.013794.00116.020508.001709.003784.000305.007202.00061.010986.000916.006714.000549.01355.001099.020264.001648.003418.000244.006592.000549.010132.000793.007324.00061.013916.00116.021362.001709.002808.000244.006226.000488.009033.000732l.028198.002197c.000488.000061.001465.000122.002075.000183.01001.000793.020386.001587.030518.002319.002563.000244.005371.000427.007935.00061.007446.00061.014893.00116.022217.001709.00354.000244.00708.000488.010498.000793.006714.000488.013306.000977.02002.001465.003784.000244.007324.000488.011108.000793.006714.000488.013184.000977.019897.001465.00354.000244.006958.000488.010376.000732.007446.000488.014282.000977.021729.001526.002808.000183.005981.000427.008789.00061.010132.000671.019531.001343.029541.002014.000366.000061.000244.000061.00061.000061.01001.000671.020996.001404.031128.002075.001953.000122.00415.000305.006104.000427.008057.000549.016235.001038.024414.001587.003174.000183.006226.000427.009399.00061.007446.000488.013306.000854.020752.001343.003418.000244.007446.000488.010986.000671.006714.000427.013062.000854.019775.001282.003784.000183.007202.000427.010986.000671.007446.000427.013428.000793.020874.001282.003174.000183.006226.000366.009399.000549.008789.000549.017334.001038.026123.001526.001465.000122.00293.000183.004395.000305.010132.000549.020508.00116.03064.00177.002319.000122.005005.000244.007324.000366.007446.000427.015625.000916.023071.001343.00354.000183.006836.000366.010376.000549.005981.000366.013916.000793.02002.001099.004028.000244.007812.000427.011841.00061.006104.000366.012329.000671.018433.000977.004028.000244.008423.000488.012451.000671.006104.000305.012451.000671.018555.000977.004028.000183.007935.000366.011963.00061.007446.000366.015381.000732.022827.001099.002686.000183.004517.000244.007202.000366l.030396.001465c.002563.000122.005005.000244.007568.000366.008179.000427.014893.000732.022949.001099.003784.000183.006958.000305.010742.000488.006714.000305.013062.00061.019775.000854l.011353.000549c.006714.000305.013428.000549.020142.000854.00354.000122.007202.000305.01062.000427l.020508.000916c.003418.000122.006958.000244.010376.000427.007446.000305.016235.00061.023682.000916.002319.000122.004517.000183.006836.000305.010132.000366.020386.000793.03064.00116.002319.000122.004272.000183.006714.000244.008057.000305.015625.00061.023804.000916.003418.000122.006836.000244.010376.000366.006714.000244.01355.000488.020386.000732l.011353.000366c.006714.000244.012817.000488.019653.000671.00354.000122.007568.000244.010986.000366.006836.000244.01355.000488.020264.000671.00354.000122.007446.000244.010986.000366.007446.000244.015137.000488.022583.000671.002686.000122.005127.000183.00769.000244.010254.000305.020386.00061.03064.000916.002075.000061.004028.000122.005981.000183.008179.000183.016846.000427.025024.000671.003174.000061.00647.000183.009644.000244.006836.000183.013794.000366.020508.000549.003784.000122.008179.000183.011963.000305.006104.000122.013184.000305.019287.000488.003784.000061.007812.000183.011597.000244.006836.000183.013306.000305.020142.000488.003418.000061.006836.000122.010376.000244.007446.000122.015869.000305.023438.000488.002319.000061.005005.000122.007324.000122.010254.000244.020874.000427.031006.00061.00061.000061.001709.000061.002319.000061l.028564.000549c.00293,0,.005859.000061.008789.000122.007446.000122.014404.000244.021851.000366.00354.000061.007446.000122.010986.000183.006836.000122.013062.000183.019897.000305.003784.000061.00769.000122.011597.000122.006104.000122.013306.000183.019409.000305.00415.000061.007568.000061.011597.000122.007568.000122.014404.000183.021851.000244.00293.000061.005615.000061.008545.000122.010254.000122.020508.000244.030762.000305.001465,0,.002686.000061.00415.000061.008911.000061.017944.000122.026733.000244.00354,0,.006714,0,.010254.000061.006836.000061.013428.000122.020264.000122.00415.000061.008057.000061.012085.000061.006226.000061.012939.000122.019043.000122.00415.000061.008179.000061.012329.000061.006104.000061.012939.000061.019043.000061.003784.000061.007812.000061.011597.000061.006836,0,.014038.000061.020874.000061h.010132c.010254,0,.020386.000061.03064.000061h0v-19.574768c.080444,0,.225464-.027954.357544-.100342l10.331421,16.634033c.653687-.406006,1.282349-.8479,1.883667-1.323364.000244-.000244.000488-.000488.000732-.00061.007935-.006348.015015-.011841.022949-.018188.000366-.000366.000488-.000488.000977-.000732.007935-.006348.015137-.012085.023071-.018433q.000244-.000122.000488-.000366c.039673-.031616.078979-.062988.118408-.094849.000488-.000366.000366-.000366.000854-.000732.007446-.005981.014526-.011719.021851-.0177.000854-.000732.002075-.001709.00293-.002441.006958-.005493.013306-.010742.020264-.016357.001099-.000854.002319-.001831.003418-.002808.006836-.005493.012939-.010498.019775-.016113.001099-.000854.002197-.001709.003296-.002686.006958-.005615.014526-.011719.021362-.017334.000366-.000366.000977-.000854.001465-.001221.030884-.025269.062012-.050903.092773-.076416.001099-.000854.002197-.001831.003296-.002686.006348-.005249.012939-.010742.019287-.015991.001709-.001465.003174-.002686.004883-.00415.005859-.004761.011841-.009766.0177-.014648.001709-.001343.003662-.003052.005493-.004517.005737-.004883.01123-.009399.01709-.014282.001953-.001587.004028-.003418.005981-.005005.005859-.004883.01123-.009399.01709-.014282.001953-.001587.003418-.002808.005371-.004517.006348-.005249.011719-.009888.018066-.015137.001465-.001221.003052-.002563.004517-.003784.022827-.019165.04541-.03833.068115-.057495.001099-.000977.001953-.001709.003052-.002563.006226-.005371.012939-.010986.019165-.016357.001587-.001343.00354-.00293.005005-.004272.005737-.004883.011719-.01001.017578-.014893.001953-.001709.003662-.003174.005615-.004883.005371-.004517.010742-.009155.015991-.013672.002441-.002075.004761-.004028.007202-.006104.005249-.004517.010254-.008789.015503-.013306.002197-.001831.004517-.003906.006714-.005737.005249-.004517.010864-.009277.016113-.013916.002197-.001831.003906-.003296.005981-.005127.006226-.005371.011841-.010132.018066-.015503.001221-.001099.002808-.002441.00415-.003662.015259-.013184.029297-.025269.044556-.038574.001465-.001343.002686-.002319.00415-.003662.006226-.005371.011719-.010132.017944-.015503.002075-.001953.004028-.003662.006226-.005493.005249-.004639.010376-.009033.015625-.01355.002563-.002319.004883-.004272.007446-.006592.004761-.00415.009399-.008301.01416-.012451l.008423-.007324c.004761-.00415.009033-.007935.013794-.012207.002563-.002197.005249-.004517.007812-.006836.004761-.00415.009644-.008423.014404-.012573.002563-.002319.005249-.004639.007812-.006958.004761-.00415.010376-.009155.015137-.013428.002197-.001831.004272-.003662.006348-.005493.006226-.005493.011841-.01062.018066-.015991.001221-.001221.002563-.002319.003906-.00354.007568-.006714.014526-.012939.022095-.019653.000488-.000366.000977-.000854.001465-.001221.006592-.005859.013306-.011841.019897-.017822.002563-.002197.005005-.004395.007568-.006714.004761-.004272.009155-.008179.013794-.012329.003052-.002686.006226-.005615.009155-.008179.004272-.003784.008057-.007202.012329-.011108.003174-.002808.006348-.005615.009521-.008545.00415-.003784.007935-.007202.012207-.010986.003174-.002808.006348-.005737.009521-.008545.003784-.003418.007812-.00708.011597-.010498.003418-.003052.006714-.006104.010132-.009155.003784-.003418.00769-.006958.011475-.010376.003418-.003052.006592-.005981.01001-.009033.003784-.003418.007812-.00708.011475-.010498.003418-.003052.006592-.005859.009888-.008911.004272-.003906.008911-.008179.013184-.011963.005249-.004761.010376-.009521.015625-.014282.004272-.003906.008911-.008179.013184-.011963.003296-.003052.006226-.005737.009644-.008911.003662-.003418.007812-.007202.011597-.01062.003296-.003052.006714-.006104.01001-.009155.003784-.00354.007446-.006836.011108-.010254.003662-.003296.007202-.006592.010742-.009888.003296-.00293.007202-.006592.010498-.009644.00354-.003296.00708-.00647.01062-.009766.003662-.003418.006958-.00647.01062-.009888.00354-.003296.007202-.006592.010742-.009888.003662-.003418.006836-.006348.010498-.009766.00354-.003296.006958-.006348.010498-.009644.003662-.003418.006714-.006348.010498-.009766l.010986-.010254c.003296-.003052.006226-.005859.009521-.008911.003662-.003418.007568-.00708.011353-.010498.000366-.000488.00061-.000732.001099-.001099.01001-.009277.02002-.018799.030029-.028076.003174-.003052.006836-.006348.01001-.009399.003784-.00354.00708-.006592.010742-.010132.003296-.003052.006714-.006226.009888-.009277.003784-.00354.00769-.007202.011353-.010742.003662-.003418.006226-.005737.009888-.009277s.007446-.00708.01123-.01062c.002686-.002563.00647-.006104.009277-.008789.003906-.003662.007568-.007202.011475-.010864.003174-.003052.00647-.006104.009644-.009155.003906-.003784.007568-.007202.011475-.010986.002808-.002563.005371-.005127.008179-.00769.004272-.00415.008545-.008179.012817-.012329.002808-.002563.004517-.00415.007202-.006836.004517-.004272.008911-.008423.013428-.012817.001343-.001343.002075-.001953.00354-.003296.01062-.010132.02063-.019897.03125-.030029.001465-.001343.003662-.00354.005005-.004761l.012817-.012451c.002808-.002563.005249-.005005.007935-.007568.003906-.003784.008057-.007812.011963-.011475.003174-.003174.005859-.005737.009155-.008911.003662-.00354.00708-.006958.010742-.010498.003296-.003052.006714-.00647.009888-.009521.003662-.00354.007568-.007324.01123-.010986.003296-.003052.005737-.005493.008911-.008545.00415-.004028.007935-.00769.011963-.011719.002319-.002197.005493-.005249.00769-.007446.004517-.004395.008911-.008667.013428-.013062.001709-.001709.003784-.003784.005615-.005493.004883-.004761.009766-.009521.014526-.014282.001465-.001343.002197-.002197.00354-.003418.017212-.016968.034546-.033813.051636-.050781l.003906-.003906c.004639-.004639.009277-.009155.013916-.013672.002197-.002319.004517-.004517.006714-.006714.004395-.004395.009033-.008911.013428-.013306.001831-.001831.004639-.004639.00647-.006348l.013672-.013672c.001709-.001709.004761-.004639.00647-.00647.004639-.004639.009155-.009033.013672-.013672.001831-.001709.00415-.004028.005981-.005859.004761-.004761.009521-.009521.014282-.014404.001343-.001343.003662-.00354.005005-.004883l.015259-.015259c.000854-.000854.001587-.001587.002441-.002563.018188-.018188.036621-.036743.054688-.055054l.000732-.000732c.005127-.005249.01001-.010132.015259-.015381.001709-.001831.00293-.003174.004761-.004883.004639-.004639.009644-.009766.01416-.014404.001831-.001831.004028-.004028.005737-.005859.004639-.004639.009399-.009521.013916-.01416.002197-.002319.003784-.003906.005981-.006104.004761-.004883.009033-.009155.013794-.014038.002197-.002197.003662-.003784.005859-.006104.004517-.004639.009644-.009766.01416-.014526l.005005-.005005c.004761-.004883.009888-.010132.014648-.015015.001709-.001831.00293-.003174.004761-.004883.005127-.005371.01001-.010254.015137-.015625l.000488-.000488c.017822-.018311.035522-.036743.053223-.055176.000854-.000854.002686-.002686.00354-.003662.004883-.005005.009766-.01001.014648-.015137.001709-.001831.003174-.003418.005005-.005249.004639-.004883.009033-.009399.013794-.014404.001709-.001831.004395-.004517.006104-.006348.004517-.004761.009033-.009399.013428-.01416.001831-.001831.003906-.004028.005737-.005859.004639-.004883.009399-.009888.014038-.014771.001709-.001831.003662-.003784.005371-.005615.004761-.005005.009277-.009766.014038-.014771.002197-.002319.003052-.003174.005249-.005493.004639-.005005.009521-.01001.01416-.015015.001709-.001831.002686-.002808.004395-.004639.01709-.018066.034668-.036621.051758-.05481.000366-.000488,0-.000122.000488-.00061.004883-.005127.009888-.010498.014771-.015747.001709-.001831.003052-.003174.004761-.005127.004761-.004883.009644-.010254.014282-.015259.001831-.001831.003296-.003418.005005-.005249.004639-.004883.009521-.010132.01416-.015137.001709-.001831.003296-.00354.005005-.005371.004761-.005127.009399-.010132.014282-.015381.001709-.001831.003052-.003296.004883-.005127.004639-.005005.009277-.010132.013916-.015137.001709-.001831.003662-.003906.005371-.005859.004883-.005127.009521-.010132.014282-.015259.000854-.000977.001953-.002197.002808-.003052.023315-.025269.046387-.050415.06958-.075684.000854-.000854.001343-.001465.002197-.002319.005005-.005493.009888-.010986.014893-.016357.001343-.001465.00293-.003296.004272-.004761.005005-.005371.009766-.01062.014771-.016113.001221-.001343.002686-.00293.003906-.004395.004761-.005249.009644-.010498.014404-.015747.001587-.001831.003418-.003784.005127-.005615.004517-.005005.009399-.010376.013916-.015381.001221-.001465.003052-.003418.004272-.004761.005005-.005493.009888-.010864.014771-.016357.000854-.000977.002319-.002563.003174-.00354.028687-.031738.057007-.063232.085449-.095215.001709-.001953.002197-.002563.003906-.004395.004517-.005127.009277-.010498.013794-.015625.001709-.001831.003418-.003784.005127-.005615l.01355-.015381c.001709-.001831.00354-.004028.005249-.005859.004517-.005127.008789-.01001.013306-.015015.001709-.001953.003662-.00415.005249-.006104.004761-.005249.009033-.010132.013794-.015503.001587-.001831.002563-.00293.004272-.004883.004883-.005493.009399-.010742.014282-.016235.000854-.000977.002319-.002563.003174-.00354.021851-.024902.044189-.050537.06604-.075562.001221-.001465.002441-.00293.003784-.004395.004761-.005493.009399-.010864.014282-.016357.001221-.001465.002686-.003174.003906-.004639.004761-.005493.009399-.010864.014282-.016357.001587-.001953.002563-.003052.004272-.005005.004639-.005371.009155-.010742.013794-.016113.001343-.001343.003296-.003784.004517-.005127l.013916-.016113c.001221-.001465.003174-.003662.004395-.005127.004761-.005615.009521-.011108.014282-.016602.000854-.000977.001587-.001831.002319-.002808.02832-.032959.056274-.065796.084351-.098877.000854-.000977.001953-.002441.002808-.003418.004883-.005859.009521-.01123.014404-.01709.001221-.001465.002686-.003174.003906-.004639.004395-.005127.009155-.010864.01355-.015991.001709-.001953.003296-.003906.004883-.005859.004639-.005371.008911-.01062.01355-.015991.001587-.001953.002563-.003174.004272-.005127.004517-.005493.009155-.010864.013672-.016357.001221-.001465.00293-.00354.00415-.005005.004883-.005859.009399-.01123.014282-.01709.000366-.000488.000977-.001221.001465-.001587.022705-.027222.045288-.054443.067871-.081787.000366-.000488.000122-.000244.00061-.000732.005005-.006104.009766-.011841.014771-.018066.001221-.001465.002319-.002686.00354-.00415.004639-.005737.009155-.01123.013916-.016968.001221-.001465.002686-.003296.003906-.004761.004517-.005493.009033-.011108.01355-.016602.001221-.001465.003296-.004028.004517-.005493l.01355-.016479c.001221-.001465.002563-.003052.003662-.004639.004761-.005615.009399-.011353.014038-.01709.001221-.001465.002319-.002808.00354-.004395.021484-.026367.042969-.052856.064331-.079346.000366-.000488.001221-.001587.001709-.002075.004639-.005737.008911-.011108.01355-.016968.001221-.001465.003174-.003906.004395-.005371.004028-.005127.008301-.010376.012329-.015381.002075-.002563.003784-.004639.005737-.007202.003906-.004761.007812-.009766.011719-.014648.002075-.002441.00415-.005249.006226-.00769.003662-.004639.00769-.009644.011353-.014282l.006348-.007935c.003906-.004883.007935-.009888.011719-.014771.001587-.002075.00354-.004517.005127-.00647.004272-.005371.008545-.010742.012695-.015991.000854-.000977.002319-.00293.003174-.003906.02063-.026001.041382-.052368.06189-.078491.001099-.001587.002563-.003296.003784-.004883.004028-.005127.008301-.010742.012329-.015869.001587-.001953.003784-.004761.005371-.006714.003784-.004883.007568-.009644.011353-.014648.001953-.002441.004639-.005859.006592-.008423.003662-.004639.007446-.009521.011108-.01416l.005859-.00769c.003906-.004883.007935-.01001.011719-.015015.001953-.002441.003784-.004883.005737-.007446.003784-.004883.007935-.010132.011719-.015015.001587-.002075.00354-.004639.005127-.006714.00415-.005371.008179-.01062.012329-.015991.000854-.000977.001343-.001709.002075-.002686.014771-.019165.029785-.038696.044434-.057861.001587-.001953.002686-.003418.00415-.005493.003906-.005005.007446-.009644.01123-.014648.002319-.003052.004028-.005249.006348-.008301.003784-.004883.007324-.009521.011108-.014526.002319-.003052.003662-.004883.005981-.007935.003784-.005005.007568-.009888.011353-.014893.001953-.002563.003784-.005005.005615-.007446.004028-.005249.00769-.010254.011719-.015381.001831-.002563.00354-.004761.005493-.007202.003662-.005005.007812-.010376.011475-.015381.001953-.002563.003296-.004395.005249-.006958.00415-.005371.008057-.010742.012207-.016113.000732-.001099.002075-.002686.002808-.003784.014771-.019653.029785-.039795.044556-.05957.000854-.000977.001587-.001953.002319-.003052.004028-.005371.008301-.011108.012329-.016602.001587-.001953.003052-.004028.004639-.006104.003662-.005005.00769-.010498.011475-.015503.001831-.002563.003906-.005249.005737-.007812.003784-.005005.007446-.01001.011108-.015015.001953-.002563.003784-.005005.005737-.007568l.010986-.015015c.001953-.002563.004395-.005859.006226-.008423.00354-.004761.007202-.009766.010742-.014526.001831-.002563.004028-.005615.005981-.008179.003662-.005005.007202-.009766.010864-.014771.001831-.002563.003906-.005371.005737-.007935.003906-.005249.007568-.010132.011353-.015381.000732-.001099.001343-.001831.002075-.00293.013794-.018799.027588-.03772.04126-.056641.002197-.003052.003662-.005005.005981-.008179.003418-.004761.006836-.009399.010254-.01416.002197-.003174.004272-.005981.006592-.009033.003296-.004639.006714-.009277.01001-.013916.002197-.003052.004517-.006226.006714-.009399.00354-.004761.006714-.009277.010254-.01416.002197-.003052.00415-.005859.006348-.008911.003418-.004639.006958-.009521.010254-.01416.002197-.003052.00415-.005859.00647-.009033.003418-.004761.006958-.009644.010376-.014526.001831-.002563.004028-.005615.005859-.008179.003662-.005127.00708-.009888.01062-.015015.001831-.002563.003174-.004272.005005-.006958.013306-.018677.026733-.037476.040039-.056274.001099-.001587.002319-.003418.003418-.005005.00354-.004883.007202-.01001.01062-.014893.001831-.002563.004395-.006348.006226-.008911.00354-.004883.006714-.009521.010132-.014404.002197-.003174.003906-.005615.006104-.008667l.010254-.014648c.002197-.003052.004395-.006104.006592-.009277.003174-.004639.006348-.009155.009644-.013794.002197-.003174.004639-.006592.006836-.009766.003174-.004639.006226-.009033.009521-.013672.002563-.003662.004517-.00647.006958-.01001.003296-.004761.006348-.009155.009644-.013916.001831-.002563.003662-.005249.005493-.007812.013428-.019409.026733-.038574.040161-.057983.00061-.001099.001465-.002197.002197-.003174.00354-.005249.00708-.010376.01062-.015503.002197-.003174.00354-.005127.005615-.008301.003418-.004883.006714-.009644.01001-.014526.002197-.003174.00415-.005981.006226-.009155.003296-.004639.006714-.009766.009888-.014404.002197-.003174.004272-.006226.00647-.009399.003052-.004395.00647-.009521.009521-.014038.002197-.003052.004395-.00647.006592-.009644.003418-.004883.00647-.009521.009888-.014526.001709-.002563.004028-.005859.005737-.008545.003418-.004883.006958-.010132.010376-.015137.001709-.002563.003418-.005127.005249-.007812.003662-.005371.007324-.010864.010986-.016235.001099-.001587.001831-.002808.00293-.004395.012939-.019043.025757-.038208.038574-.057251.001709-.002686.003418-.005127.005127-.007812.003296-.004883.00647-.009521.009766-.014526.002075-.003174.00415-.006226.006226-.009399l.009155-.01355c.002441-.003784.004761-.007202.007202-.010864.002808-.004272.005737-.008789.008667-.013062.002441-.003662.004639-.00708.00708-.010742.003052-.004517.005981-.008911.008911-.013428.002441-.003662.004517-.006836.006958-.010498.003052-.004517.006104-.009277.009033-.013794.002197-.003174.004395-.00647.00647-.009644.003174-.004761.006348-.009644.009521-.014404.002075-.003174.003784-.005859.005859-.009033.003296-.005005.006714-.010132.01001-.015137.000977-.001587.001587-.002563.002686-.00415.007812-.011841.015137-.023193.022949-.035156.001709-.002686.00293-.004395.004639-.00708.00293-.004517.006226-.009644.009155-.01416.002441-.003662.004272-.00647.006714-.010132.00293-.004517.006226-.009644.009155-.01416.002075-.003174.004272-.006714.006348-.009888.003174-.004761.006104-.009277.009155-.014038.002441-.003784.004028-.006348.00647-.010132.003052-.004761.006226-.009644.009399-.014404.001953-.003174.004028-.006348.006104-.009521l.009155-.014282c.002075-.003174.004395-.006836.00647-.01001.003052-.004761.006226-.009766.009399-.014648.001709-.002686.003906-.006226.005615-.008911.003296-.005005.006348-.009888.009644-.015015.001709-.002686.004028-.006226.005737-.008911.006348-.010132.012695-.02002.019165-.030151.001709-.002686.00354-.005493.005249-.008179.003052-.004883.005859-.009277.008911-.014038.002075-.003296.00415-.006714.006226-.01001.00293-.004517.005981-.009277.008789-.013916.002075-.003174.004883-.00769.006958-.010864.002686-.004395.005615-.008911.008301-.013184.002075-.003296.005005-.007935.006958-.011108.002808-.004395.005493-.008667.008179-.013062.002808-.004272.004883-.00769.007568-.011963s.005249-.008423.007935-.012817c.002075-.003174.004883-.00769.006836-.010864.00293-.004639.005859-.009399.008789-.013916.002319-.003784.004272-.006836.006592-.01062.002808-.004639.005615-.009033.008423-.013672.002441-.003784.004639-.007446.00708-.01123.002686-.004395.005493-.008911.008179-.013306.002075-.003296.004272-.006836.006226-.01001l.017212-.027832c.002319-.003784.003784-.006104.006104-.009888.002686-.004395.005493-.009033.008179-.013428.002441-.003784.004761-.00769.00708-.011475.002686-.004395.005249-.008423.007812-.012817.002441-.003784.005005-.008057.007324-.011841.002686-.004395.005371-.008667.008057-.013062.002319-.003784.004639-.007812.00708-.011597.002563-.004395.005371-.008789.008057-.013184.002319-.003784.004395-.007324.006714-.01123.002808-.004517.005615-.009155.008423-.013794.002319-.003784.004517-.007446.006836-.01123.002563-.00415.005249-.008789.007812-.012939.002686-.004272.005249-.008545.007812-.012939.002441-.003906.004883-.008057.007202-.011963.003052-.004883.005249-.008545.008179-.013428.003906-.006592.008179-.01355.012085-.020142.00293-.004883.005981-.009888.008911-.014771.002441-.004272.005005-.008423.007446-.012573.002319-.003784.005249-.008789.007568-.012573.002441-.00415.004883-.008301.007446-.012451.002197-.003784.005005-.008545.007324-.012329.002686-.004395.005005-.008301.007568-.012695s.004639-.007935.007324-.012329c.002563-.004395.005005-.008545.00769-.012939.002563-.004395.004395-.007446.006958-.011841.002441-.00415.005127-.008667.007568-.012817.002686-.004395.005005-.008423.007568-.012817.002319-.003906.004883-.008179.007202-.012207.002319-.003784.005371-.009033.007568-.012939.002319-.003906.004761-.008057.00708-.011963.00293-.004883.005859-.009888.008667-.014771.002075-.00354.003906-.006714.005981-.010132.004761-.008301.009521-.016235.014282-.024536.001587-.002686.003296-.005615.004883-.008301.003174-.005493.00647-.01123.009644-.016724.002197-.003662.00415-.00708.006348-.010864.00293-.004883.005493-.009399.008301-.014404.002197-.003662.004517-.00769.006592-.011353.002563-.004395.005493-.009399.008057-.013916.002319-.003906.004272-.007324.006592-.011353.002563-.004395.005371-.009399.007935-.013794.002319-.003906.004639-.008057.006836-.011963.002563-.004395.005127-.008911.00769-.013306.002319-.004028.004395-.00769.006714-.011597.002441-.004517.005493-.009888.008057-.014282.002197-.003662.004272-.007446.006348-.011108.00293-.005005.005737-.009888.008545-.014893.001953-.00354.003906-.006958.005859-.010376.003174-.005493.006104-.01062.009155-.016113.00293-.005005.005981-.010498.008789-.015503.003418-.006104.006958-.012207.010376-.018311.002197-.003784.004272-.007446.006348-.01123.002563-.004395.005371-.009521.007935-.013916.002075-.003784.004395-.007812.00647-.011597.002808-.005005.005249-.009399.008057-.014404.001953-.00354.004272-.00769.006226-.011108.002808-.005005.005005-.008911.007812-.013916.002197-.003906.004517-.008057.006714-.012085.002563-.004395.005127-.009033.007568-.01355.002197-.004028.004517-.007935.006714-.011963.002441-.004395.004883-.008911.007446-.013306l.006592-.012085c.002808-.005005.005249-.009399.008057-.014404.002075-.003784.004028-.007324.006104-.010986.002808-.005005.005737-.010376.008545-.015503.001709-.003174.003662-.006714.005493-.01001.004639-.008423.009155-.016602.013794-.024902.001343-.002563.002563-.004883.003906-.007324.003418-.006226.006714-.012207.010132-.018433.001709-.003296.003784-.006836.005493-.010132.002808-.005005.005615-.010254.008423-.015259.002075-.004028.004028-.007446.006226-.011475.002441-.004517.005005-.009277.007446-.013794.002319-.004272.004517-.008301.006836-.012573.002441-.004517.004761-.008667.007202-.013184.002197-.004028.004272-.007935.00647-.011963.002686-.005005.004883-.009033.007568-.01416.002075-.003784.004395-.007935.006348-.011719.002441-.004517.005249-.009644.00769-.01416.001953-.003784.004028-.007568.006104-.011353.002686-.005005.005493-.010376.008179-.015381.001831-.003296.003784-.00708.005615-.010376.009033-.016846.018188-.034058.027222-.050903.001587-.003052.003296-.006226.004883-.009277.002686-.005127.006104-.011597.008789-.016602.001831-.00354.003784-.007324.005737-.010742.002319-.004639.005371-.010254.00769-.014771.002197-.004028.004028-.007568.006104-.011597.002686-.005127.005127-.009644.007812-.014648.001953-.003784.003906-.007446.005859-.011353.002441-.004517.005249-.009766.007568-.014282.001953-.003784.00415-.007935.006104-.011719.002686-.005127.005127-.009644.007812-.014771.001831-.00354.003784-.007446.005615-.010986.003052-.005615.005493-.010498.008545-.016235.001709-.003296.003174-.006226.004883-.009521.00354-.006714.006836-.013062.010376-.019897.001099-.002075.002075-.004028.003052-.005981.004761-.009155.008789-.016846.013428-.025879.001221-.002319.002441-.004639.00354-.006958.003296-.006226.006592-.012817.009888-.019043.001709-.003296.003418-.006836.005127-.010132.002686-.005127.005371-.010376.008057-.015503.001953-.003906.00415-.008179.006104-.011963.002319-.004517.004883-.009644.007202-.01416.001953-.003784.003906-.00769.005859-.011597.002686-.005127.005005-.009644.007568-.014771.001953-.003784.003784-.007446.005737-.011353.002686-.005127.005249-.010132.007812-.015259.001831-.003662.00354-.006958.005249-.010498.00293-.005737.005249-.010376.008179-.016113.001709-.003296.00354-.00708.005249-.010376.00293-.005737.005859-.011597.008789-.017334.001343-.002808.002808-.005737.004272-.008545.004272-.008667.008423-.016846.012817-.025513.000488-.000977.000732-.001587.001221-.002563l.012207-.024414c.001343-.002808.002808-.005737.004272-.008545.002808-.005737.005737-.011475.008545-.01709.001709-.003662.003784-.007812.005615-.011475.002563-.005127.004883-.009766.007446-.015015.001831-.00354.003662-.007446.005493-.010986.002563-.005249.005127-.010376.00769-.015503.001709-.003662.003418-.00708.005249-.010742.002808-.005737.005127-.010498.007935-.016235.001831-.00354.003296-.00647.005005-.010132.002808-.005737.005127-.010254.007935-.016113.001709-.00354.003418-.006958.005127-.010498.002563-.005249.005371-.010864.007812-.016113.001831-.00354.003418-.006836.005127-.010498.003174-.006348.005615-.011475.008789-.017822.001221-.002563.002808-.005737.004028-.008301.00415-.008667.008179-.01709.012451-.025757.001709-.00354.003418-.007202.005249-.010742.002197-.004639.005127-.010864.007446-.015503.002075-.004395.003784-.008057.005981-.012451l.006592-.013916c.001953-.003784.004028-.008179.005859-.011963.002197-.004639.004761-.01001.006958-.014648.001953-.00415.003906-.008057.005859-.012207.002197-.004639.004395-.009399.006714-.014038.001953-.004028.004028-.008423.005981-.012573.002197-.004639.004272-.008911.00647-.01355.002075-.004395.004028-.008667.006104-.013062.002197-.004639.004517-.009521.006714-.01416.001831-.003906.003784-.007812.005615-.011719.002441-.005249.005127-.010864.007568-.016113.001709-.003662.003296-.006958.005005-.01062.004028-.008667.008057-.017212.012207-.025879.000977-.002075.001953-.004395.00293-.00647.003052-.006348.006226-.013184.009155-.019531l.005493-.011719c.002441-.005127.004639-.010132.00708-.015259.001831-.003906.003662-.00769.005371-.011597.002197-.004639.004761-.01001.006836-.014648.001953-.004272.003906-.008423.005859-.012573.002075-.004639.004272-.009277.00647-.014038.001953-.00415.004028-.008667.005859-.012817.002197-.004639.00415-.008911.006348-.013672.001831-.00415.003906-.008545.005859-.012817.002197-.004639.004395-.009644.006592-.014282.001953-.00415.003662-.008179.005615-.012329.002441-.005249.004395-.009521.006714-.014771.001831-.003906.003662-.007812.005371-.011719.002686-.005859.005127-.01123.007812-.01709.001343-.003052.00293-.00647.004395-.009644.003906-.008789.00769-.016968.011597-.025757.001831-.003906.003662-.008179.005493-.012085.002075-.004639.004395-.009766.00647-.014404.001953-.004272.003906-.008667.005859-.012817.002075-.004761.00415-.009277.006226-.014038.001831-.00415.003906-.008789.005859-.012939.002075-.004761.004028-.009155.006104-.013794.001953-.004272.003784-.008545.005737-.012695.002075-.004761.004272-.009521.006348-.014282.001831-.00415.003784-.008545.005615-.012695.002075-.004761.00415-.009277.006226-.014038.001831-.00415.003784-.008545.005737-.012817.002075-.004639.004272-.009644.006348-.014404.001831-.00415.00354-.008057.005371-.012207.002319-.005371.005127-.011597.007446-.016846.001465-.003418.002808-.006348.004272-.009766.003052-.00708.006226-.014282.009399-.021362.002197-.005249.004761-.010864.006958-.016113.002319-.005249.004517-.010254.006836-.015625.001831-.00415.00354-.008179.005371-.012329.002075-.004761.004272-.009644.006226-.014404.001831-.00415.003784-.008667.005615-.012939.002075-.004639.00415-.009277.006104-.014038.001831-.004272.003906-.009033.005737-.013184s.003906-.009155.005737-.013306c.001953-.004639.003906-.009277.005981-.014038.001831-.004028.003784-.008667.005493-.012817.002075-.004761.004028-.009399.006104-.014038.001709-.00415.00354-.008179.005249-.012329.002197-.005005.00415-.009644.006226-.014648.001831-.00415.00354-.008179.005249-.012329.002197-.005005.00415-.009644.006226-.014648.001343-.003052.002563-.005981.003784-.008911.005859-.013794.011597-.027222.017334-.041016.000244-.00061.00061-.001343.000854-.001953.002319-.005493.004517-.010742.006836-.016357.001465-.00354.003052-.00708.004517-.01062.002197-.005371.004272-.010376.006592-.015625.001465-.003662.003174-.00769.004639-.011353.002075-.005005.004272-.010132.006348-.015137.001465-.00354.003418-.008301.005005-.011841l.006226-.015015c.001465-.003662.00354-.008545.005005-.012085.001953-.004883.004028-.009766.005981-.014648.001465-.00354.003662-.008789.005127-.012329.001953-.004883.004272-.010254.006226-.015015.001465-.003662.003174-.007568.004639-.01123.002197-.005249.004272-.010498.00647-.015869.001221-.00293.002686-.00647.003906-.009399.008423-.020752.016846-.04126.025269-.062012.000977-.002441.001953-.005005.00293-.007446.002319-.005615.004639-.01123.006836-.016846.001221-.003052.003052-.007446.004272-.010376.002075-.005371.004395-.011108.006592-.016479.001465-.00354.002686-.006714.00415-.010254.002197-.005615.004272-.010742.006592-.016357.001343-.00354.00293-.007446.004395-.010986.002197-.005615.004272-.010742.00647-.016357.001221-.00293.002808-.006958.004028-.009888.002197-.005737.004517-.011475.006714-.01709.001221-.003052.002686-.006714.003906-.009644l.006958-.017578c.000977-.002441.002075-.005371.003052-.007812.002563-.006348.005127-.012817.007568-.019287l.000977-.002441c.006348-.016113.012817-.032349.019043-.048462.000244-.00061.000122-.000244.000366-.000854.002441-.006104.004883-.012573.007324-.018799.001099-.00293.002075-.005249.003174-.008301.002075-.005371.004517-.011353.006592-.016724.001343-.003662.002686-.007202.00415-.010742.002075-.005371.004272-.01123.006348-.016602.001465-.00354.002686-.006714.004028-.010254.002197-.005737.004272-.011108.00647-.016724.001343-.003662.002563-.006714.003906-.010254.002197-.005737.004517-.011719.006714-.017456.001099-.00293.002197-.005859.003418-.008911.002197-.005981.004639-.012207.006836-.018066.001221-.003052.001953-.005005.003052-.007935.002563-.006836.005005-.013184.007568-.019897l.00061-.001587c.009033-.023682.018188-.047852.0271-.071655.00061-.001831.001343-.00354.001953-.005371.002441-.00647.004883-.013062.007324-.019531.000977-.002441.001831-.004883.002808-.007324.002319-.006226.004761-.012695.006958-.018921.001221-.003052.002075-.005371.003174-.008423.002197-.005981.004639-.012573.006836-.018555.001221-.00293.002075-.005249.003174-.008301.002319-.006226.004639-.012573.006958-.018799.000854-.002441.002075-.005859.003052-.008179.002319-.006592.004639-.012817.00708-.019287.00061-.001831.001587-.004517.002319-.006348.002563-.00708.005127-.014038.00769-.021118.000488-.001221.000854-.002197.001221-.003418.011963-.032593.023926-.065674.035645-.098267.000488-.001221.000977-.002563.001465-.003784.002441-.006836.005005-.014282.007446-.020996.000854-.002441.001465-.004028.002319-.00647.002441-.006836.004639-.012939.00708-.019775.000854-.002441.001831-.005005.002686-.007446.002319-.006592.004761-.01355.00708-.02002.00061-.001831.001709-.004761.002319-.006592.002441-.006836.004883-.013794.007324-.020508.00061-.001831.001465-.00415.002075-.005981.002563-.00708.005127-.014648.00769-.021729.000244-.00061.000854-.002319.000977-.00293.014771-.04187.029419-.084106.043823-.125977.000488-.001221.000977-.002686.001343-.003906.002563-.007446.005127-.014893.00769-.022217.00061-.001831.000977-.003052.001587-.004883.002563-.007324.005005-.014282.007446-.021729.00061-.001831.001221-.00354.001831-.005371.002563-.007446.005005-.014526.007446-.021973.000488-.001221.001221-.003296.001587-.004517.002563-.00769.005127-.015137.00769-.022827.000244-.00061.000122-.000244.000366-.000854l-18.555298-6.269287c.031982-.09314.043457-.178711.043457-.228394,0-.039551-.00708-.100708-.025635-.170166l19.13208-4.183472c-.18396-.840942-.419922-1.662109-.704468-2.460571-.000244-.00061-.00061-.001587-.000854-.002197-.00293-.008179-.005859-.016235-.008667-.024414-.000244-.00061-.000366-.000732-.000488-.001343-.003052-.008423-.006104-.016724-.009033-.025146l-.000122-.000122c-.018433-.051147-.036987-.102417-.055908-.153442-.000366-.001221-.000732-.002197-.001221-.003418-.00293-.007812-.005615-.015015-.008423-.022827-.000488-.001221-.000854-.002319-.001343-.00354-.002808-.007568-.005615-.015015-.008423-.022583-.000366-.001221-.000977-.002808-.001465-.004028-.002808-.007568-.005737-.015259-.008545-.022827-.000122-.00061-.000732-.001953-.000854-.002563-.003052-.008057-.005981-.015747-.009033-.023804-.000122-.00061,0-.000244-.000244-.000854-.012573-.033447-.025146-.066772-.037842-.100098-.000488-.001221-.000732-.001953-.001221-.003174-.002686-.006958-.005493-.014404-.008179-.021484-.000732-.001709-.001465-.00354-.002075-.005371-.002563-.006714-.005127-.013306-.00769-.02002-.000977-.002441-.001953-.004883-.002808-.007202-.002441-.00647-.005005-.013062-.007568-.019531-.000854-.002319-.001709-.004639-.002686-.00708-.002441-.006348-.005005-.012939-.007446-.019287-.000977-.002441-.001953-.005005-.00293-.007446-.002563-.006714-.005127-.013306-.00769-.019897-.000488-.001221-.000854-.002197-.001343-.003418-.012451-.03186-.02478-.063354-.037354-.095215-.000732-.001709-.001587-.004028-.002319-.005859-.002563-.006348-.004883-.012085-.007324-.018555-.001221-.00293-.002319-.005615-.003418-.008545-.002441-.005859-.004761-.011841-.00708-.0177-.001221-.00293-.002563-.00647-.003784-.009399-.002197-.005615-.004395-.011108-.006592-.016724-.001221-.00293-.003052-.007568-.004272-.01062-.002319-.005615-.004395-.010864-.006714-.016479-.001099-.00293-.002808-.00708-.004028-.01001-.002197-.005615-.004395-.011108-.006714-.016724-.001221-.00293-.002686-.006836-.003906-.009888-.002319-.005493-.004761-.011597-.006958-.017212-.000732-.001831-.001953-.004639-.002686-.006348-.005615-.01416-.011353-.028076-.01709-.042114l-.001221-.003052c-.002319-.005615-.004517-.011108-.006836-.016602-.001465-.003662-.00293-.007202-.004395-.010742-.002075-.005005-.003906-.009644-.005981-.014648-.001709-.00415-.00354-.008545-.005249-.012695-.001831-.004517-.003784-.009155-.005615-.013672-.001709-.00415-.004028-.009644-.005737-.013794-.001831-.004517-.003662-.008789-.005493-.013306-.001709-.00415-.003784-.009155-.005493-.013306-.001953-.004761-.003906-.009277-.005859-.014038-.001709-.00415-.003662-.008789-.005371-.012939-.001953-.004761-.003906-.009277-.005859-.014038s-.003418-.008057-.005371-.012817c-.001953-.004517-.004028-.009521-.005859-.014038-.001953-.004761-.003662-.008667-.005615-.013428-.00415-.009766-.007935-.018921-.012085-.028687-.001465-.00354-.002808-.006592-.004272-.010132-.002197-.005005-.00415-.009644-.006226-.014648-.001831-.00415-.00354-.008301-.005249-.012451-.001831-.00415-.003906-.008911-.005615-.013184-.002075-.004761-.004028-.009277-.005981-.014038-.001953-.004395-.003662-.008545-.005615-.013062-.001953-.004639-.003906-.009155-.005981-.013916-.001709-.00415-.003662-.008667-.005493-.012817-.001953-.004761-.003906-.009277-.005981-.013916-.001953-.004517-.003784-.008789-.005615-.013306-.002075-.004639-.00415-.009521-.006226-.014282-.001709-.003906-.00354-.008057-.005249-.012085-.002197-.005249-.004517-.010498-.006836-.015869-.001709-.003906-.003052-.007202-.004761-.011108-.003174-.00708-.005615-.012939-.008789-.02002-.000854-.002075-.001831-.004395-.002808-.00647-.003784-.008911-.00769-.017822-.011597-.026611-.001099-.002563-.002319-.005371-.00354-.007935-.002808-.00647-.005615-.013062-.008423-.019531-.001343-.002808-.002563-.005737-.003906-.008545-.002563-.005981-.005249-.012085-.007812-.018066-.001587-.003418-.003174-.006958-.004639-.010376-.002319-.005249-.005005-.011353-.007324-.016602-.001709-.003662-.003052-.006836-.004639-.010498-.002686-.005859-.004761-.010742-.007446-.016602-.001465-.003418-.003052-.006958-.004517-.010254-.002319-.005371-.005371-.012085-.00769-.017334-.001465-.003174-.00293-.00647-.004272-.009644-.002686-.005859-.005737-.012573-.008301-.018433-.001221-.002563-.002563-.005615-.003662-.008301-.003418-.007568-.00647-.014404-.01001-.021973-.000732-.001831-.001343-.003052-.002197-.004883-.00415-.009399-.007935-.017822-.012207-.027222-.000366-.000732-.000977-.002197-.001343-.00293-.003418-.00769-.007324-.016235-.010742-.023804-.001099-.002441-.002319-.004883-.003296-.007202-.00293-.00647-.006104-.013306-.009033-.019775-.001343-.00293-.002441-.005493-.003784-.008301-.00293-.00647-.005615-.012207-.008545-.018677-.001221-.002808-.002563-.005615-.003906-.008545-.002686-.005859-.005737-.012695-.008423-.018555-.001343-.002808-.002808-.005859-.004028-.008789-.003052-.006348-.005737-.012329-.008667-.018677-.001221-.002686-.002441-.005249-.00354-.007812-.00354-.007568-.006226-.013428-.009766-.020996-.000854-.001831-.001831-.003906-.002686-.005737-.012573-.027344-.025269-.054443-.038086-.081665-.00061-.001343-.000854-.002075-.001465-.003296-.00354-.007568-.007446-.015747-.010986-.023315-.000977-.002075-.001831-.004028-.002808-.006104-.00354-.007446-.00647-.01355-.01001-.021118l-.00293-.006226c-.003296-.006958-.006348-.013428-.009644-.020386-.001221-.002563-.002197-.004639-.003418-.007202-.003296-.006958-.006348-.013306-.009644-.020264-.000977-.002075-.002075-.004395-.003052-.00647-.003662-.007568-.006958-.014648-.01062-.022095-.00061-.001343-.001465-.003052-.002075-.004395-.012939-.0271-.026123-.054688-.039307-.081787l-.000854-.001709c-.003906-.008179-.008179-.016846-.012085-.024902-.000732-.001587-.001465-.003052-.002197-.004639-.003662-.007446-.007202-.014771-.010864-.022339-.000854-.001709-.001587-.003296-.002441-.005127-.003418-.006836-.007446-.015015-.010864-.021973-.000854-.001709-.001587-.003296-.002441-.005005-.003906-.008057-.007446-.015381-.011475-.023438-.000488-.000977-.000854-.001831-.001343-.002808-.004028-.008057-.008545-.017212-.012451-.025269-.000244-.000488-.00061-.001221-.000854-.001831-.018188-.036743-.035889-.072388-.054199-.109009l-.000977-.001953c-.004028-.008057-.008545-.016968-.012573-.025024l-.001343-.002686c-.004028-.008057-.008057-.015991-.012085-.024048-.000488-.000977-.001221-.002441-.001831-.003418-.004028-.008057-.008423-.016724-.012451-.02478-.000244-.000488-.00061-.001099-.000854-.001587-.02771-.05481-.05542-.108765-.083618-.16333l-.000122-.000244c-.004639-.009033-.009033-.017456-.013794-.026489l-.00061-.001221c-.004761-.009155-.009033-.017334-.013672-.026367-.000122-.000244-.000122-.000122-.000244-.000366-.033203-.063599-.06604-.125854-.099854-.188965-.000244-.000488-.000732-.001221-.000977-.001709-.004517-.008545-.009155-.01709-.013672-.025513-.000122-.000244-.000366-.000854-.00061-.001099-.033813-.06311-.067505-.125-.102051-.187622-.000122-.000244-.000488-.000854-.00061-.001099-.927246-1.682617-2.08606-3.21875-3.434082-4.566895l-.000244-.000122c-.22229-.22229-.449585-.439331-.681885-.651123l-.000244-.000244c-.00708-.006348-.014282-.012939-.02124-.019409-.000732-.000488-.001587-.001343-.002197-.001953-.00708-.006348-.013794-.012451-.020752-.018799-.000488-.000366-.000732-.00061-.001099-.000977-.052246-.047241-.104736-.09436-.157349-.141113-.00061-.00061-.001099-.000977-.001831-.001587-.00708-.006348-.01416-.012573-.021362-.018921l-.000732-.000732c-.007568-.006714-.014893-.013062-.022461-.019775h0c-.038086-.033569-.07605-.066772-.114258-.100098-.000244-.000122-.000488-.000366-.000732-.00061-.007202-.006226-.01416-.012207-.021362-.018433-.000854-.000854-.001709-.001587-.002563-.002319-.006714-.005737-.014038-.012085-.020752-.017944-.00061-.000488-.000977-.000732-.001587-.001343-.00769-.006592-.014282-.012329-.021973-.018921-.000122-.000122-.000366-.000366-.00061-.000488-.038452-.033081-.076538-.065674-.115234-.098511-.000122-.000122-.00061-.000488-.000854-.000732-.007202-.006104-.01416-.011963-.021362-.018066-.000854-.000732-.001953-.001709-.00293-.002441-.006714-.005737-.013184-.01123-.02002-.016968-.001099-.000854-.001709-.001465-.002808-.002441-.006836-.005615-.013916-.011597-.02063-.017334-.000732-.00061-.001465-.001221-.002075-.001709-.03894-.032715-.076416-.064087-.115601-.096436-.000854-.000732-.001343-.001099-.002197-.001831-.006836-.005615-.013062-.010864-.019897-.016479-.001587-.001221-.003174-.002563-.004639-.003784-.005859-.004883-.012695-.010498-.018555-.015259-.001343-.001099-.00293-.002441-.004272-.00354-.006836-.005615-.012817-.010498-.019653-.016113-.001099-.000977-.001831-.001465-.00293-.002441-.007324-.005981-.015015-.012329-.022461-.018311l-.000122-.000122c-.030884-.025391-.0625-.051025-.093628-.076172-.000854-.000732-.001953-.001587-.00293-.002319-.006836-.005615-.012817-.010376-.019775-.015991-.001465-.001221-.003052-.002441-.004639-.003662-.005859-.004761-.012817-.010376-.018677-.015137-.001587-.001221-.002686-.002075-.00415-.003296-.006958-.005615-.012939-.010376-.019897-.015869-.001099-.000977-.002075-.001709-.003174-.002563-.006958-.005615-.014526-.011597-.021484-.017212-.000366-.000244-.001099-.000854-.001587-.001221-.031738-.025391-.0625-.049805-.09436-.074951-.000854-.00061-.001343-.000977-.002197-.001709-.006958-.005493-.01355-.01062-.020508-.016113-.001343-.001099-.003296-.002563-.004639-.00354-.003418-.002808-.006836-.005493-.010376-.008179l-12.083862,15.402588c-.101685-.072754-.221558-.113892-.317139-.132446L23.972778,1.149902c-.017212-.002197-.034546-.004272-.051758-.006226l-.002197-.000366-.027832-.003296c-.002319-.000244-.004761-.000488-.00708-.000732-.008667-.001099-.01709-.002075-.025635-.003052-.00293-.000366-.005859-.00061-.008911-.000977-.005859-.000732-.011597-.001343-.017578-.002075-.003784-.000366-.007568-.000854-.011475-.001343l-.020874-.002319c-.005127-.00061-.010132-.001099-.015137-.001709-.003418-.000366-.006348-.000732-.009644-.001099-.008911-.000977-.017822-.001953-.026855-.00293-.002686-.000366-.004395-.000488-.00708-.000854-.476074-.052368-.957153-.088379-1.442505-.1073-.001343,0-.001709,0-.003052-.000122-.011719-.000366-.023438-.000854-.035156-.001343q-.001343,0-.002686-.000122c-.018066-.00061-.036133-.001221-.054077-.001831-.003418-.000122-.006226-.000244-.009644-.000366-.008423-.000244-.016846-.00061-.025269-.000854-.004028-.000122-.006714-.000244-.010864-.000366-.005127-.000122-.010376-.000244-.015625-.000488-.007446-.000244-.013306-.000366-.020874-.00061l-.01355-.000366c-.004761-.000244-.009155-.000366-.013916-.000488-.006592-.000122-.013062-.000366-.019653-.000488-.004761-.000122-.010742-.000366-.015503-.000488-.004272-.000122-.008545-.000244-.012939-.000366-.007446-.000122-.014771-.000366-.022217-.000488l-.012817-.000366c-.005371-.000122-.01123-.000244-.016724-.000366-.004883-.000122-.009888-.000244-.014893-.000366-.006836-.000244-.012695-.000366-.019531-.000488-.003662-.000122-.007202-.000122-.010864-.000244-.008179-.000244-.016235-.000366-.024414-.000488-.003174-.000122-.006348-.000122-.009521-.000244-.006836-.000122-.014893-.000244-.021606-.000366-.003052-.000122-.005981-.000122-.008911-.000244-.008179-.000122-.015747-.000244-.023926-.000366-.002808-.000122-.005737-.000122-.008423-.000244-.008179-.000122-.018066-.000244-.026245-.000366-.002563-.000122-.005127-.000122-.00769-.000122-.008179-.000122-.016846-.000244-.025024-.000366-.001709,0-.003418-.000122-.005249-.000122-.008789-.000122-.016846-.000244-.025757-.000366-.002686,0-.005493,0-.008179-.000122-.008911,0-.017944-.000122-.026733-.000244-.002319,0-.004395-.000122-.006714-.000122-.008789-.000122-.018066-.000122-.026978-.000244h-.002319c-.009521-.000122-.019043-.000244-.028564-.000244-.001953,0-.003784-.000122-.005859-.000122-.009521,0-.018311-.000122-.027832-.000122-.002197,0-.004395-.000122-.00647-.000122-.008911,0-.018677-.000122-.027588-.000122h-.002197c-.009521,0-.019043-.000122-.028687-.000122h-.005493c-.009521,0-.018555,0-.028198-.000122h-.035156v19.574707h0v.690308h0V1h0ZM21.463745,21.27417l-.105225-.169434.134277.162598-.000488.00061.000854-.000122.001465.001709v-.002075h0v.002075h0v.015869l-.002563.000977.002563.000854v.002441l-.006104-.002075.00354-.001221-.011108-.003906.011353-.014526-.028564.006226h0ZM21.533813,21.258911l.082031-.017944-.094116.034546.000244-.001831.011841-.014771h0ZM21.518921,21.297852l.000244-.001953.143555.050537-.143799-.048584h0Z"/><path class="cls-2" d="M21.287354,1c11.204468,0,20.287354,9.083008,20.287354,20.287354,0,11.204468-9.082886,20.287415-20.287354,20.287415-11.204346,0-20.287354-9.082947-20.287354-20.287415C1,10.083008,10.083008,1,21.287354,1M21.287354,0C9.549438,0,0,9.549438,0,21.287354s9.549438,21.287415,21.287354,21.287415,21.287354-9.5495,21.287354-21.287415S33.025269,0,21.287354,0h0Z"/></svg>