<?xml version="1.0" encoding="UTF-8"?><svg id="Ebene_1" xmlns="http://www.w3.org/2000/svg" width="42.574829" height="42.574707" viewBox="0 0 42.574829 42.574707"><defs><style>.cls-1{fill:#043854;}.cls-1,.cls-2,.cls-3{stroke-width:0px;}.cls-2{fill:#fff;}.cls-3{fill:#e498b1;}</style></defs><path class="cls-3" d="M21.287231,42.074585C9.825317,42.074585.500122,32.74939.500122,21.287476.500122,9.825073,9.825317.499878,21.287231.499878s20.787109,9.325195,20.787109,20.787598c0,11.461914-9.325195,20.787109-20.787109,20.787109Z"/><path class="cls-2" d="M21.287476,1c11.204346,0,20.287354,9.083008,20.287354,20.287354s-9.083008,20.287354-20.287354,20.287354c-11.204468,0-20.287476-9.083008-20.287476-20.287354S10.083008,1,21.287476,1M21.287476,0C9.549561,0,0,9.549438,0,21.287354s9.549561,21.287354,21.287476,21.287354,21.287354-9.549438,21.287354-21.287354S33.025391,0,21.287476,0h0Z"/><polygon class="cls-1" points="18.237647 40.123176 17.36987 25.113265 2.359959 24.245491 34.930724 7.5524 18.237647 40.123176"/></svg>