<?xml version="1.0" encoding="UTF-8"?><svg xmlns="http://www.w3.org/2000/svg" width="42.574829" height="42.574707" viewBox="0 0 42.574829 42.574707"><defs><style>.cls-1{fill:#043854;}.cls-1,.cls-2,.cls-3{stroke-width:0px;}.cls-2{fill:#fff;}.cls-3{fill:#e498b1;}</style></defs><g id="Ebene_1"><path class="cls-3" d="M21.287231,42.074646C9.825317,42.074646.500122,32.749451.500122,21.287537.500122,9.825134,9.825317.499939,21.287231.499939s20.787109,9.325195,20.787109,20.787598c0,11.461914-9.325195,20.787109-20.787109,20.787109Z"/><path class="cls-2" d="M21.287476,1c11.204346,0,20.287354,9.082947,20.287354,20.287354s-9.083008,20.287354-20.287354,20.287354c-11.204468,0-20.287476-9.082947-20.287476-20.287354S10.083008,1,21.287476,1M21.287476,0C9.549561,0,0,9.5495,0,21.287354s9.549561,21.287354,21.287476,21.287354,21.287354-9.5495,21.287354-21.287354S33.025391,0,21.287476,0h0Z"/></g><g id="Ebene_3"><polygon class="cls-1" points="21.080236 14.50048 29.792705 3.195727 26.386428 17.055808 40.656976 16.819092 27.69695 22.797577 36.779563 33.807151 24.024951 27.402118 21.080236 41.367548 18.135522 27.402118 5.380909 33.807151 14.463522 22.797577 1.503496 16.819092 15.774044 17.055808 12.367767 3.195727 21.080236 14.50048"/></g></svg>