<?xml version="1.0" encoding="UTF-8"?><svg xmlns="http://www.w3.org/2000/svg" width="42.574707" height="42.574768" viewBox="0 0 42.574707 42.574768"><defs><style>.cls-1{fill:none;stroke:#043854;stroke-miterlimit:10;stroke-width:5px;}.cls-2{fill:#e9fc00;}.cls-2,.cls-3{stroke-width:0px;}.cls-3{fill:#fff;}</style></defs><g id="Ebene_1"><path class="cls-2" d="M21.287476,42.074707C9.825562,42.074707.500366,32.749512.500366,21.287598.500366,9.825195,9.825562.5,21.287476.5s20.787109,9.325195,20.787109,20.787598c0,11.461914-9.325195,20.787109-20.787109,20.787109Z"/><path class="cls-3" d="M21.287354,1c11.204468,0,20.287354,9.083008,20.287354,20.287415,0,11.204346-9.082886,20.287354-20.287354,20.287354-11.204346,0-20.287354-9.083008-20.287354-20.287354C1,10.083008,10.083008,1,21.287354,1M21.287354,0C9.549438,0,0,9.5495,0,21.287415c0,11.737854,9.549438,21.287354,21.287354,21.287354s21.287354-9.5495,21.287354-21.287354C42.574707,9.5495,33.025269,0,21.287354,0h0Z"/></g><g id="Ebene_3"><line class="cls-1" x1="9.894859" y1="17.170489" x2="32.679925" y2="17.170489"/><line class="cls-1" x1="21.287392" y1="5.192284" x2="21.287392" y2="37.229882"/></g></svg>