<?xml version="1.0" encoding="UTF-8"?><svg id="Ebene_1" xmlns="http://www.w3.org/2000/svg" width="42.574707" height="42.574768" viewBox="0 0 42.574707 42.574768"><defs><style>.cls-1{fill:#043854;}.cls-1,.cls-2,.cls-3{stroke-width:0px;}.cls-2{fill:#e9fc00;}.cls-3{fill:#fff;}</style></defs><circle class="cls-1" cx="21.287403" cy="21.287393" r="20.287361"/><path class="cls-2" d="M21.287354,1h-.030762c-.003662,0-.00708,0-.01062.000122h-.032593c-.006104,0-.012695.000122-.018921.000122h-.012573c-.006836.000122-.011841.000122-.018677.000122-.004395,0-.008301.000122-.012817.000122-.006104,0-.012451.000122-.018677.000122-.00415,0-.007935,0-.012085.000122-.006836,0-.013428.000122-.020264.000122-.003662,0-.007324.000122-.010864.000122-.020508.000244-.041016.000366-.061401.000732-.003662,0-.006836,0-.010376.000122-.006836,0-.013916.000122-.020752.000244-.003906,0-.007935.000122-.011841.000122-.006104.000122-.012817.000244-.018921.000366-.004272,0-.008423.000122-.012573.000122-.006836.000122-.012085.000244-.018799.000366-.004272.000122-.008301.000122-.012451.000244-.006104.000122-.012451.000244-.018555.000244-.00415.000122-.008301.000244-.012451.000244-.006836.000122-.013672.000366-.020508.000488-.003296,0-.006958.000122-.010254.000122-.010132.000244-.020264.000488-.030518.000732-.000244,0,.000244,0-.000122,0-.010132.000244-.020752.000488-.030884.000732-.00354,0-.006592.000122-.010132.000244-.006836.000122-.013672.000244-.020386.000488-.004517.000122-.008301.000122-.012817.000244-.006104.000244-.012207.000366-.018311.000488l-.012451.000366c-.006836.000244-.011841.000366-.018677.000488-.00415.000122-.008423.000244-.012573.000366-.006104.000244-.012817.000366-.018921.00061-.00415.000122-.007568.000244-.011719.000366-.006836.000122-.013428.000366-.020264.00061-.00354.000122-.007202.000244-.010742.000366-.010254.000244-.019409.00061-.029663.000854l-.000732.000122c-.010132.000244-.02063.00061-.030762.000977-.003296.000122-.006958.000244-.010254.000366-.006714.000244-.013794.000488-.020508.000732-.00415.000122-.008179.000366-.012329.000488-.006104.000244-.011963.000366-.018066.00061-.00415.000244-.009033.000366-.013184.000488l-.018311.000732c-.00415.000244-.008301.000366-.012451.000488-.006104.000244-.012329.000488-.018433.000732-.00415.000244-.008301.000366-.012451.00061-.006836.000244-.013184.000488-.019897.000732-.00354.000244-.00708.000366-.01062.000488-.009521.000366-.018188.000854-.02771.001221-.000854,0-.001953.000122-.002808.000122-.010132.000488-.02063.000977-.030762.001343-.003052.000122-.005859.000366-.008911.000488-.006714.000244-.015015.00061-.021729.000977-.00415.000244-.007446.000366-.011597.00061-.006104.000244-.012939.00061-.019043.000854-.00415.000244-.008179.000366-.012329.00061-.006104.000366-.012329.00061-.018433.000977-.004028.000122-.008667.000366-.012817.00061-.006104.000366-.011841.00061-.017944.000977-.004395.000122-.008301.000366-.012817.00061-.006714.000366-.012329.00061-.019165.000977-.003784.000244-.007324.000488-.01123.00061-.009399.000488-.018066.000977-.027466.001587-.000854,0-.001831,0-.002686.000122-.010132.000488-.02063.001099-.030762.001709-.00293.000122-.006226.000366-.009155.000488-.006714.000366-.014648.000854-.021362.001221-.003906.000244-.00769.000488-.011475.000732-.006714.000366-.012573.000732-.019287.001099-.003784.000244-.008057.000488-.011841.000732-.006714.000488-.012207.000732-.018921.001221-.00415.000244-.008179.000488-.012329.000732-.005981.000366-.012451.000732-.018555.001099-.003784.000244-.008057.00061-.011963.000854-.006714.000366-.013428.000854-.020142.001221-.00354.000244-.006836.000488-.010376.000732-.009399.00061-.018066.001099-.027466.001709-.000977.000122-.001831.000122-.002686.000244-.010132.00061-.020874.001343-.031006.002075-.002319.000122-.005005.000366-.007324.000488-.007324.000488-.015503.001099-.022827.001587-.003906.000244-.007812.00061-.011719.000854-.006714.000488-.012085.000854-.018799.001343-.003784.000244-.008301.000488-.012085.000854-.006104.000366-.012695.000854-.018677.001343-.00415.000244-.008179.00061-.012329.000854-.005981.000488-.012207.000854-.018311.001343-.00415.000366-.008301.00061-.012329.000977-.006104.000366-.012695.000854-.018677.001343-.003906.000366-.008057.00061-.011841.000854-.008789.000732-.016113.001343-.024902.001953-.001709.000122-.003296.000244-.005127.000366-.01001.000854-.020386.001587-.030396.002441-.002686.000244-.005859.000488-.008423.00061-.007446.00061-.014771.001221-.022095.001831-.003784.000244-.007202.00061-.010986.000854-.006714.00061-.012573.001099-.019165.001587-.003906.000366-.008301.000732-.012207.000977-.005981.000488-.012817.001099-.018799.001587-.003906.000366-.007935.000732-.011719.000977-.005981.000488-.013062.001099-.019043.001587-.003784.000366-.00769.000732-.011475.000977l-.020142.001831c-.00354.000244-.006836.00061-.010376.000854-.008057.000732-.016479.001465-.024414.002197-.002075.000122-.003784.000244-.005737.000488-.010742.000977-.019897.001709-.030518.002686-.002319.000244-.004761.000488-.00708.000732-.008057.000732-.015137.001343-.023071.002075-.003906.000366-.007446.00061-.01123.000977-.006592.00061-.012329.001221-.019043.001831-.00415.000366-.007935.000732-.011963.001099-.006104.00061-.012329.001099-.018311.001709-.004395.000366-.008545.000854-.012939.001221-.005981.00061-.011597.001099-.017578.001709-.00415.000366-.008179.000732-.012329.001221-.006592.00061-.012451.001221-.019165.001831-.003784.000366-.007446.000732-.01123.001099-.007935.000854-.015747.001587-.023682.002319-.002075.000244-.00415.000488-.006226.00061-.01001.001099-.019775.002075-.029785.003052-.00354.000366-.007324.000732-.010864.001099-.005981.00061-.013428.001343-.019409.001953-.004395.000488-.007935.000854-.012329.001343l-.017944.001831c-.004028.000488-.008423.000854-.012451.001343-.005981.00061-.012207.001221-.018188.001953-.00415.000366-.008301.000854-.012329.001221-.005981.00061-.011841.001343-.017822.001953-.00415.000366-.008545.000854-.012573.001343-.006714.000732-.011719.001221-.018311.001953-.00415.000488-.007812.000854-.011841.001343-.008057.000854-.015137.001709-.023071.002563-.002319.000244-.004272.000488-.006592.000732-.010742.001099-.019653.002197-.030273.003296-.002563.000366-.005127.00061-.00769.000977-.007935.000854-.01416.001587-.022095.002441-.00415.000488-.007812.000977-.011963.001343-.006592.000854-.011597.001343-.018188.002197-.00415.000366-.008301.000854-.012329.001343-.005981.000732-.011963.001465-.017944.002075-.004028.000488-.008667.001099-.012695.001587-.005981.00061-.011719.001343-.0177.002075-.004028.000488-.008179.000977-.012207.001465-.006592.000732-.012329.001465-.018921.002197-.003784.000488-.007446.000977-.011108.001343-.008057.000977-.015015.001831-.022949.002808-.002319.000244-.004639.00061-.006958.000854-.01062.001343-.019287.002319-.029907.003662-.002563.000366-.005493.000732-.008057.000977-.007324.000977-.014648.001831-.021973.002808-.004028.000488-.007446.000977-.011475.001465-.006592.000854-.011475.001465-.018188.002197-.004028.00061-.008667.001221-.012695.001709-.005981.000732-.011963.001465-.017822.002197-.004028.00061-.008057.001099-.012085.001587-.005981.000732-.012329.001587-.018311.002441-.003784.000488-.008057.000977-.011841.001465-.006592.000854-.012329.001587-.018921.002563-.003784.000488-.007324.000854-.011108.001465-.007324.000854-.014404.001831-.021729.002808-.002808.000366-.005249.000732-.008179.001099-.009888.001343-.019897.002686-.029785.004028-.002197.000244-.004517.00061-.006836.000854-.007935.001099-.015137.002075-.023071.003174-.003784.000488-.006714.000977-.010498.001465-.006592.000854-.012939.001709-.019531.002686-.003662.000488-.007568.001099-.011353.001587-.005981.000854-.012451.001709-.018311.002563-.004028.000488-.008545.001099-.012573.001709-.005981.000854-.011841.001709-.0177.002563-.003784.000488-.008179.001099-.011841.001587-.006592.000977-.012329.001831-.018921.002686-.003784.00061-.007446.001099-.01123.001587-.007202.001099-.014893.002197-.022095.003296-.002319.000244-.005127.00061-.007446.000977-.010498.001587-.019165.002808-.029663.004395-.002563.000366-.005615.000732-.008179.001221-.007202.000977-.014404.002075-.021606.003052-.003662.00061-.00769.001221-.011475.001709-.005859.000977-.012329.001831-.018188.002808-.004028.00061-.008545.001221-.012573.001831-.005859.000854-.01123.001709-.017212.002563-.004272.000732-.008911.001343-.013306.002075-.005249.000732-.010742.001587-.015991.002441-.004639.00061-.009277.001343-.013794.002075-.005249.000854-.011719.001831-.016968.002563-.004028.00061-.008423.001343-.012451.001953-.00647.000977-.01355.002075-.020142.003174-.002808.000366-.006348.000977-.009277.001343-.009766.001587-.019653.003174-.029541.004639-.001953.000366-.004395.000732-.006348.001099-.007935.001221-.015137.002319-.022949.00354-.004028.000732-.007935.001343-.011963.001953-.005859.000977-.011841.001953-.0177.002808-.004395.000732-.008057.001343-.012329.002075-.005981.000854-.011719.001831-.0177.002808-.004272.000732-.008179.001343-.012451.002075-.005859.000854-.011597.001831-.017456.002808-.004028.00061-.008179.001343-.012085.001953-.006592.001099-.011353.001831-.017944.00293-.004028.000732-.008057.001343-.012085.002075-.00647.001099-.013306.002197-.019897.003296-.003174.000488-.006226.000977-.009399.001587-.009766.001587-.019409.003174-.029175.004883-.002563.000366-.004883.000854-.007446.001221-.007812.001343-.01416.002441-.022095.003784-.003906.00061-.008057.001343-.012085.002075-.005859.000977-.01123.001953-.01709.00293-.004272.000732-.008789.001465-.013062.002197-.005859.001099-.011108.001953-.016968.00293-.004272.000732-.008423.001465-.012695.002197-.005249.000977-.011475.002075-.016602.00293-.004639.000854-.008667.001587-.013184.002319-.005249.000977-.011841.002075-.01709.003052-.003906.00061-.008301.001465-.012329.002197-.00647.001099-.012573.002197-.019043.003296l-.010254.001831c-.009766.001831-.019287.00354-.029053.005249-.002319.000366-.004272.000732-.006592.001221-.007812.001343-.014893.002686-.022705.004028-.003662.000732-.007935.001465-.011719.002197-.005859.001099-.011841.002197-.0177.003174-.004028.000732-.008301.001587-.012207.002319-.005859.001099-.011475.002075-.017334.003174-.004272.000732-.008667.001587-.012939.002441-.005127.000854-.011353.002075-.016479.003052-.004272.000732-.008545.001587-.012817.002319-.005859.001099-.011353.002197-.017212.003296-.004272.000732-.007935.001465-.012207.002319-.00647.001221-.012817.002319-.019287.00354-.003418.000732-.006592.001343-.01001.001953-.009033.001709-.017456.003296-.026611.005005-.003662.000732-.00708.001465-.010742.002075-.007202.001465-.01355.002686-.02063.004028-.004272.000854-.007935.001587-.012207.002319-.005737.001221-.011108.002197-.016968.003296-.004272.000854-.008789.001709-.013062.002563-.005859.001221-.010498.002075-.016357.003174-.004517.000977-.008911.001831-.013428.002686-.005249.000977-.010254.002075-.015381.003052-.004883.000977-.009399.001831-.014282.002808-.005127.000977-.010132.002075-.015381.003052-.004517.000854-.009033.001831-.01355.002686-.005859.001221-.01123.002319-.01709.003418-.003906.000854-.007935.001587-.011963.002441-.008423.001709-.015747.003174-.02417.004883-.004761.000977-.009644.001953-.014404.00293-.005859.001221-.012573.002563-.018433.003784-.004761.000977-.009644.001953-.014404.00293-.005249.001099-.009644.001953-.014893.003052-.004761.000977-.009155.001953-.014038.00293-.005127.001099-.009766.001953-.015015.003052-.005005.001099-.009521.002075-.014648.003052-.005127.001099-.009155.001953-.014282.003052-.004761.000977-.009766.001953-.014648.003052-.005127.001099-.009399.001953-.014526.003052-.004761.000977-.009766.002075-.014648.003052-.005127.001099-.009888.002075-.015015.003174-.004517.000977-.009155.001953-.013672.00293-.00647.001343-.012085.002563-.018555.003906-.00708.001587-.014038.003052-.021118.004639-.005737.001221-.01123.002319-.01709.003662-.004395.000977-.009644.002075-.01416.003052-.005127.001099-.009399.001953-.014526.003174-.004761.000977-.009644.002075-.014404.003052-.005127.001221-.009888.002197-.015015.003296-.004517.000977-.009277.002075-.013794.003052-.005127.001099-.010132.002197-.015381.003418-.004395.000977-.009033.001953-.01355.00293-.005127.001221-.010986.002441-.016113.003662-.004272.000854-.008545.001831-.012817.002808-.005737.001221-.011475.002563-.017334.003906-.003906.000854-.007568.001709-.011475.002563-.008423.001831-.016357.003662-.024658.005493-.003052.000732-.005615.001343-.008667.001953-.008301.001953-.015503.00354-.023804.005371-.004272.000977-.008179.001953-.012451.00293-.005737.001221-.01062.002319-.016357.003662-.004395.001099-.009155.002197-.013672.003174-.005127.001221-.009766.002197-.014771.003418-.005127.001099-.009888.002319-.015015.003418-.005005.001221-.008667.002075-.013794.003174-.005005.001221-.009521.002197-.014526.003418-.005127.001221-.009766.002319-.014771.003418-.004761.001099-.009277.002197-.014038.003296-.005737.001343-.010376.002441-.016113.003784-.00415.000977-.008179.001953-.012329.00293-.006348.001465-.012695.003052-.019043.004517-.006226.001465-.012451.00293-.018555.004395-.00647.001465-.012817.003052-.019165.004517-.00415.001099-.008911.002197-.013062.003174-.005127.001221-.010132.002441-.015259.003662-.004761.001099-.009521.002319-.014282.003418-.005127.001221-.009644.002319-.014771.00354-.004761.001221-.009399.002319-.01416.00354-.005127.001221-.009033.002197-.01416.003418-.005005.001221-.009766.002319-.014771.00354-.005127.001221-.009155.002319-.01416.00354-.004761.001099-.009644.002319-.014404.00354-.005005.001221-.01001.002441-.015137.003662-.004395.001099-.008789.002197-.013306.003296l-.018555.004639-.019043.004761c-.006348.001587-.011963.00293-.018311.004517-.005005.001221-.009644.002441-.014648.003662-.005127.001343-.008789.002197-.013916.00354-.005005.001221-.009521.002441-.014526.003662-.005127.001343-.009033.002319-.014038.00354-.004761.001221-.01001.002563-.014771.003784-.005127.001221-.008789.002197-.013794.00354-.005005.001221-.009888.002441-.014893.003784-.003784.000977-.009277.002319-.013062.003296-.005249.001343-.010498.002686-.015747.00415-.004517.001099-.009033.002197-.013428.003418-.004761.001221-.009644.002441-.014404.003662-.005737.001465-.010498.002808-.016235.004272-.007446.001953-.015015.003906-.022583.005859-.005615.001465-.011353.00293-.016968.004395-.004761.001343-.008911.002441-.013672.003662-.005005.001343-.009521.002441-.014526.003784s-.009644.002563-.014648.003906-.008911.002319-.014038.003662c-.004639.001221-.01001.002686-.014648.003906-.004395.001221-.009033.002441-.013428.003662-.005005.001221-.01001.002563-.015015.003906-.004395.001221-.009399.002563-.013794.003784-.005005.001343-.009399.002441-.014404.003784-.004395.001221-.009888.002686-.014282.003906-.004761.001221-.009399.002563-.01416.003784-.005005.001343-.010254.002808-.015259.00415-.00769.002075-.016113.004395-.023804.00647-.005615.001587-.010376.00293-.016113.004395-.004883.001343-.009766.002686-.014771.004028-.004395.001221-.009033.002563-.013428.003784-.004883.001343-.01001.002808-.015015.00415l-.013184.003662c-.005249.001343-.010376.002808-.015625.004272-.004395.001221-.007935.002197-.012329.003418l-.015747.004395c-.003784.001099-.008545.002441-.012329.003418-.005493.001587-.01062.003052-.016113.004639-.003784.000977-.007935.002197-.011719.003174-.005127.001465-.010986.003174-.016235.004639-.003052.000854-.007324.002075-.010376.00293-.013184.003784-.026123.007446-.039307.011108-.001831.00061-.002563.000854-.004395.001343-.005859.001587-.01123.003174-.01709.004883-.003662.001099-.007202.002075-.010986.003174-.005493.001587-.010498.003052-.015991.004517-.004395.001343-.008057.002319-.012451.003662-.005249.001465-.010498.003052-.015747.004517-.003784.001099-.008179.002441-.011963.003418-.005127.001587-.010864.003174-.016113.004761-.003662.001099-.008179.002319-.011963.003418-.005493.001709-.010742.003174-.016235.004761-.003662.001099-.007568.002319-.011353.003418-.005493.001587-.010864.003174-.016357.004761-.003784.001099-.007446.002197-.011108.003296-.020874.006104-.04126.012207-.062012.018433-.002563.000732-.005859.001709-.008301.002441-.005737.001709-.011719.003418-.017456.005127-.003052.000977-.007568.002319-.01062.003296l-.017212.005127c-.003052.000977-.007324.002197-.010376.003174l-.017212.005127c-.003662.001221-.00647.002075-.010254.003174-.005981.001831-.011841.00354-.017822.005371-.003174.000977-.006104.001953-.009277.002808-.006226.001953-.011841.003662-.018066.005615-.002563.000732-.005737.001709-.008179.002441-.022095.006836-.044189.013672-.066162.020508-.001953.000488-.004028.001221-.005981.001831-.006226.001831-.012573.003906-.018799.005859-.003174.000977-.006226.001953-.009277.002808-.005981.001953-.011963.003784-.017944.005615-.003052.000977-.006226.001953-.009277.00293-.005981.001953-.012207.003784-.018066.005737l-.009521.00293c-.005981.001953-.012207.003906-.018188.005737-.002441.000854-.005981.001953-.008545.002686-.006226.002075-.012573.004028-.018799.005981-.002441.000854-.004639.001587-.00708.002319-.022217.00708-.044678.014282-.066895.021362-.001831.00061-.003906.001343-.005737.001953-.006226.001953-.012573.004028-.018799.005981-.003052.001099-.005859.001953-.009033.00293-.005859.001953-.011841.003906-.017822.005859-.003052.000977-.006592.002075-.009644.003174-.005981.001953-.011597.003662-.017456.005615-.003174.001099-.006836.002319-.01001.003296-.005859.001953-.011597.003784-.017456.005737-.003784.001221-.005981.001953-.009644.003174-.005981.001953-.011963.003906-.017822.005859-.002441.000854-.004517.001465-.00708.002319-.022583.007446-.045288.015015-.067871.022583-.001221.000366-.003052.001099-.004395.001465-.006348.002197-.013062.004395-.019409.006592-.002563.000732-.005615.001831-.008057.002686-.006226.002075-.012573.00415-.018799.006226-.003052.001099-.005127.001709-.008179.002808-.00647.002197-.012573.004272-.019043.00647-.002441.000854-.005371.001831-.007935.002686-.006104.002075-.012695.004272-.018799.006348-.002563.000854-.005737.001953-.008179.002808-.00647.002197-.012573.004272-.019043.00647-.002441.000854-.003662.001343-.006104.002075-.022827.007812-.046265.015991-.06897.023804-.001221.000488-.002319.000854-.00354.001221-.006592.002319-.013306.004639-.02002.006958-.002441.000854-.004639.001587-.00708.002441-.006714.002441-.012817.004517-.019531.006836l-.007324.002563c-.00647.002319-.012939.004517-.019409.006836-.002441.000854-.004761.001709-.007202.002563-.006714.002319-.013184.004639-.019897.006958-.002441.000854-.004028.001343-.00647.002197-.006592.002441-.013428.004761-.02002.007202-.001831.00061-.00354.001221-.005371.001831-.023804.008423-.047974.01709-.071655.025635l-.000732.000244c-.006958.002441-.013672.004883-.020508.007324-.002441.000977-.004639.001709-.00708.002563-.006348.002319-.012695.004639-.019165.006958-.002319.000854-.005005.001709-.007324.002686-.00647.002319-.012939.004639-.019287.006958-.002441.000854-.005005.001831-.007446.002686-.006592.002441-.012939.004761-.019653.00708-.001709.000732-.004028.001465-.005737.002197-.006958.002563-.01416.005127-.021118.00769-.00061.000244-.002075.000732-.002686.000977-.024414.009033-.048828.017944-.073242.026978l-.000977.000366c-.006958.002563-.014038.005249-.020996.007812-.001709.000732-.00415.001587-.005981.002197-.006592.002563-.013428.005127-.02002.007568-.002441.000854-.004028.001465-.00647.002441-.006592.002441-.012817.004761-.019409.007202-.002441.000977-.004883.001831-.007324.002808-.006592.002441-.013184.004883-.019775.007446-.001831.00061-.003906.001465-.005615.002075-.006958.002686-.014038.005249-.020874.007935-.001221.000488-.001709.00061-.002808.001099-.032104.012085-.063843.02417-.095703.036499-.001831.000732-.002808.001099-.004639.001831-.006836.002563-.014282.005493-.021118.008057l-.004883.001953c-.00708.002686-.014038.005371-.021118.008179-.001831.00061-.003296.001221-.005005.001953-.006836.002686-.014404.005615-.02124.008179-.001221.000488-.002808.001099-.004028.001587-.007446.00293-.015137.005859-.022461.008789h-.000122c-.033203.013062-.066284.026123-.099365.039185-.00061.000244-.001343.000488-.001953.000732l-.022705.009155c-.001221.000366-.002075.000732-.003174.001221-.007446.00293-.014771.005981-.022217.008911-.001709.00061-.001953.000732-.003784.001465-.007324.00293-.015137.006104-.022461.009033l-.001831.000732c-.041382.016602-.082642.033447-.123901.050293-.00061.000244.000122,0-.000488.000244-.007812.003174-.015381.006348-.023193.009521-.00061.000244-.002075.000854-.002686.001099-.007568.003052-.014893.006104-.022461.009277-.001221.000488-.002197.000854-.003418.001343-.007568.003174-.014893.006226-.022461.009277-.00061.000244-.001465.00061-.002075.000854-.049438.020508-.098999.04126-.148193.062256h-.000122c-.008057.003418-.016235.006836-.024292.010254-.00061.000244-.00061.000366-.001221.00061-.066162.028076-.131836.056519-.19751.085327l-.000732.000244c-1.732056.759277-3.337402,1.753418-4.776367,2.942383l12.469116,15.09082c-.064697.049561-.159912.144409-.222168.321167L2.146973,14.545898c-.232056.658936-.43103,1.333374-.594971,2.021484l-.000366.001465c-.024536.102783-.048218.206055-.071167.309448l-.000122.000732c-.001831.008301-.003784.016846-.005615.025269-.000122.00061,0,.000244-.000244.000854-.01123.051636-.022461.103271-.033447.155029l-.000244.001221c-.001831.008423-.00354.016602-.005249.025024-.000122.00061-.000122.000732-.000366.001343-.009033.042969-.017944.08606-.026733.12915-.000122.00061,0,0-.000122.000732-.001709.008301-.003418.016602-.005005.024902-.000122.00061-.000366.001465-.000488.002075-.008667.042847-.017212.085693-.025513.128662-.000122.000732-.000244.000732-.000366.001465-.001465.007935-.003052.015747-.004517.023682-.000366.001343-.00061.002808-.000854.004028-.001465.007935-.003052.015747-.004517.023682-.000122.00061-.000244.001099-.000366.001709-.008179.042603-.016235.085327-.02417.128052-.000244.001221-.000488.002319-.000732.00354-.001465.00769-.00293.015625-.004272.023315-.000244.001221-.000488.002686-.000732.003906-.001465.007812-.00293.015747-.004395.02356-.000122.00061-.000122.000732-.000244.001465-.006226.033813-.012329.067749-.018311.101685-.000244.001343-.000488.002563-.000732.003784-.001343.00769-.002686.015503-.004028.023193-.000244.001221-.000488.002686-.000732.004028-.001343.007812-.002686.015381-.00415.023315,0,.00061-.000366.002686-.000488.003296-.005859.033203-.011597.066772-.017212.100098-.000366.001953-.000488.002319-.000732.004272-.001343.007324-.002563.014771-.003784.021973-.000366.002075-.00061.004028-.000977.005981l-.003662.021606c-.000244.001953-.00061.003906-.000977.005859-.005493.032959-.010864.066162-.016235.099243-.000122.00061-.000488.00293-.00061.003662-.001099.007324-.002319.014648-.00354.021851-.000244.002075-.00061.00415-.000977.006104-.001099.00708-.002197.014404-.003418.021484-.000244.001953-.00061.004517-.000977.00647-.001099.007202-.002319.014648-.003418.021729-.000244.001343-.000488.00293-.000732.004272-.005127.033203-.010254.066284-.015259.099487-.000244.001343-.00061.003906-.000854.005127-.000977.006958-.002075.014038-.003174.020874-.000366.002686-.000732.005493-.001221.008179-.000977.006714-.001953.01355-.003052.020386-.000366.002563-.00061.00415-.000977.006714-.001099.007202-.002197.014526-.003174.021729-.000122.00061-.000244.001343-.000366.002075-.00354.024536-.00708.048828-.01062.073364-.000366.002075-.00061.00415-.000977.006104-.000977.006958-.001831.01355-.00293.020508-.000366.002686-.000732.005615-.001099.008301-.000977.006592-.001953.013184-.002808.019897-.000366.002563-.000854.005371-.001221.008057-.000854.006836-.001831.013672-.002808.020508-.000366.002563-.00061.003906-.000977.006592-.003174.023438-.00647.047241-.009644.070679-.000244.001343-.000488.00354-.000732.004883-.000854.006836-.001831.013428-.002686.020264-.000488.003296-.000732.005371-.001221.008667-.000854.00647-.001709.012939-.002563.019531-.000488.003296-.000732.005737-.001221.009033-.000854.00647-.001709.012817-.002563.019287-.000244.002563-.000854.006592-.001221.009155-.000854.006592-.001709.013306-.002563.019775-.000122.001343-.000366.002808-.000488.00415l-.006226.047974c0,.000732-.000122.001221-.000244.001953-.000854.006592-.001709.013306-.002441.02002-.000366.002563-.000854.00647-.001221.009155-.000732.006226-.001587.012451-.002319.018677-.000488.003296-.000854.006836-.001343.010132-.000732.006226-.001465.012329-.002197.018433-.000488.003296-.000854.007202-.001343.010498-.000732.006226-.001465.012451-.002319.018799-.000244.002686-.000488.004761-.000854.007446-.002686.021851-.005371.044189-.007935.066162-.000366.003296-.000854.006836-.001221.010132-.000732.006104-.001343.011963-.002075.017944-.000488.004028-.000854.007324-.001343.01123-.000732.005859-.001343.011719-.002075.0177-.000366.003296-.000854.007935-.001221.01123-.000732.005981-.001465.011963-.002075.017944-.000488.004028-.000732.006714-.001221.010742-.000732.006104-.001343.012085-.002075.018188-.000244.002686-.00061.005493-.000854.008179-.001465.012085-.002808.02417-.00415.036377-.000366.003906-.000732.00708-.001221.011108-.00061.005859-.001221.011597-.001831.017578-.000366.003296-.000977.008179-.001343.011597l-.001831.016846c-.000366.004028-.000854.008911-.001343.012939-.00061.005615-.001099.010864-.001709.016479-.000488.004028-.000854.008179-.001343.012085-.00061.005981-.001221.011597-.001831.017456-.000366.003418-.00061.005981-.000977.009399-.001465.013916-.002808.027832-.004272.041748-.000122.001343-.000366.003052-.000488.004395-.00061.005737-.001221.011841-.001709.0177-.000488.003906-.000854.008057-.001221.011963-.00061.005493-.001099.011108-.001709.016602-.000488.004639-.000732.008179-.001221.012817-.00061.005493-.001099.011108-.001709.016602-.000366.004639-.000854.008667-.001221.013306-.000488.005249-.001099.010376-.001587.015625-.000366.004639-.000854.009399-.001343.014038-.000488.005371-.000977.01062-.001465.015991-.000488.004639-.000854.008789-.001343.013428-.000854.009766-.001831.019531-.002686.029175-.000488.004761-.000854.009033-.001221.013672-.000488.005249-.000977.01062-.001465.015869-.000488.004639-.000854.009399-.001343.01416-.000488.005005-.000977.010254-.001343.015381-.000488.004639-.000854.009155-.001221.013916-.000488.005249-.000977.010376-.001465.015747-.000366.004761-.000854.009888-.001221.014526-.000488.004883-.000977.01001-.001343.014893-.000488.005981-.001221.013306-.001709.019287-.000488.005859-.000977.011841-.001465.017578-.00061.006714-.001221.013916-.001831.02063-.000366.004883-.000732.009399-.001099.014282-.000488.005249-.000854.009888-.001343.015259-.000366.004883-.000854.010132-.001221.015137-.000366.004639-.000854.010132-.001221.014893-.000366.004883-.000732.009644-.001099.014526-.000488.005371-.000854.01001-.001343.015381-.000366.004883-.000732.009888-.001099.014771-.000488.005371-.000854.010254-.001221.015625l-.001099.013916c-.000732.009399-.001465.018433-.002197.027832-.000366.004639-.000732.009521-.000977.01416-.000488.005371-.000854.010376-.001221.015747-.000366.004883-.000732.009766-.001099.014526s-.000732.010742-.001099.015381c-.000366.004761-.000732.009644-.001099.014526-.000366.005371-.000732.010376-.001099.015747-.000366.004883-.000732.009399-.001099.01416-.000366.005371-.000732.010864-.001099.016235-.000366.004517-.00061.009033-.000977.013672-.000488.008057-.001099.015869-.001587.024048-.000366.004883-.000732.009888-.001099.014893-.000366.005981-.000854.013306-.001221.019287-.000366.004395-.00061.008911-.000854.013306-.000366.005371-.000854.011353-.001221.016724-.000244.004517-.000488.009033-.000854.01355-.000366.005371-.000732.01123-.000977.016602-.000366.004761-.00061.009277-.000977.013916-.000244.005371-.00061.010864-.000977.016235-.000244.004517-.00061.009155-.000854.013794-.000366.005981-.000854.013306-.001221.019409-.000244.00354-.000366.00708-.00061.01062-.00061.009399-.001099.019043-.001709.028442-.000244.00415-.000488.008545-.000732.012695-.000244.005371-.00061.011597-.000977.016968-.000244.004761-.000488.009521-.000854.01416-.000244.006104-.000488.010376-.000854.016357-.000244.004395-.000488.009155-.000732.01355-.000366.006104-.00061.010986-.000977.01709-.000244.004395-.000488.008667-.000732.013062-.000244.006104-.00061.012451-.000977.018555-.000122.003906-.000366.007568-.00061.011597-.000488.009399-.000977.019409-.001465.028809-.000122.003662-.000366.00708-.000488.01062-.000366.006836-.000732.012817-.000977.019653-.000244.00415-.000488.008301-.00061.012451-.000366.006104-.00061.011719-.000854.017822-.000244.004272-.000488.008667-.00061.012939-.000244.005493-.00061.012207-.000854.017578-.000244.004272-.000366.008423-.00061.012817-.000244.006714-.000488.011963-.000854.018677-.000122.003784-.000366.00769-.000488.011475-.000854.020264-.001709.039429-.002563.059692-.000122.00354-.000244.007446-.000488.010986-.000244.006836-.000488.012573-.000732.019409-.000122.003906-.000366.008057-.000488.012085l-.000732.018311c-.000122.00415-.000244.008301-.000488.012451-.000244.006104-.000488.012817-.00061.018921-.000244.003784-.000366.007568-.000488.01123-.000244.007568-.00061.016235-.000854.023682,0,.002197-.000122.004272-.000244.00647-.000366.010132-.00061.020142-.000977.030273-.000122.002563-.000122.005249-.000244.007812-.000244.007446-.000488.015137-.000732.022583-.000122.003662-.000244.007446-.000366.010986-.000244.006104-.000366.013428-.00061.019531-.000122.003906-.000244.00769-.000366.011597-.000122.006104-.000366.012939-.000488.019043-.000122.004028-.000244.007935-.000366.011963-.000244.006836-.000366.013794-.00061.02063-.000122.003174-.000122.006226-.000244.009399-.000244.010254-.000488.019775-.000732.030029-.000122.002319-.000122.004639-.000244.006836-.000122.008179-.000366.015625-.00061.023804,0,.003418-.000122.006958-.000244.010376-.000122.006836-.000244.013428-.000366.020264-.000122.003784-.000244.007324-.000244.011108-.000244.006836-.000366.013428-.000488.020264-.000122.00354-.000122.00708-.000244.010742-.000122.006714-.000244.013672-.000366.020386-.000122.00354-.000122.006958-.000244.010376-.000122.008911-.000244.016846-.000488.025635v.004883c-.000244.010132-.000366.02002-.000488.030273-.000122.003174-.000122.006226-.000244.009277,0,.006836-.000122.014282-.000244.021118-.000122.003784-.000122.00769-.000122.011475-.000122.006104-.000244.013062-.000366.019287,0,.004028,0,.007935-.000122.011963,0,.006104-.000122.01355-.000244.019653,0,.003662,0,.006958-.000122.010498,0,.007568-.000122.015259-.000244.022705v.008301c-.000122.010254-.000244.02002-.000244.030273-.000122.002319-.000122.004639-.000122.006958,0,.007568-.000122.015869-.000122.023315,0,.003784-.000122.007568-.000122.011353,0,.006104,0,.013306-.000122.019531v.011963c0,.006104-.000122.012817-.000122.018921v.032227c-.000122.00354-.000122.006714-.000122.010254v.030396h0v.030762c0,.003662,0,.007202.000122.010742v.032593c0,.006226.000122.012573.000122.018677v.012939c.000122.005493.000122.012817.000122.018311,0,.004395.000122.008545.000122.012939,0,.006104.000122.012573.000122.018799,0,.004028,0,.007935.000122.011963,0,.006836.000122.014038.000122.020874,0,.003418.000122.006592.000122.010132.000244.020386.000366.041382.000732.06189,0,.00293,0,.006226.000122.009155,0,.006836.000122.015015.000244.021851,0,.003784.000122.007446.000122.01123.000122.006104.000244.013428.000366.019653,0,.004028.000122.008057.000122.012085.000122.006714.000244.012451.000366.019287.000122.004028.000122.007812.000244.011841.000122.006226.000244.013184.000366.019409,0,.003784.000122.007812.000122.011719.000122.006836.000366.014648.000488.021362,0,.003174.000122.006226.000122.009399.000488.020386.000977.041504.001465.06189,0,.003174.000122.006104.000122.009155.000244.006836.000366.014648.00061.021362.000122.004028.000122.008423.000244.012451.000244.006104.000366.012451.000488.018555.000122.00415.000244.008179.000366.012329.000244.006714.000366.011963.000488.018799.000122.00415.000244.008545.000366.012695.000244.006104.000366.012329.00061.018433.000122.004028.000244.008179.000366.012207.000122.006714.000366.013184.00061.019897.000122.00354.000244.007446.000366.011108.000244.009521.000488.018433.000854.027954,0,.000732,0,.001587.000122.002319.000244.010254.00061.020752.000977.030884.000122.00293.000244.006226.000366.009277.000244.006714.000488.014893.000732.021606.000122.003906.000366.007812.000488.011597.000244.006104.000488.012695.00061.018799.000244.004272.000366.008789.00061.013062.000122.006104.000366.011841.00061.017944.000244.004272.000366.008789.000488.013062.000244.006104.000488.011597.000732.0177.000244.004272.000366.008667.00061.012939.000244.006836.000488.012817.000732.019531.000244.003784.000366.007324.000488.010986.000366.008789.000732.016724.001099.025513.000122.001587.000122.003418.000244.005005.000488.010132.000977.020508.001343.03064.000244.003174.000366.005981.000488.009033.000244.006714.00061.014771.000977.021606.000244.00415.000366.008057.00061.012207.000244.006104.00061.012085.000854.018188.000244.004272.000488.008911.00061.013184.000366.006104.00061.011353.000977.017456.000122.004639.000366.009033.00061.013794.000366.006104.00061.01062.000854.016602.000244.004761.000488.009277.000732.013916.000366.006104.00061.011353.000977.017456.000244.004272.000488.008789.000732.013062.000366.006836.000732.015503.001099.022217.000244.002686.000366.005249.000488.007935.00061.010132.001099.019897.001709.030029.000244.003784.000366.007568.00061.011353.000366.006104.000732.013062.001099.019165.000244.004272.000488.008545.000854.012817.000244.005493.000732.012451.000977.017822.000244.004395.000488.008667.000854.013062.000366.006104.00061.011475.000977.017578.000366.004517.00061.009033.000854.01355.000366.006104.000732.010742.001099.016846.000244.004517.00061.009033.000854.013672.000366.005981.000732.011963.001099.018066.000366.003906.00061.008179.000854.012207.000488.008057.000977.014282.001465.022339.000122.002686.000366.005249.000488.007935.000732.01001.001343.020264.002075.030273.000244.00293.000366.005859.00061.008789.000488.006714.000977.014648.001465.021362.000244.004272.00061.008545.000854.012817.000488.005981.000854.011597.001343.0177.000244.004272.00061.008667.000854.012939.000488.005981.000854.011597.001343.0177.000244.004395.00061.008911.000977.013306.000366.006104.000732.010742.001221.016846.000366.004639.00061.009155.000977.013794.000366.005371.000854.011475.001343.016846.000244.004639.00061.009033.000977.01355.000488.006714.000977.01355.001587.020264.000244.003174.000488.00647.000732.009644.000732.009399.001587.020386.002319.029785.000244.003296.000488.00647.000732.009766.00061.007324.001099.01355.001709.020874.000366.003784.00061.007812.000977.011597.000488.006714.000977.011841.001465.018555.000366.004395.000732.008545.001099.012939.000488.005981.000977.011841.001465.017822.000366.004272.000732.008423.001099.012573.000488.006104.000977.011963.001465.017944.000366.00415.000732.008545.001099.012573.00061.006714.000977.011963.001587.018677.000366.003784.000732.007935.001099.011719.000488.006714.001221.013916.001709.020508.000366.003296.00061.006592.000854.009888.000977.01001.001831.019775.002686.029785.000244.002808.000488.005493.000854.008301.00061.007324.001221.014526.001953.021851.000366.00415.000732.008057.001099.012085.00061.006104.001099.012085.001709.018188.000366.00415.000732.008667.001221.012817.000488.006104.000977.01123.001587.017212.000488.004517.000854.009399.001343.013916.000488.005371.001099.011108.001587.016357.000366.004639.000854.009033.001221.01355.00061.005371.001221.012085.001709.017456.000488.004395.000854.008545.001343.012817.00061.006714.001221.013184.001953.019775.000244.003418.00061.006836.000977.010132.000854.008667.001709.017578.002686.026245.000488.005493.001099.010742.001587.016113.00061.005371.001221.011719.001709.016968.000488.004883.001099.009766.001587.014526.000488.004639.001099.010742.001587.015381.000488.004883.000977.009644.001465.014526.00061.005249.001221.010864.001709.016113.000488.004761.000977.009277.001465.014038.00061.005249.001221.01062.001709.015869.00061.004883.001099.009521.001587.014282.00061.005371.001221.011108.001831.016479.000488.004517.000977.008911.001465.013428.00061.005981.001343.012939.002075.018921.000366.00354.000732.007202.001221.010864.000854.008667.001953.018311.00293.026978.000488.004395.000977.008667.001465.013062.000854.006592.001465.012573.002197.019287.00061.004517.001099.008911.001587.013428.000732.005981.001221.010376.001831.016357.00061.004639.001099.009277.001709.013916.00061.005371.001221.010986.001831.016235.00061.004883.001099.009399.001709.01416.00061.005371.001221.010742.001831.015991.00061.004517.001099.009277.001709.013794.00061.005371.001343.011353.001953.016602.00061.004517.001099.009033.001587.01355.000732.005981.001465.011719.002197.0177.000488.00415.000977.008057.001465.012085.000977.007935.001831.015137.002808.023071.000732.005737.001465.011719.002197.017456.000854.006592.001465.011597.002319.018188.00061.004761.001221.009644.001831.014404.000488.004639.001221.010498.001831.015137.00061.004883.001221.009888.001953.014771.00061.005249.001343.010376.001953.015625.00061.004639.001221.009399.001831.014038.00061.005249.001343.01062.002075.015869.00061.004639.001221.009521.001831.01416.00061.005249.001343.010864.002075.016113.00061.004517.001221.009155.001831.013672.000732.005859.001465.011597.002319.017456.000488.00415.001099.008179.001587.012207.001099.008545.002197.016602.003418.025146.000488.003784.000977.007568.001465.01123.001099.007935.001953.014526.003052.022461.00061.004272.001221.008301.001709.012695.000854.005859.001587.010986.002441.016846l.001831.013916.002197.015747c.000732.004883.001343.009644.002075.014526.000732.005371.001465.010132.002197.015503.00061.004639.001343.009277.001953.014038.000732.005249.001587.010742.002319.015991.00061.004639.001221.009155.001953.013794l.002441.01709.001831.012451c.000977.006592.001953.01355.00293.020142.000854.00647.001831.013062.002808.019531.000977.006592.001831.012085.002808.018677.00061.004517.001343.009277.002075.013916.000732.005249.001465.010376.002319.015625.00061.004761.001343.009644.002075.014404.000854.005249.001587.010132.002319.015381l.002197.014648c.000854.005249.001465.009277.002319.014526.000732.005005.001465.010132.002197.015137.000854.005249.001587.01001.002441.015259.000732.004761.001343.009277.002075.014038.000977.005981.001709.01062.002563.016479.000732.004272.001343.008667.002075.013062.001099.007202.002197.014038.003296.02124.000732.004761.001465.009277.002197.014038.001221.007812.002441.014771.003662.022705.000732.004517.001465.009155.002197.013794.000854.005249.001709.010498.002441.015747.000854.004639.001587.009399.002319.014038.000854.005249.001709.010254.002563.015503.000732.004883.001465.009644.002319.014526.000854.005249.001587.009766.002441.015015.000732.004639.001587.009644.002319.014404.000854.005127.001709.009888.002563.015137.000732.004883.001587.009766.002441.014648.000732.004639.001709.010742.002563.015381.000732.004517.001465.009155.002197.013672.001099.006592.002075.012329.003174.018921.000977.005493.001953.011108.002808.016724.001221.007202.002563.015137.003784.022339.000854.004395.001587.009033.002319.01355.000977.005127.001831.010254.002686.015381.000854.004883.001709.009766.002563.014526.000854.005249.001709.010132.002563.015381.000854.004761.001709.009399.002441.014038.000977.005249.001831.010132.002686.015259l.002563.014282c.000854.005127.001831.010498.002686.015747.000854.004517.001709.009033.002441.01355.001099.005859.001831.010498.00293.016357.000732.004272.001587.008789.002319.013062.001221.00708.002319.012573.00354.019775.00061.003174.001099.006348.001709.009521.001831.009766.003418.018799.005127.028442.000732.003906.001465.008057.002197.011841.001099.005859.002197.011719.003174.017578.000854.00415.001587.008545.002319.012695.000977.005127.002197.011719.003174.016846.000732.004272.001587.008911.002441.013184.000977.005127.002075.010986.003052.016235.000732.004395.001587.008911.002441.013306.001099.005859.001953.010254.003052.016113.000732.004395.001709.009033.002441.013428.001099.005859.002197.01123.003296.01709.000732.003906.001465.007935.002197.011841.001343.007202.002563.012939.003906.020142.00061.003296.001099.006226.001709.009399.001831.009155.003784.019531.005615.028687.00061.003418.001343.006836.001953.010254.001099.005859.002563.012939.003662.018799.000854.004272.001587.008179.002441.012451.000977.005249.002319.011841.003296.016968.000854.004395.001709.008667.002563.013062.000977.005249.002075.01062.003174.015869.000854.004639.001709.009155.002686.013794.001099.005859.001953.010132.003174.015869.000854.004395.001709.008667.002563.013062.001221.005859.002319.011353.003418.017212.000854.003906.001709.008057.002441.011963.001465.007202.002686.012939.004028.02002.00061.003052.001343.006226.001953.009277.001831.009033.003906.019043.005737.028076.000854.004272.001587.008179.002563.012451.001099.005859.002197.01123.003418.01709.000854.004028.001709.008179.002563.012207.001099.005127.002441.011841.00354.016968.000854.004395.001831.008667.002686.013062.001221.005737.002197.010376.003418.016235.000854.00415.001831.008667.002686.012817.001221.005859.002197.010864.003418.016724.000977.00415.001831.008423.002686.012695.001221.005737.002563.011597.003784.017334.000732.003784.001587.00769.002441.011475.001465.00708.002808.013184.004272.020264.00061.003052.001221.005981.001953.009033.001953.009033.00415.019531.006104.028564.000732.003174.001343.006348.002075.009399.001343.00647.002808.013062.00415.019409.000977.004028.001831.007935.002686.011841.001221.005737.002563.012085.003906.017822.000732.003784.001587.00769.002441.011475.001221.005737.002686.012085.003906.017944.000854.003784.001709.007446.002563.01123.001343.006348.002686.012329.00415.018799.000732.003418.001587.006958.002319.010376.001587.00708.00293.013062.004517.020142.00061.00293.001221.005859.001953.008789.001831.008301.003906.017334.005737.025635.000244.001099.000488.002319.000732.003418.002319.010254.004517.019653.006836.029907l.000732.003296c.001953.008301.004028.017334.005859.025635.000732.00293.001343.005859.002075.008789.001587.00708.00293.013062.004639.020142.000732.003662.001587.007202.002441.010864.001343.005737.00293.012695.004272.018433.000854.00354.001709.00708.002441.010498.001465.00647.003052.013062.004517.019409.000732.003174.001587.00647.002319.009766.001587.006958.003418.014526.005005.021606.00061.002319.001221.004639.001709.00708.001953.008301.00415.017334.006104.025635.000244.001221.00061.002441.000854.003662.004639.019775.009277.039185.014038.05896.00061.002319.001221.004639.001709.00708.001831.00769.00354.014648.005493.022339.00061.002686.001343.005493.001953.008179.001709.006958.003296.013794.005005.020752.000732.003052.001465.006104.002319.009155.001709.006958.003296.013794.005005.020752.000732.002808.001343.005615.002075.008423.001831.007568.003662.015015.005615.022705.000488.001953.000977.004028.001465.005981.002319.009521.004761.018921.00708.028442,0,.000122.000122.000488.000122.00061.005127.020264.009888.039551.015015.059937.000366.001221.000732.002686.000977.003906.002075.008179.004272.016968.00647.025269.000488.002075.000977.004272.001587.006348.001953.007568.003906.015381.005859.022949.000488.002197.001099.004517.001709.006836.001953.007568.003906.015015.005859.022583.00061.002441.001221.004761.001831.00708.002075.008301.004272.016846.00647.025146.000244.001099.000488.002075.000854.003296.007812.030273.015503.059692.023438.089966.000122.000122.000122.000488.000244.00061.002441.009399.005127.019287.007568.028809.000244.000977.00061.002075.000854.003052.002319.008789.004639.017334.006958.026245.000366.001465.000732.002808.001099.004272.002441.008911.004639.017334.00708.026123.000244.000977.00061.002197.000854.003174.002563.009399.005005.018799.007568.02832.000122.000244.000244.00061.000244.000854.010986.040405.021851.080078.032959.120239.000122.000366.000244.00061.000244.000977.002808.01001.005127.018555.007935.028564.000244.000732.000366.001343.00061.002075.002441.008789.005371.019043.007812.027832.000244.000732.000366.001343.00061.002075.141724.505127.302246,1.001343.481445,1.489746l18.388306-6.742676c.035889.099243.10022.220215.214478.309814l.427734-.545288.00293-.001099.013794.022217-12.708252,15.782837c.000977.000732.001465.001099.002441.001953.01001.008057.020142.016113.030029.02417.00354.002686.00647.005127.01001.007935.004028.003174.007446.005981.011475.009277.00354.002686.007446.005859.010864.008667.003662.002808.007446.005859.011108.008789.003906.003174.007202.005737.011108.008911.003906.003052.007568.005981.011353.009033.004028.003174.006958.005493.010986.008667.003662.002808.007446.005859.011108.008789.003906.003174.008179.006592.012207.009644.003174.002563.006714.005371.009888.007935.006958.005493.014526.011475.021484.016968.002563.001953.005371.00415.007935.006226.004517.00354.009521.007446.014038.010986.003418.002686.007446.005859.010864.008545.003906.003174.007568.005981.011597.009155.003418.002686.007446.005737.010864.008423.004028.003174.00769.005981.011719.009155.003418.002686.006958.005493.010376.008179.004517.003418.008545.006714.013062.010132.003052.002441.006348.005005.009399.007324.004517.00354.009155.007202.013672.01062.002808.002197.006104.004761.008911.006958.007568.005859.014404.011108.021851.016968.001831.001343.003174.002441.004883.003784.006104.004639.012085.009277.018066.013916.002563.001953.005127.003906.00769.005981.005127.003906.009766.007446.014771.011353.003052.002319.005981.004517.008911.006836.004639.00354.009277.00708.013794.01062.003296.002441.006226.004761.009521.007202.004517.00354.009521.007324.014038.010742.002563.002075.005615.004272.008179.006348.005005.003784.01123.008545.016235.012329.002441.001831.004395.003418.006714.005249.015259.011475.030396.022949.045532.034424.002441.001831.004395.003418.006836.005249.005615.00415.010864.008179.016479.012451.002563.001953.005005.003784.007568.005737.005127.003784.009888.007446.015015.01123.002808.002197.005737.004395.008545.00647.005127.003906.009888.007446.015015.01123.002563.001953.005493.00415.008179.006226.005493.00415.01062.007935.016235.012085.002197.001709.004272.003296.00647.004883.015259.011475.031372.023438.046631.03479.001587.001099.00293.002197.004395.003296.006714.004883.012451.009277.019165.01416.001709.001343.00354.002686.005249.003906.006226.004517.012085.008911.018188.013428.002197.001709.003906.002808.006104.004517.006104.004517.011963.008789.018066.013306.001831.001343.003418.002563.005249.003906.006592.004883.013306.009766.02002.014648.001343.000977.002075.001587.003418.002563.015381.01123.032227.023682.047607.034912.001099.000732.002808.001953.003906.002686.006592.004883.013184.009644.019775.014526.001831.001221.003418.002441.005127.003662l.018677.01355c.001953.001465.00354.002563.005493.004028.006226.004517.012451.009033.018555.013428.001831.001343.003662.002563.005371.003906.006714.004883.013062.009399.019775.01416.001343.000977.002441.001831.003784.002808.015991.011475.032593.023438.048584.034912.000244.000122.000366.000244.00061.000366.00769.005493.015137.010864.022827.016357.001587.001099.00293.002075.004395.003174.006226.004395.013062.009277.019287.013672.001709.001221.003906.002808.005615.004028.006226.004395.013062.009277.019287.013672.001343.000977.002808.001953.00415.00293.007324.005127.014648.010376.021851.015503.000732.000488.001343.000977.002075.001343.024902.0177.048584.034302.073608.051758.000854.000732.001465.001099.002319.001709.007324.005127.014038.009766.021362.014893.001587.001099.00293.002075.004395.003174.006836.004639.013916.009644.020752.014404.000854.00061.002319.001587.003174.002197.007324.005127.015625.010864.022949.015869.000366.000366.000732.00061.001099.000854.025146.017334.049683.034302.074829.051636.000244.000122.000732.000488.000977.00061.007812.005371.015259.010498.023071.015869.000977.00061.002319.001587.003174.002197.007446.005005.014404.009766.021851.014771.000854.000732.001831.001343.002686.001953.007935.005371.015503.010498.023438.015869.000366.000366.000488.000366.000977.000732.025269.017212.050049.033936.075317.051025l.000732.000366c.007935.005371.015747.01062.02356.015991.001221.000732.001831.001099.00293.001831.007324.005005.014771.009888.022095.014893.000977.00061.001953.001343.00293.001953l.023071.015381c.000488.000366.000977.00061.001343.000977.033447.022217.067017.044434.100586.066528.000854.00061.001465.000977.002319.001587.007446.004883.015503.010132.022949.015137.000732.000366.001343.000854.002075.001221.007935.005249.016235.010742.024292.015991l.000488.000366c.03418.022217.067871.044189.102051.066284.000244.000122.000488.000244.00061.000366.008667.005493.016235.010376.02478.015991.000244.000122.000854.000488.001099.00061,1.41333.90918,2.945923,1.647095,4.570679,2.185791.000244,0,.000488.000122.000854.000244.049194.016357.097778.032227.147217.048218.000244,0,.00061.000122.000854.000244.009277.00293.018799.006104.028076.009033.00061.000244.001343.000366.001831.00061.049438.015869.097778.031128.147339.046753.000244,0,.000732.000122.000977.000244.009277.00293.018677.005859.027954.008667.000732.000244.001587.000488.002441.000732.04895.015259.098511.030518.147705.04541.000244,0,.000366.000122.00061.000122.009399.00293.019165.005859.028564.008667.000488.000122.001221.000366.001831.000488.009888.003052.019043.005737.028931.008789h.000122c.039917.011963.079224.02356.119141.035278.00061.000122.001099.000244.001709.000488.008789.002441.018677.005371.027466.007935.000977.000366.001831.00061.00293.000854.009399.002686.018677.005493.028076.008179q.000366.000122.000732.000122c.040039.011597.079468.022949.119507.03418.00061.000244.000854.000244.001343.000366.009399.002686.018188.005127.027588.007812.001099.000366.002319.00061.003418.000977.008789.002441.018188.005127.026978.007568.000854.000244.001465.000366.002197.00061.040283.01123.078979.021851.119263.032837.000854.000244.001221.000366.002075.00061.008789.002319.018066.004883.026978.007324.001343.000366.002563.00061.003906.000977.008911.002441.0177.004761.026489.007202.001099.000244.001709.000488.002808.000732.039673.01062.079956.021362.119751.03186.000244,0,.000732.000122.000977.000244.009521.002441.018433.004761.027954.007202.001343.000366.002441.000732.003784.001099.008911.002197.017334.004517.026245.006714.001343.000366.002075.00061.00354.000977.008789.002319.018433.004761.027344.00708.000854.000122.001221.000244.002075.000488.029785.00769.059814.015381.0896.022827.001343.000366.002197.00061.00354.000977.008911.002197.016724.00415.025635.006348l.005371.001343c.008179.002075.016602.00415.02478.006226.001465.000366.003052.000732.004517.001099.008789.002197.018311.004639.027222.006836.000488.000122.001465.000366.002075.000488.030396.007568.059814.014648.090332.022095.000488.000122.001587.000366.002197.000488.008911.002197.017822.004395.026733.00647.001709.000488.003418.000854.005127.001221.008301.002075.016479.004028.02478.005981.001953.000488.003296.000732.005127.001221.008911.002197.016846.004028.025757.006104.001099.000244.002563.00061.003662.000854.029907.007202.059937.01416.089966.02124.001099.000244.002197.000488.003174.000732.009033.002075.016724.003906.025635.005859.002197.00061.004517.001099.006714.001587.007568.001709.015381.00354.022949.005249.002197.00061.004395.001099.006592.001587.008301.001831.015991.003662.024292.005493.001709.000366.003418.000854.005127.001221.030029.006836.059692.013428.089844.020142.001099.000244.002075.000488.003174.000732.008911.001953.017212.003906.026245.005859.001587.000366.00354.000732.005249.001099.00769.001709.01709.003784.02478.005493.001831.000366.00354.000732.005493.001221.008301.001831.016113.00354.024536.005371.001953.000366.00354.000732.005371.001099.009644.002197.019043.00415.028687.006226l.00061.000122c.019897.004395.040283.008667.060181.012939.001953.000488.003418.000732.005371.001221.008423.001709.015625.003296.024048.005005.002441.00061.004761.000977.007202.001587.00769.001587.015137.003174.022827.004761.002197.000488.004639.000977.006836.001465.00769.001587.015991.003296.023682.004883.001953.000488.00415.000854.006104.001343.009033.001831.018066.003662.0271.005615.00061.000122.001709.000244.002197.000366.02063.004272.040039.008301.060669.012451.001343.000244.002319.000488.003662.000732.009033.001831.016602.003418.025635.005249.002197.000366.004517.000854.006714.001343.007812.001587.015259.003052.023071.004639l.007324.001465c.007812.001465.015381.003052.023071.004517.001953.000366.004639.000977.006592.001343.009033.001709.017944.00354.026978.005371.000854.000122.001465.000244.002319.000366.02063.004028.040161.007935.060913.011841.001099.000244.002075.000488.003174.000732.009155.001709.01709.003174.026123.005005.002197.000366.004639.000854.006836.001221.007812.001587.015381.00293.023071.004517.002319.000366.005005.000854.007202.001343.007812.001465.015381.00293.023193.004395.002197.000366.004639.000854.006836.001221.009033.001709.017578.003296.026733.005005.000732.000122.001587.000366.002441.000488.020752.003906.040527.007568.061279.011353.001099.000244.001465.000244.002563.000488.009155.001587.017578.003174.026611.004883.002563.000366.004517.000732.00708.001221.007812.001465.015259.002808.023071.00415.002441.000488.005005.000977.007446.001343.007812.001465.014771.002686.022583.00415.002563.000366.005005.000854.007446.001221.008545.001587.016846.003052.025269.004517.001343.000244.00293.000488.004272.000732.020142.003662.041138.007324.061401.010864.000244,0,.000488,0,.000732.000122.009766.001709.018799.003174.028564.004883.002197.000366.00415.000732.00647.001099l.023438.004028c.002319.000366.005005.000854.007202.001221.007812.001343.015503.002686.023315.004028.002563.000366.004517.000732.00708.001099.008423.001465.016113.002808.024658.00415.001709.000366.003418.00061.005127.000854.020264.003418.040894.006836.061157.010132.000488.000122.001343.000244.001953.000366.009155.001465.018066.00293.027222.004395.002808.000488.005005.000854.007812.001343.007202.001099.014893.002441.022095.00354.002808.000488.005981.000977.008789.001465.007202.001099.013916.002197.021118.003296.003174.00061.005981.000977.009033.001465.007202.001221.015625.002563.022827.003662.002319.000366.004639.000732.006836.001099.009766.001465.019165.00293.029053.004517.000244,0,.000366.000122.000732.000122.010376.001587.020264.003174.030762.004761.001099.000122.002563.000366.003662.00061.008545.001221.017334.002686.025879.003906.002808.000488.005615.000854.008423.001343.007202.001099.01416.002075.021362.003174.003052.000488.006226.000977.009399.001465.006592.000977.014404.002197.020996.003174.003052.000488.005981.000854.009155.001343.007202.001099.014893.002197.022095.003296l.00769.001099c.009155.001343.017334.002563.026611.003906.001099.000244.002197.000366.003296.000488.010498.001587.02002.00293.030518.004517.001099.000122.002441.000366.00354.000488.008667.001221.017578.002563.026123.003784.002808.000366.005371.000732.008179.001099.007202.001099.015015.002197.022217.003174.002808.000488.005859.000854.008667.001221.006592.000977.01416.002075.020752.00293l.010254.001465c.007202.000977.013672.001953.020996.00293.002808.000366.005859.000854.008667.001221.008545.001099.017212.002319.025757.00354.001465.000122.002563.000366.003906.000488.01062.001465.020264.002808.030762.00415.000854.000122.001831.000244.002686.000366.009277.001343.017822.002441.0271.003662.002808.000366.005371.000732.008179.001099l.021973.00293c.003052.000366.005859.000732.008911.001221.006592.000854.015015.001953.021606.002808.003052.000366.005859.000732.009033.001221.007324.000854.014648.001831.021851.002808.002563.000244.005737.000732.008301.000977.008545.001099.015625.002075.024292.003174l.005859.000732c.01001.001221.020752.002686.03064.003906.000366,0,.00061,0,.000854.000122.009888.001221.018921.002319.028809.00354.003174.000366.005493.000732.008545.001099.007324.000854.01416.001709.021484.002563.003052.000366.006836.000854.01001.001221.006592.000854.01355.001709.020264.002441.003418.000488.006592.000854.01001.001343.007324.000854.013916.001587.02124.002441.002808.000366.005981.000732.008789.001099.008057.000977.016113.001953.024048.002808.001953.000244.00415.000488.006104.000732.009888.001221.02063.002441.03064.00354.000244.000122.000732.000122.000977.000122.009888.001221.018921.002197.028809.003418.00293.000244.005737.00061.008545.000977.007324.000732.014282.001587.021606.002441.003418.000366.006348.00061.009766.001099.006714.000732.01416.001587.020752.002319.003174.000366.006714.000732.009888.001099.007202.000732.014038.001465.021362.002319.003174.000366.005493.00061.008667.000977l.023804.002563c.002319.000244.004272.000488.006592.000732.019897.002075.040527.004272.060425.006348.00293.000366.005981.000732.008911.000977.007324.000732.013794.001465.021118.002197.003784.000366.007446.000732.011108.001099.005981.00061.012695.001343.018677.001953.004028.000427.007812.000793.011841.001221.006714.000671.012939.001282.019531.001953.003418.000366.006958.000732.010376.001038.007324.000732.014893.001465.022217.002197.002686.000244.005127.000549.00769.000793.02002.001953.040405.003906.060425.005859.003174.000244.006348.000549.009521.000854.006714.000671.01416.001343.020874.001953.003418.000366.006836.000671.010254.000977.006714.00061.01355.001282.020142.001892.00354.000305.007446.000671.010864.000977l.020142.001831c.003174.000305.006836.00061.01001.000916.007324.000671.014404.001282.021729.001953.002808.000244.005859.000549.008789.000793.02002.00177.040649.00354.060669.00531.002563.000183.004761.000366.007324.00061.007324.00061.015625.001343.023071.001953.003418.000305.00647.000549.01001.000854.006714.000549.013062.001099.019775.001648.003784.000305.00769.00061.011475.000916.006714.000549.012939.001038.019653.001587.003418.000305.007202.00061.010742.000916.006592.000488.013916.001099.020508.001648.00354.000244.00647.000488.009888.000732.008667.000732.017944.001465.026733.002136.001099.000061.002319.000183.003418.000244.01001.000793.020142.001587.030273.002319.003174.000244.005615.000427.008789.000671.006592.000488.014648.001099.021362.001648.003784.000244.007202.000488.010986.000793.006104.000427.013428.000977.019531.001465.003784.000244.00769.000549.011475.000793.006714.000488.012695.000916.019409.001404.003784.000305.00708.000549.010864.000793.007324.000488.013672.000977.021118.001465.003174.000244.006104.000427.009277.000671.009399.000671.019287.001343.028687.001953.00061.000061.000854.000061.001343.000122.010132.000671.020874.001404.031006.002075.002319.000183.004395.000305.006714.000427.008057.000549.015747.001038.023804.001587.003174.000183.006592.000427.009766.00061.006714.000427.013672.000916.020386.001343.003784.000244.007446.000488.01123.000671.006714.000427.012817.000854.019531.001221.003784.000244.007568.000488.01123.000732.006836.000427.013672.000854.020508.001221.003418.000244.006348.000427.009766.00061.008789.000549.016602.000977.025391.001526.001709.000061.003296.000183.005127.000305.01001.000549.020264.00116.030396.00177.002686.000122.005249.000244.007935.000427.007324.000427.015137.000854.022583.001282.003418.000183.00708.000366.010498.000549.006104.000366.013672.000793.019775.001099.004028.000183.008057.000427.012207.000671.005981.000305.011963.00061.018066.000916.004028.000244.008667.000488.012695.000671.006104.000305.012207.000671.018188.000977.00415.000183.008301.000427.012329.00061.007446.000366.014893.000732.022217.001099.002686.000122.005127.000244.00769.000366.010132.000549.020142.000977.030273.001465.00293.000183.005127.000244.008057.000427.007446.000305.015137.000671.022583.001038.003784.000183.00708.000305.010864.000488.006836.000305.012817.000549.019653.000854.004028.000183.007446.000366.011475.000549.006714.000305.013184.000549.019897.000854.00354.000122.007324.000305.010864.000488.006714.000244.013428.000549.020264.000793.003418.000183.00708.000305.01062.000488.007446.000305.015991.00061.023438.000916.002319.000122.004639.000183.006958.000305.010132.000366.020386.000793.030518.00116.002319.000122.004761.000183.00708.000305.008057.000305.015381.000549.023438.000854l.01062.000366c.006836.000244.013428.000488.020142.000732.003784.000122.00769.000244.011475.000366.006836.000244.012817.000488.019653.000671.003784.000122.007324.000244.011108.000366.006714.000244.013428.000488.020142.000671.00354.000122.007446.000244.010986.000366.007446.000244.015137.000488.022583.000671.002686.000122.005127.000183.00769.000244.010254.000305.020386.00061.03064.000916.001953.000061.004028.000122.006104.000183.008179.000183.016724.000427.024902.000671.003174.000061.00647.000183.009644.000244.006836.000183.013794.000366.020508.000549.003784.000122.008301.000183.012085.000305.006104.000122.013062.000305.019165.000488.004028.000061.007446.000183.011597.000244.006104.000183.013916.000305.020142.000488.003418.000061.006836.000122.010376.000244.007446.000122.015869.000305.023315.000488.002441.000061.005127.000122.007446.000122.010254.000244.020874.000427.031006.00061.00061.000061.001831.000061.002441.000061.009521.000183.018921.000366.028442.000549.00293,0,.005859.000061.008789.000122.007568.000122.014404.000244.021851.000366.00354.000061.007446.000122.010986.000183.006836.000122.013062.000183.019897.000305.003784.000061.00769.000122.011597.000122.006104.000122.013306.000183.019409.000305.00415.000061.007568.000061.011719.000122.007446.000122.014282.000183.021729.000244.00293.000061.005615.000061.008545.000122.010254.000122.020508.000244.030762.000305.001465,0,.002808.000061.004272.000061.008789.000061.017822.000122.026611.000244.00354,0,.006714,0,.010254.000061.006836.000061.013428.000122.020264.000122.00415.000061.008057.000061.012085.000061.006226.000061.012939.000122.019043.000122.00415.000061.008179.000061.012329.000061.006104.000061.012939.000061.019043.000061.003784.000061.007812.000061.011719.000061.006714,0,.013916.000061.020752.000061h.010132c.010254,0,.020386.000061.03064.000061h0v-19.574768c.080444,0,.225586-.027954.357666-.100342l10.331421,16.634033c.800781-.497437,1.564087-1.048828,2.2854-1.649536.000244-.000122.000732-.00061.000977-.000732.007324-.006104.014771-.012329.022095-.018433.000488-.000366.000977-.000854.001465-.001221.00769-.00647.014893-.012451.022583-.018921l.000122-.000122c.038818-.032593.077393-.065063.116089-.098022.000244-.000122.000366-.000366.00061-.000488.007812-.006592.014282-.012207.022095-.018799.000366-.000366.001343-.001099.001709-.001465.006836-.005859.013672-.011719.020386-.017456.001099-.000977.002197-.001831.003174-.002808.006836-.005737.013428-.011353.020142-.017212.000854-.000732.001587-.001221.002441-.001953.007202-.006226.014282-.012329.021484-.018555.000366-.000366.000488-.000366.000854-.000732.030762-.026489.060791-.05249.091431-.079224.000366-.000366.001221-.000977.001587-.001343.006714-.005859.013794-.012085.020508-.017944.001221-.001099.002075-.001831.003418-.00293.005737-.005005.012695-.01123.018433-.016235.001709-.001465.003174-.002686.004883-.00415.005615-.005005.012085-.01062.0177-.015625.001587-.001343.00293-.002563.004395-.003784.006226-.005493.011963-.01062.018188-.016113.001465-.001221.002686-.002319.00415-.003662.006714-.005859.013428-.011841.020142-.0177.00061-.00061.001099-.000977.001709-.001587.022705-.020142.044556-.039429.067261-.059692.000977-.000977.002075-.001953.003052-.002808.006226-.005493.012329-.010986.018433-.016479.001953-.001709.003784-.003418.005737-.005127.005249-.004639.01062-.009521.015869-.014282.002075-.001831.004639-.004028.006714-.005981.004761-.004272.010498-.009399.015137-.013672l.006958-.006226c.005249-.004639.009399-.008545.014648-.013184.002441-.002197.004761-.004272.007324-.006592.004639-.004272.010132-.009155.014893-.013428.002075-.001953.004639-.004272.006836-.006226.005127-.004639.010498-.009521.015625-.014282.002197-.001953.003906-.003418.005981-.005371.014038-.012817.029053-.026489.043091-.039307.002075-.001831.004028-.003662.006104-.005615.004639-.004272.010498-.009521.015137-.013794.002686-.002563.005127-.004761.007812-.007202.004761-.004272.008789-.008057.013428-.012329.003174-.002808.005981-.005493.009155-.008423.00415-.003784.007812-.007202.011963-.010986.003174-.00293.006348-.005859.009399-.008667.004272-.003906.007812-.007202.011963-.011108l.009521-.008789c.003662-.003418.008301-.00769.011963-.011108.00293-.002686.006226-.005737.009155-.008423.00415-.003906.008057-.007568.012207-.011353.003174-.00293.006226-.005859.009399-.008667.004639-.004395.008057-.00769.012695-.011963.00293-.002686.005249-.004883.008179-.007568.00647-.006104.013794-.012939.020264-.018921.003052-.00293.006348-.005981.009521-.008911.00415-.003906.007812-.007324.011963-.01123.003052-.00293.006348-.006104.009399-.008911.004272-.003906.00708-.006714.01123-.01062.00354-.003296.006836-.00647.010376-.009766.003662-.003418.007202-.006714.010864-.010254.003296-.003052.006958-.006592.010254-.009644.003784-.00354.006714-.006348.010376-.009888.00354-.003296.00708-.006592.01062-.01001.003662-.003418.006958-.006592.01062-.01001.003662-.00354.006958-.006714.01062-.010254.002808-.002563.006226-.005737.008911-.008423.00415-.003906.008179-.007812.012329-.011719.002686-.002563.005005-.004761.007812-.007446.004272-.00415.008423-.008057.012817-.012207.001831-.001709.003662-.00354.005493-.005249.009399-.009033.018921-.018066.02832-.0271.001709-.001831.004272-.004272.006104-.005981.00415-.003906.008545-.008179.012573-.012207.002808-.002563.005371-.005127.008179-.00769.003784-.003784.007935-.007812.011841-.011475.003174-.003174.005981-.005737.009155-.008789.003662-.003662.007324-.007202.010986-.010742.003174-.003052.006348-.006104.009521-.009277.003906-.003662.007812-.007568.011719-.01123.003174-.003174.005249-.005127.008423-.008179.004028-.004028.008179-.008057.012329-.012085.002197-.002197.005127-.005005.007446-.007202.004517-.004395.008911-.008789.013428-.013184.001831-.001709.003784-.003662.005615-.005493.005127-.005005.009644-.009399.014648-.014404.000977-.000854.001709-.001587.002686-.002441.017944-.0177.036255-.035645.054199-.053345.000366-.000488.001465-.001465.001831-.001953.005249-.005127.010132-.009888.015259-.015015.001465-.001343.003906-.003906.005249-.005249.005005-.004883.009766-.009644.014771-.014648.001831-.001709.003174-.003052.005005-.004883l.015015-.015015c.001831-.001709.003052-.00293.004761-.004761.005127-.005005.010376-.010254.015381-.015259l.004028-.004028.015991-.015991c.000977-.000977.001953-.001953.00293-.002808.031006-.031128.061768-.062134.092651-.093384.000366-.000488.000854-.000977.001221-.001343.005859-.005859.011108-.01123.016846-.01709.000854-.000977.002075-.002075.00293-.003052.005249-.005249.010864-.010986.015991-.016235l.003906-.003906c.005127-.005249.010498-.010742.015625-.015991.001343-.001343.002319-.002441.003662-.003784.005615-.005737.010742-.010986.016235-.016602l.002441-.002441c.005737-.005981.011475-.011841.017212-.0177l.00061-.000732c.03125-.032104.062134-.064087.09314-.096313l.001221-.001221c.005493-.005737.011353-.011841.016846-.017578.000854-.000854.001831-.001953.002686-.00293.005493-.005737.011353-.011719.016846-.017456.000854-.000977.000977-.001099.001831-.001953.005615-.005981.011597-.012207.017334-.018188.000366-.000488.001099-.001099.001465-.001587.005859-.006104.011841-.012451.0177-.018555l.000366-.000488c.037109-.039062.074585-.078735.111328-.118164l.000488-.000488c.005981-.006348.011841-.012573.017822-.019043.000366-.000488.00061-.000732.001099-.001221.005981-.006348.011841-.012695.017822-.019043l.000488-.00061c.005981-.00647.012085-.012939.018066-.019409.000366-.000488.000122-.000122.00061-.00061,1.923462-2.074707,3.418457-4.552368,4.344238-7.292236l-18.555298-6.269165c.031982-.09314.043457-.178711.043457-.228516,0-.039673-.00708-.100708-.025635-.170166l19.13208-4.183472c-.235962-1.078735-.557617-2.125366-.957642-3.132324-.000244-.00061-.000244-.000732-.000488-.001343-.003174-.007935-.006104-.015381-.009277-.023315-.000488-.001221-.000854-.002075-.001343-.003296-.002808-.007202-.005981-.014893-.008789-.022095-.000732-.001831-.001099-.002686-.001831-.004517-.003052-.007446-.005859-.014648-.008911-.022095l-.001221-.003052c-.003052-.00769-.006226-.015625-.009399-.023315l-.000244-.00061c-.013428-.033325-.026978-.06665-.040527-.099854-.000244-.00061-.000732-.001465-.000977-.002075-.002808-.006958-.005615-.013794-.008423-.02063-.000977-.002441-.001587-.004028-.002563-.006348-.002686-.006348-.005127-.012451-.007812-.018799-.000977-.002441-.002441-.005859-.003418-.008301-.002441-.006104-.005005-.012085-.007568-.018188l-.003174-.007935c-.002686-.006348-.005127-.012329-.007812-.018677-.000977-.002441-.002075-.005005-.003052-.007446-.002808-.006592-.005371-.012695-.008179-.019287-.000732-.001831-.001343-.00354-.002197-.005249-.013062-.031494-.026245-.062744-.039551-.094116-.000488-.001221-.001099-.002686-.001709-.003906-.002563-.005981-.005249-.012573-.007812-.018555-.001099-.002441-.002563-.005981-.00354-.008423-.002563-.005737-.005127-.011963-.00769-.0177-.000977-.002441-.002686-.006348-.003662-.008667-.002563-.006104-.004883-.011475-.007446-.017456-.001343-.003052-.002686-.006104-.003906-.009033-.002441-.005859-.005005-.011597-.007446-.017456-.001343-.00293-.002808-.006348-.00415-.009399-.002319-.005493-.004761-.011108-.00708-.016602-.001343-.00293-.003052-.006958-.004272-.009888-.002441-.005493-.005005-.011475-.007446-.01709-.000977-.002319-.001953-.004395-.00293-.006836-.008667-.019897-.017334-.039673-.026123-.059692-.001465-.00354-.003418-.007812-.005005-.011353l-.006226-.014282c-.001831-.00415-.00354-.008179-.005371-.012207-.002075-.004761-.004272-.009766-.006348-.014404l-.005493-.012451c-.002075-.004639-.004272-.009399-.006348-.01416l-.005493-.012451-.006226-.013916c-.002075-.004761-.003784-.008545-.005859-.013306-.001953-.004395-.004028-.008911-.005981-.013306-.001831-.00415-.00415-.009399-.005981-.01355-.002075-.004395-.003906-.008545-.005859-.012939-.002075-.004761-.004395-.009766-.00647-.014404-.001953-.004272-.003662-.008179-.005615-.012329-.003662-.008301-.00769-.017334-.011475-.025513-.001709-.003906-.003174-.007202-.005005-.011108-.002075-.004639-.004883-.010864-.006958-.015503-.001953-.00415-.00354-.00769-.005493-.011841-.002319-.005249-.004395-.009644-.006714-.014893-.001831-.003906-.003784-.008179-.005493-.012085-.002197-.004761-.004639-.01001-.006714-.014648-.001831-.003906-.00354-.007812-.005371-.011719-.002197-.004639-.004883-.01062-.006958-.015259-.001831-.003906-.003662-.007812-.005371-.011719-.002441-.005249-.004761-.010132-.00708-.015381-.001709-.003662-.003296-.00708-.005005-.010742-.002686-.005859-.005127-.011108-.007812-.016846-.001587-.003418-.003052-.00647-.004517-.009888-.00354-.007568-.006348-.013794-.009888-.02124-.000732-.001587-.001587-.003296-.002319-.004883-.004272-.009277-.008057-.017578-.012451-.026855-.000732-.001465-.001709-.003784-.002441-.005249-.003296-.006958-.006836-.014648-.010132-.021606l-.003662-.00769c-.002686-.005859-.006104-.013062-.008789-.018799-.001465-.003174-.002808-.005981-.004272-.009155-.002808-.005737-.005737-.012085-.008423-.017822-.001465-.003052-.002808-.005981-.004272-.009033-.002808-.005859-.005493-.011719-.008301-.017456-.001587-.003418-.00293-.006348-.004517-.009644-.002808-.005859-.005493-.011597-.008301-.017334-.001465-.003174-.00293-.006226-.004395-.009277-.003052-.00647-.005859-.012329-.008911-.018677-.001099-.002319-.002441-.005249-.003662-.007568-.00354-.007568-.006958-.014526-.010498-.022095-.000732-.001465-.001465-.003052-.002197-.004517-.004395-.009277-.008545-.017822-.013062-.0271v-.000122c-.00415-.008667-.008667-.017822-.012817-.026489-.000854-.001831-.001709-.00354-.002563-.005249-.003662-.007568-.006714-.013916-.010376-.021362-.001099-.002319-.002319-.004761-.003418-.00708-.003052-.006348-.00647-.013184-.009521-.019531-.001099-.002319-.002563-.005371-.003662-.00769-.003174-.006348-.006348-.012817-.009399-.019165-.001221-.002563-.002563-.005127-.003784-.00769-.003418-.006958-.00647-.013184-.009766-.02002-.001099-.002075-.001953-.004028-.003052-.005981-.003662-.007568-.00708-.014526-.010742-.021973-.000732-.001465-.001587-.003296-.002319-.004761-.017578-.035645-.035645-.072021-.053467-.107544-.000732-.001465-.001587-.003052-.002319-.004639-.003662-.007446-.007324-.014648-.011108-.022095-.000854-.001709-.001709-.003418-.002563-.005249-.00354-.006836-.007324-.014526-.010864-.021362-.000977-.002075-.001709-.00354-.002808-.005615-.003418-.006836-.00769-.015259-.011108-.022095-.000732-.001221-.001587-.00293-.002197-.004272l-.012085-.023804c-.000488-.000977-.000854-.001587-.001343-.002563-.018555-.036621-.036743-.072144-.055542-.108521l-.000366-.000732c-.004639-.009033-.008667-.016846-.013428-.025879-.000366-.000854-.00061-.001343-.000977-.002075-.00415-.007935-.008789-.016724-.012817-.024658-.000488-.000732-.001099-.002075-.001465-.002808-.00415-.007935-.008545-.016479-.012695-.024414-.000488-.000732-.000854-.001587-.001221-.002319-.004517-.008423-.009033-.017212-.01355-.025757l-.000366-.000732c-.023682-.045288-.047241-.089844-.071289-.13501-.000366-.000488-.000366-.00061-.00061-.001099-.004517-.008545-.008789-.016479-.013306-.024902-.00061-.000977-.001099-.002075-.001709-.003052-.00415-.007935-.008545-.015991-.012817-.023926-.000366-.000732-.000977-.001953-.001465-.002686-.004517-.008423-.008911-.016724-.01355-.025146-.000122-.000366-.000366-.000732-.000488-.000977-.028809-.053467-.058105-.107178-.087402-.160278-.000366-.000732-.000732-.001343-.001099-.002197-.004639-.008301-.009399-.016846-.014038-.025269-.000122-.000244-.000122-.000366-.000366-.00061-.034546-.062622-.069214-.12439-.104492-.186646-.000122-.000244-.000244-.000366-.000366-.00061-.493652-.870605-1.049072-1.700195-1.661621-2.484497-.000366-.000488-.00061-.000854-.000977-.001221-.005859-.007568-.011841-.015015-.0177-.022583-.000366-.000488-.000732-.000977-.001099-.001343-.006226-.008057-.011963-.015259-.018188-.023315l-.000122-.000122c-.031372-.039917-.0625-.079224-.094238-.118896-.000366-.000488-.000488-.000732-.000854-.001221-.005615-.006958-.011963-.014893-.017456-.021851-.000732-.000854-.001465-.001709-.002197-.002686-.005493-.006836-.010986-.013794-.016602-.02063-.000732-.000977-.001465-.001953-.002197-.002808-.005615-.006958-.011108-.013794-.016724-.020752-.00061-.000854-.001465-.001831-.002197-.002686-.025024-.031128-.050415-.0625-.075684-.093506-.000366-.000488-.000488-.00061-.000854-.001099-.005615-.006836-.012085-.014771-.017822-.021729-.000854-.001099-.001709-.002075-.002563-.003174-.005615-.006836-.010254-.012451-.015869-.019409l-.003662-.004395c-.004883-.005859-.010498-.012695-.015259-.018677-.001221-.001465-.002563-.003052-.003784-.004517-.005249-.00647-.009644-.011841-.014893-.018188-.001343-.001465-.002808-.003296-.00415-.004883-.005615-.006836-.010864-.013184-.016479-.02002-.000732-.000854-.001221-.001465-.001953-.002319-.019409-.023438-.037964-.045776-.057495-.069214-.000732-.000854-.001465-.001587-.002075-.002441-.005737-.006836-.011108-.013184-.016724-.02002-.001343-.001465-.002441-.002808-.003662-.004395-.004883-.005737-.010254-.012085-.015137-.017944-.001587-.001953-.003052-.003662-.004761-.005615-.004883-.005859-.009155-.010986-.014038-.016724-.001831-.002197-.003296-.003906-.005127-.006104-.004517-.005371-.009277-.010986-.013794-.016357-.001831-.002197-.00354-.004272-.005371-.006348-.005005-.005859-.010254-.012085-.015259-.017944-.001099-.001343-.002197-.002686-.003296-.003906-.006226-.007324-.012329-.014648-.018555-.021851l-.000488-.00061c-.012695-.014893-.025513-.029907-.03833-.044922-.001831-.002075-.003662-.00415-.005493-.006348-.004517-.005249-.009033-.01062-.01355-.015869-.002075-.002441-.00415-.004761-.006104-.00708-.004517-.005371-.008057-.009399-.012695-.014771-.002197-.002563-.004761-.005615-.00708-.008179-.004028-.004761-.007935-.009277-.012085-.014038-.002319-.002808-.004517-.005371-.006958-.008057-.003784-.004395-.008423-.009766-.012085-.014038-.002197-.002563-.004761-.005493-.006958-.008057-.004517-.005249-.008667-.009888-.013184-.015137-.001953-.002197-.003906-.004517-.005737-.006714-.005005-.005737-.009766-.011108-.014771-.016846l-.004395-.005127c-.006226-.007202-.012939-.014771-.019165-.021851-.001099-.001343-.001953-.002319-.003174-.003662-.005371-.006226-.010376-.011841-.015747-.018066-.002441-.002686-.004883-.005615-.007324-.008301-.003784-.004272-.007935-.009033-.011719-.013306-.002808-.003296-.005249-.006104-.008057-.009277-.003418-.003784-.00769-.008545-.010986-.012451-.003052-.003296-.005615-.006348-.008667-.009766-.003296-.003784-.007202-.008057-.010498-.011963-.002808-.003174-.005737-.00647-.008545-.009644-.003784-.004272-.006836-.00769-.01062-.011963-.00293-.003296-.005859-.006592-.008911-.01001-.003418-.003784-.00708-.008057-.010498-.011841l-.008423-.009521c-.003906-.004272-.007568-.008423-.011353-.012695-.002808-.003174-.005249-.005859-.008057-.009033-.004639-.005249-.009644-.010742-.014282-.015991-.003784-.00415-.007568-.008423-.011353-.012573-.00415-.004761-.00769-.008667-.011963-.013428l-.009521-.01062c-.003418-.003784-.00647-.007202-.009888-.010864-.003174-.003662-.00647-.007202-.009644-.010742-.003052-.003296-.00647-.007202-.009399-.010498-.003418-.003784-.006592-.007324-.01001-.010986-.003052-.003296-.006348-.00708-.009277-.010376-.003662-.003906-.006958-.00769-.01062-.011597-.00293-.003296-.004883-.005493-.007935-.008789-.003784-.00415-.007812-.008545-.011597-.012695-.002075-.002319-.005249-.005737-.007324-.008057-.004028-.004395-.007935-.008789-.011963-.013184-.002075-.002319-.004639-.005005-.006714-.007324-.004028-.004395-.008423-.009277-.012451-.013672-.001221-.001343-.003662-.004028-.005005-.005371-.015259-.016724-.030273-.033081-.045532-.049683-.001709-.001831-.00415-.004517-.005859-.006348-.004028-.004395-.008057-.008667-.012085-.013062-.002563-.002808-.004883-.005249-.007446-.008057-.004028-.004395-.008179-.008911-.012207-.013306-.002197-.002319-.004639-.004883-.006714-.007202-.004272-.004517-.008789-.009399-.012939-.013916-.002197-.002319-.003662-.003906-.005859-.006226l-.013916-.015015c-.001343-.001343-.003296-.003418-.004517-.004883-.004883-.005127-.009766-.010376-.014526-.015503-.001343-.001343-.00293-.003052-.00415-.004517-.022949-.024536-.046021-.049072-.069092-.073486-.000854-.000854-.001343-.001465-.002319-.002441-.005127-.005493-.01062-.011353-.015869-.016846-.001343-.001343-.001831-.001831-.003052-.003174-.005249-.005615-.010498-.010986-.015625-.016479-.001343-.001465-.002441-.002563-.003784-.003906-.005249-.005615-.010498-.011108-.015747-.016602-.000854-.000977-.002075-.002197-.00293-.003052-.005371-.005737-.010864-.011475-.016357-.017212-.000854-.000854-.001587-.001587-.002441-.002563-.005615-.005859-.011475-.011963-.01709-.017944h0c-.037476-.039062-.074829-.077759-.112549-.116699l-.000488-.000366c-.006348-.00647-.012207-.012573-.018555-.019043l-.000366-.000488c-.630493-.646606-1.303467-1.251099-2.015015-1.809204l-12.083862,15.402588c-.101685-.072754-.221558-.113892-.317139-.132446L23.765503,1.149902c-.006714-.000854-.013184-.001587-.019775-.002441l-.005859-.000732c-.007324-.000854-.014404-.001709-.021606-.002563-.003052-.000366-.006104-.000732-.009033-.001099-.007324-.000854-.015381-.001831-.022705-.002686-.004395-.000488-.008789-.000977-.013184-.001587-.004028-.000366-.008911-.000977-.012939-.001465-.007935-.000977-.015991-.001831-.024048-.002808-.002686-.000244-.004883-.000488-.007446-.000854-.507446-.058228-1.020508-.0979-1.538452-.118042-.000732,0-.001099,0-.001831-.000122-.012329-.000366-.024536-.000854-.036865-.001343h-.001343c-.018311-.000732-.036621-.001343-.05481-.001953-.003418-.000122-.005249-.000244-.008667-.000366-.008911-.000244-.017822-.00061-.026611-.000854-.003418-.000122-.006348-.000244-.009766-.000366-.005371-.000122-.010742-.000244-.016113-.000488-.006836-.000244-.013672-.000366-.020508-.00061-.004761-.000122-.009399-.000244-.01416-.000488-.004761-.000122-.008301-.000244-.013062-.000366-.006958-.000122-.013794-.000366-.020752-.000488-.004761-.000244-.009888-.000366-.014648-.000488-.004395-.000122-.008789-.000244-.013306-.000366-.007446-.000122-.014526-.000366-.021973-.000488l-.013184-.000366c-.005371-.000122-.01062-.000244-.016113-.000366-.005249-.000122-.010376-.000244-.015625-.000366-.006104-.000244-.012939-.000366-.019043-.000488-.003662-.000122-.007446-.000122-.011108-.000244-.008179-.000244-.016113-.000366-.02417-.000488-.003296-.000122-.006592-.000122-.009766-.000244-.006836-.000122-.014526-.000244-.02124-.000366-.003174-.000122-.006226-.000122-.009399-.000244-.008179-.000122-.015503-.000244-.023682-.000366-.002808-.000122-.005737-.000122-.008545-.000244-.008179-.000122-.017822-.000244-.026001-.000366-.002686-.000122-.005249-.000122-.007935-.000122-.008179-.000122-.016602-.000244-.02478-.000366-.001831,0-.003662-.000122-.005493-.000122-.008789-.000122-.016724-.000244-.025513-.000366-.002808,0-.005615,0-.008301-.000122-.008911,0-.017822-.000122-.026733-.000244-.002197,0-.004517-.000122-.006714-.000122-.008911-.000122-.018066-.000122-.026855-.000244h-.002441c-.009644-.000122-.018921-.000244-.028564-.000244-.001953,0-.003784-.000122-.005859-.000122-.009521,0-.018311-.000122-.027832-.000122-.002197,0-.004395,0-.006592-.000122-.008789,0-.018555-.000122-.027344-.000122h-.002319c-.009521,0-.019043-.000122-.028564-.000122h-.005615c-.009521,0-.018555,0-.028198-.000122h-.035156v19.574707h0v.690308h0V1h0ZM21.25647,21.27417l-.104858-.168945.133911.162109-.000488.00061.000732-.000244.001587.001831v-.002197h0v.002197h0v.015869l-.002808.000977.002808.000977v.002319l-.006226-.002075.003418-.001221-.010864-.003906.011353-.014526-.028564.006226h0ZM21.326538,21.258789l.082031-.017944-.094116.034546.000244-.001709.011841-.014893h0ZM21.311646,21.297974l.000244-.001953.143555.050537-.143799-.048584h0Z"/><path class="cls-3" d="M21.287354,1c11.204468,0,20.287354,9.083008,20.287354,20.287354,0,11.204468-9.082886,20.287415-20.287354,20.287415-11.204346,0-20.287354-9.082947-20.287354-20.287415C1,10.083008,10.083008,1,21.287354,1M21.287354,0C9.549438,0,0,9.549438,0,21.287354s9.549438,21.287415,21.287354,21.287415,21.287354-9.5495,21.287354-21.287415S33.025269,0,21.287354,0h0Z"/></svg>