<?xml version="1.0" encoding="UTF-8"?><svg id="Ebene_1" xmlns="http://www.w3.org/2000/svg" width="42.574707" height="42.574707" viewBox="0 0 42.574707 42.574707"><defs><style>.cls-1{fill:#043854;}.cls-1,.cls-2,.cls-3{stroke-width:0px;}.cls-2{fill:#e9fc00;}.cls-3{fill:#fff;}</style></defs><path class="cls-2" d="M21.287476,42.074585C9.825562,42.074585.500366,32.74939.500366,21.287476.500366,9.825073,9.825562.499878,21.287476.499878s20.787109,9.325195,20.787109,20.787598c0,11.461914-9.325195,20.787109-20.787109,20.787109Z"/><path class="cls-3" d="M21.287354,1c11.204468,0,20.287354,9.083008,20.287354,20.287354s-9.082886,20.287354-20.287354,20.287354c-11.204346,0-20.287354-9.083008-20.287354-20.287354S10.083008,1,21.287354,1M21.287354,0C9.549438,0,0,9.549438,0,21.287354s9.549438,21.287354,21.287354,21.287354,21.287354-9.549438,21.287354-21.287354S33.025269,0,21.287354,0h0Z"/><polygon class="cls-1" points="18.237622 40.123176 17.369846 25.113265 2.359934 24.245491 34.9307 7.5524 18.237622 40.123176"/></svg>