<?xml version="1.0" encoding="UTF-8"?><svg xmlns="http://www.w3.org/2000/svg" width="42.574707" height="42.574707" viewBox="0 0 42.574707 42.574707"><defs><style>.cls-1{fill:#043854;}.cls-1,.cls-2,.cls-3{stroke-width:0px;}.cls-2{fill:#e9fc00;}.cls-3{fill:#fff;}</style></defs><g id="Ebene_1"><path class="cls-2" d="M21.287476,42.074646C9.825562,42.074646.500366,32.749451.500366,21.287537.500366,9.825134,9.825562.499939,21.287476.499939s20.787109,9.325195,20.787109,20.787598c0,11.461914-9.325195,20.787109-20.787109,20.787109Z"/><path class="cls-3" d="M21.287354,1c11.204468,0,20.287354,9.082947,20.287354,20.287354s-9.082886,20.287354-20.287354,20.287354c-11.204346,0-20.287354-9.082947-20.287354-20.287354S10.083008,1,21.287354,1M21.287354,0C9.549438,0,0,9.5495,0,21.287354s9.549438,21.287354,21.287354,21.287354,21.287354-9.5495,21.287354-21.287354S33.025269,0,21.287354,0h0Z"/></g><g id="Ebene_3"><polygon class="cls-1" points="21.080211 14.50048 29.792681 3.195727 26.386404 17.055808 40.656952 16.819092 27.696925 22.797577 36.779538 33.807151 24.024926 27.402118 21.080211 41.367548 18.135497 27.402118 5.380885 33.807151 14.463498 22.797577 1.503471 16.819092 15.774019 17.055808 12.367742 3.195727 21.080211 14.50048"/></g></svg>